#N canvas 0 22 837 605 10;
#X obj 23 49 inlet;
#X obj 92 18 inlet;
#X obj 213 393 * 12;
#X obj 158 426 +;
#X obj 169 470 outlet;
#X obj 170 389 t b;
#X obj 106 115 hradio 15 1 1 5 empty empty empty 0 -8 0 10 -262144
-1 -1 3;
#X msg 112 251 -2 -1 0 1 2;
#X obj 114 306 zl nth;
#X obj 10 112 t b;
#X floatatom 123 458 5 0 0 0 - - -;
#X obj 59 123 bng 15 250 50 0 empty empty empty 17 7 0 10 -262144 -1
-1;
#X floatatom 124 217 5 0 0 0 - - -;
#X obj 117 183 + 1;
#X floatatom 83 369 5 0 0 0 - - -;
#X obj 63 158 t b f;
#X obj 88 38 t f f;
#X obj 94 69 + 2;
#X obj 151 65 s \$0-offset;
#X obj 35 88 s \$0-root;
#X obj 89 395 r \$0-root;
#X obj 222 329 r \$0-offset;
#X connect 0 0 9 0;
#X connect 0 0 19 0;
#X connect 1 0 16 0;
#X connect 2 0 3 1;
#X connect 3 0 4 0;
#X connect 3 0 10 0;
#X connect 5 0 3 0;
#X connect 6 0 11 0;
#X connect 6 0 15 0;
#X connect 7 0 8 0;
#X connect 8 0 2 0;
#X connect 8 0 5 0;
#X connect 8 0 14 0;
#X connect 9 0 7 0;
#X connect 12 0 8 1;
#X connect 13 0 12 0;
#X connect 15 0 7 0;
#X connect 15 1 13 0;
#X connect 16 0 17 0;
#X connect 16 1 18 0;
#X connect 17 0 6 0;
#X connect 20 0 3 0;
#X connect 21 0 2 0;
#X coords 0 -1 1 1 85 40 1 100 100;
