#N canvas 121 126 851 584 10;
#X floatatom 332 376 5 0 0 0 - - -;
#X floatatom 450 375 5 0 0 0 - - -;
#X obj 417 285 +;
#X obj 81 418 xor;
#X floatatom 585 369 5 0 0 0 - - -;
#X floatatom 700 377 5 0 0 0 - - -;
#X obj 551 283 +;
#X obj 653 288 +;
#X obj 268 286 +;
#X obj 365 142 4bitshift;
#X obj 416 48 inlet;
#X obj 292 414 outlet;
#X obj 422 418 outlet;
#X obj 533 417 outlet;
#X obj 665 418 outlet;
#X obj 341 252 * 0.68;
#X obj 470 258 * 0.68;
#X obj 587 262 * 0.68;
#X obj 207 253 * 0.68;
#X obj 415 102 bang;
#X obj 390 72 bng 15 250 50 0 empty empty empty 17 7 0 10 -262144 -1
-1;
#X obj 73 491 xor;
#X text 401 22 clock bang;
#X text 463 483 random number \, 0-1;
#N canvas 98 176 450 300 randomscale 0;
#X obj 197 89 inlet;
#X obj 199 201 outlet;
#X floatatom 161 140 5 0 0 0 - - -;
#X obj 209 141 / 3.3;
#X connect 0 0 2 0;
#X connect 0 0 3 0;
#X connect 3 0 1 0;
#X restore 284 342 pd randomscale;
#N canvas 447 446 450 300 randomscale 0;
#X obj 207 99 inlet;
#X obj 209 211 outlet;
#X floatatom 171 150 5 0 0 0 - - -;
#X obj 219 151 / 3.3;
#X connect 0 0 2 0;
#X connect 0 0 3 0;
#X connect 3 0 1 0;
#X restore 405 344 pd randomscale;
#N canvas 562 448 450 300 randomscale 0;
#X obj 217 109 inlet;
#X obj 219 221 outlet;
#X floatatom 181 160 5 0 0 0 - - -;
#X obj 229 161 / 3.3;
#X connect 0 0 2 0;
#X connect 0 0 3 0;
#X connect 3 0 1 0;
#X restore 546 342 pd randomscale;
#N canvas 738 425 450 300 randomscale 0;
#X obj 227 119 inlet;
#X obj 229 231 outlet;
#X floatatom 191 170 5 0 0 0 - - -;
#X obj 239 171 / 3.3;
#X connect 0 0 2 0;
#X connect 0 0 3 0;
#X connect 3 0 1 0;
#X restore 660 342 pd randomscale;
#N canvas 51 180 450 300 injectrandom 0;
#X obj 234 177 sel 1;
#X obj 238 202 random 2;
#X obj 248 234 outlet;
#X floatatom 329 237 5 0 0 0 - - -;
#X floatatom 325 177 5 0 0 0 - - -;
#X obj 225 52 random 300;
#X obj 224 21 inlet;
#X floatatom 293 105 5 0 0 0 - - -;
#X obj 235 153 < 200;
#X connect 0 0 1 0;
#X connect 1 0 2 0;
#X connect 1 0 3 0;
#X connect 5 0 7 0;
#X connect 5 0 8 0;
#X connect 6 0 5 0;
#X connect 8 0 0 0;
#X restore 128 467 pd injectrandom;
#N canvas 323 328 450 300 combinevoltages 0;
#X obj 68 69 inlet;
#X obj 175 69 inlet;
#X obj 102 119 * 0.68;
#X obj 179 118 * 0.33;
#X obj 134 159 +;
#X obj 115 268 outlet;
#X obj 122 197 expr $f1;
#X obj 117 238 1;
#X connect 0 0 2 0;
#X connect 1 0 3 0;
#X connect 2 0 4 0;
#X connect 3 0 4 1;
#X connect 4 0 6 0;
#X connect 6 0 7 0;
#X connect 7 0 5 0;
#X restore 255 218 pd combinevoltages;
#N canvas 477 302 450 300 combinevoltages 0;
#X obj 91 51 inlet;
#X obj 198 51 inlet;
#X obj 125 101 * 0.68;
#X obj 202 100 * 0.33;
#X obj 157 141 +;
#X obj 138 250 outlet;
#X obj 145 179 expr $f1;
#X obj 140 220 1;
#X connect 0 0 2 0;
#X connect 1 0 3 0;
#X connect 2 0 4 0;
#X connect 3 0 4 1;
#X connect 4 0 6 0;
#X connect 6 0 7 0;
#X connect 7 0 5 0;
#X restore 402 219 pd combinevoltages;
#N canvas 727 167 450 300 combinevoltages 0;
#X obj 68 69 inlet;
#X obj 175 69 inlet;
#X obj 102 119 * 0.68;
#X obj 179 118 * 0.33;
#X obj 134 159 +;
#X obj 115 268 outlet;
#X obj 122 197 expr $f1;
#X obj 117 238 1;
#X connect 0 0 2 0;
#X connect 1 0 3 0;
#X connect 2 0 4 0;
#X connect 3 0 4 1;
#X connect 4 0 6 0;
#X connect 6 0 7 0;
#X connect 7 0 5 0;
#X restore 534 211 pd combinevoltages;
#N canvas 676 373 450 300 combinevoltages 0;
#X obj 78 79 inlet;
#X obj 185 79 inlet;
#X obj 112 129 * 0.68;
#X obj 189 128 * 0.33;
#X obj 144 169 +;
#X obj 125 278 outlet;
#X obj 132 207 expr $f1;
#X obj 127 248 1;
#X connect 0 0 2 0;
#X connect 1 0 3 0;
#X connect 2 0 4 0;
#X connect 3 0 4 1;
#X connect 4 0 6 0;
#X connect 6 0 7 0;
#X connect 7 0 5 0;
#X restore 661 212 pd combinevoltages;
#X text 20 49 Semi-random number generator based on the random voltages
section of the Buchla Model 208 Music Easel. On bang inlet \, each
outlet produces an uncorrelated random number. The voltages aren't
entirely random and are somewhat periodic \, thanks to the dual 4-bit
shift registers. Produces random values between 0 and 1;
#X text 728 526 Trevor Wilson;
#X text 730 543 wilsontr@gmail.com;
#X text 729 561 2014;
#X text 18 14 208random;
#X obj 138 414 r \$0-chance;
#X obj 119 372 r \$0-xor2;
#X obj 55 371 r \$0-xor1;
#X obj 520 63 s \$0-chance;
#X obj 309 120 r \$0-data1;
#X obj 279 165 s \$0-xor1;
#X obj 680 140 s \$0-xor2;
#X obj 61 541 s \$0-data1;
#X floatatom 97 518 5 0 0 0 - - -;
#X floatatom 96 443 5 0 0 0 - - -;
#X obj 556 105 4bitshift;
#X connect 2 0 16 0;
#X connect 2 0 25 0;
#X connect 3 0 21 0;
#X connect 3 0 47 0;
#X connect 6 0 17 0;
#X connect 6 0 26 0;
#X connect 7 0 18 0;
#X connect 7 0 27 0;
#X connect 8 0 15 0;
#X connect 8 0 24 0;
#X connect 9 0 30 0;
#X connect 9 0 43 0;
#X connect 9 1 29 0;
#X connect 9 2 29 1;
#X connect 9 3 30 1;
#X connect 9 3 48 0;
#X connect 10 0 19 0;
#X connect 10 0 41 0;
#X connect 15 0 2 1;
#X connect 16 0 6 1;
#X connect 17 0 7 1;
#X connect 18 0 8 1;
#X connect 19 0 9 1;
#X connect 19 0 48 1;
#X connect 20 0 19 0;
#X connect 21 0 45 0;
#X connect 21 0 46 0;
#X connect 24 0 0 0;
#X connect 24 0 11 0;
#X connect 25 0 1 0;
#X connect 25 0 12 0;
#X connect 26 0 4 0;
#X connect 26 0 13 0;
#X connect 27 0 14 0;
#X connect 27 0 5 0;
#X connect 28 0 21 1;
#X connect 29 0 8 0;
#X connect 30 0 2 0;
#X connect 31 0 6 0;
#X connect 32 0 7 0;
#X connect 38 0 28 0;
#X connect 39 0 3 1;
#X connect 40 0 3 0;
#X connect 42 0 9 0;
#X connect 48 0 31 0;
#X connect 48 1 32 0;
#X connect 48 2 32 1;
#X connect 48 2 44 0;
#X connect 48 3 31 1;
