#N canvas 6 113 1343 459 10;
#X obj 116 154 bpw2~ 150 100;
#X obj 55 25 inlet~;
#X obj 61 407 outlet~;
#X obj 84 246 *~;
#X obj 254 21 inlet~;
#X obj 330 20 inlet~;
#X obj 15 251 *~;
#X obj 174 245 *~;
#X obj 171 178 bpw2~ 350 100;
#X obj 400 22 inlet~;
#X obj 255 244 *~;
#X obj 272 178 bpw2~ 500 200;
#X obj 350 241 *~;
#X obj 367 175 bpw2~ 800 200;
#X obj 445 229 *~;
#X obj 457 174 bpw2~ 1000 200;
#X obj 539 226 *~;
#X obj 551 171 bpw2~ 1300 400;
#X obj 652 225 *~;
#X obj 651 168 bpw2~ 1600 400;
#X obj 743 221 *~;
#X obj 755 167 bpw2~ 2000 600;
#X obj 855 219 *~;
#X obj 867 165 bpw2~ 2600 600;
#X obj 954 219 *~;
#X obj 966 165 bpw2~ 3500 1800;
#X obj 1055 213 *~;
#X obj 1067 159 bpw2~ 5000 3000;
#X obj 1161 212 *~;
#X obj 1173 158 bpw2~ 8000 6000;
#X obj 260 407 outlet~;
#X obj 450 403 outlet~;
#X obj 143 21 +~ 0;
#X obj 140 -18 inlet~;
#X obj 464 21 inlet~;
#X obj 528 25 inlet~;
#X obj 593 27 inlet~;
#X obj 650 24 inlet~;
#X obj 723 25 inlet~;
#X obj 777 22 inlet~;
#X obj 856 23 inlet~;
#X obj 929 25 inlet~;
#X obj 1007 25 inlet~;
#X obj 1082 27 inlet~;
#X obj 1171 308 *~;
#X obj 1186 26 inlet~;
#X obj 1183 260 hip~ 14000;
#X obj 7 182 vcf~ 100 20;
#X text 262 425 odds;
#X text 451 423 evens;
#X obj 214 -11 sig~ 1;
#X connect 0 0 3 0;
#X connect 1 0 0 0;
#X connect 1 0 8 0;
#X connect 1 0 11 0;
#X connect 1 0 13 0;
#X connect 1 0 15 0;
#X connect 1 0 17 0;
#X connect 1 0 19 0;
#X connect 1 0 21 0;
#X connect 1 0 23 0;
#X connect 1 0 25 0;
#X connect 1 0 27 0;
#X connect 1 0 29 0;
#X connect 1 0 46 0;
#X connect 1 0 47 0;
#X connect 3 0 2 0;
#X connect 3 0 31 0;
#X connect 4 0 6 1;
#X connect 5 0 3 1;
#X connect 6 0 2 0;
#X connect 6 0 30 0;
#X connect 7 0 2 0;
#X connect 7 0 30 0;
#X connect 8 0 7 0;
#X connect 9 0 7 1;
#X connect 10 0 2 0;
#X connect 10 0 31 0;
#X connect 11 0 10 0;
#X connect 12 0 2 0;
#X connect 12 0 30 0;
#X connect 13 0 12 0;
#X connect 14 0 2 0;
#X connect 14 0 31 0;
#X connect 15 0 14 0;
#X connect 16 0 2 0;
#X connect 16 0 30 0;
#X connect 17 0 16 0;
#X connect 18 0 2 0;
#X connect 18 0 31 0;
#X connect 19 0 18 0;
#X connect 20 0 2 0;
#X connect 20 0 30 0;
#X connect 21 0 20 0;
#X connect 22 0 2 0;
#X connect 22 0 31 0;
#X connect 23 0 22 0;
#X connect 24 0 2 0;
#X connect 24 0 30 0;
#X connect 25 0 24 0;
#X connect 26 0 2 0;
#X connect 26 0 31 0;
#X connect 27 0 26 0;
#X connect 28 0 2 0;
#X connect 28 0 30 0;
#X connect 29 0 28 0;
#X connect 32 0 6 1;
#X connect 32 0 3 1;
#X connect 32 0 7 1;
#X connect 32 0 10 1;
#X connect 32 0 12 1;
#X connect 32 0 14 1;
#X connect 32 0 16 1;
#X connect 32 0 18 1;
#X connect 32 0 20 1;
#X connect 32 0 22 1;
#X connect 32 0 24 1;
#X connect 32 0 26 1;
#X connect 32 0 28 1;
#X connect 32 0 44 1;
#X connect 33 0 32 0;
#X connect 34 0 10 1;
#X connect 35 0 12 1;
#X connect 36 0 14 1;
#X connect 37 0 16 1;
#X connect 38 0 18 1;
#X connect 39 0 20 1;
#X connect 40 0 22 1;
#X connect 41 0 24 1;
#X connect 42 0 26 1;
#X connect 43 0 28 1;
#X connect 44 0 2 0;
#X connect 44 0 31 0;
#X connect 45 0 44 1;
#X connect 46 0 44 0;
#X connect 47 0 6 0;
#X connect 50 0 32 0;
