#N canvas 189 389 450 300 10;
#X floatatom 205 101 5 0 0 0 - - -;
#X floatatom 205 140 5 0 0 0 - - -;
#X floatatom 205 183 5 0 0 0 - - -;
#X floatatom 203 227 5 0 0 0 - - -;
#X obj 238 22 delay~ 150 4;
#X obj 245 52 delay~ 100 3;
#X obj 249 77 delay~ 50 2;
#X obj 331 113 metro 20;
#X obj 357 61 bng 15 250 50 0 empty empty empty 17 7 0 10 -262144 -1
-1;
#X obj 76 69 bitregister;
#X obj 79 112 bitregister;
#X obj 78 157 bitregister;
#X obj 79 201 bitregister;
#X obj 61 21 noise~;
#X obj 168 12 phasor~ 0.1;
#X connect 4 0 9 1;
#X connect 5 0 10 1;
#X connect 6 0 11 1;
#X connect 8 0 7 0;
#X connect 9 0 10 0;
#X connect 9 1 0 0;
#X connect 10 0 11 0;
#X connect 10 1 1 0;
#X connect 11 0 12 0;
#X connect 11 1 2 0;
#X connect 12 1 3 0;
#X connect 13 0 9 0;
#X connect 14 0 4 0;
#X connect 14 0 5 0;
#X connect 14 0 6 0;
#X connect 14 0 12 1;
