#N canvas 579 164 706 474 10;
#X obj 85 89 samphold~;
#X obj 85 136 samphold~;
#X obj 86 180 samphold~;
#X obj 87 225 samphold~;
#X obj 257 140 snapshot~;
#X obj 257 185 snapshot~;
#X obj 258 228 snapshot~;
#X obj 252 272 snapshot~;
#X floatatom 342 171 5 0 0 0 - - -;
#X obj 236 97 metro 20;
#X floatatom 337 209 5 0 0 0 - - -;
#X floatatom 345 263 5 0 0 0 - - -;
#X floatatom 338 313 5 0 0 0 - - -;
#X obj 331 88 delay~ 50 2;
#X obj 325 49 delay~ 100 3;
#X obj 324 7 delay~ 150 4;
#X obj 57 21 inlet~;
#X obj 169 8 inlet~;
#X obj 51 352 outlet~;
#X obj 121 351 outlet~;
#X obj 186 351 outlet~;
#X obj 253 349 outlet~;
#X connect 0 0 4 0;
#X connect 0 0 1 0;
#X connect 1 0 2 0;
#X connect 1 0 5 0;
#X connect 2 0 3 0;
#X connect 2 0 6 0;
#X connect 3 0 7 0;
#X connect 4 0 8 0;
#X connect 5 0 10 0;
#X connect 6 0 11 0;
#X connect 7 0 12 0;
#X connect 9 0 4 0;
#X connect 9 0 5 0;
#X connect 9 0 6 0;
#X connect 9 0 7 0;
#X connect 13 0 2 1;
#X connect 14 0 1 1;
#X connect 15 0 0 1;
#X connect 16 0 0 0;
#X connect 17 0 3 1;
#X connect 17 0 13 0;
#X connect 17 0 14 0;
#X connect 17 0 15 0;
