#N canvas 0 22 749 452 10;
#X obj 122 256 pack \$1 \$2 \$3 \$4;
#X obj 228 107 nbx 3 14 0 1e+37 0 1 empty empty empty 0 -8 0 10 -262144
-1 -1 7 256;
#X obj 186 107 nbx 3 14 0 1e+37 0 1 empty empty empty 0 -8 0 10 -262144
-1 -1 8 256;
#X obj 144 107 nbx 3 14 0 1e+37 0 1 empty empty empty 0 -8 0 10 -262144
-1 -1 6 256;
#X obj 103 107 nbx 3 14 0 1e+37 0 1 empty empty empty 0 -8 0 10 -262144
-1 -1 3 256;
#X obj 121 317 outlet;
#X obj 137 174 t b f;
#X obj 179 158 t b f;
#X obj 228 159 t b f;
#X obj 91 37 inlet;
#X connect 0 0 5 0;
#X connect 1 0 8 0;
#X connect 2 0 7 0;
#X connect 3 0 6 0;
#X connect 4 0 0 0;
#X connect 6 0 4 0;
#X connect 6 1 0 1;
#X connect 7 0 4 0;
#X connect 7 1 0 2;
#X connect 8 0 4 0;
#X connect 8 1 0 3;
#X connect 9 0 4 0;
#X coords 0 -1 1 1 170 30 2 100 100;
