#N canvas 0 22 450 300 10;
#X obj 124 34 inlet;
#X obj 114 206 outlet;
#X floatatom 153 75 5 0 0 0 - - -;
#X obj 111 106 expr pow(2 \, $f1 / 53);
#X floatatom 65 124 5 0 0 0 - - -;
#X obj 109 162 *;
#X floatatom 206 197 5 0 0 0 - - -;
#X obj 336 38 inlet;
#X obj 323 99 mtof;
#X connect 0 0 2 0;
#X connect 0 0 3 0;
#X connect 3 0 4 0;
#X connect 3 0 5 0;
#X connect 5 0 1 0;
#X connect 5 0 6 0;
#X connect 7 0 8 0;
#X connect 8 0 5 1;
