#N canvas 124 276 621 419 10;
#X msg 75 104 0 3 5 9 12 14 17 19 20 22 26 27 31 34 36 39 43 45 48
50 51 53;
#X obj 74 33 inlet;
#X obj 77 65 t b f;
#X obj 75 167 packel 1;
#X obj 182 41 inlet;
#X obj 78 229 +;
#X obj 75 259 outlet;
#X obj 77 195 * 0.226415;
#X obj 109 142 int;
#X connect 0 0 3 0;
#X connect 1 0 2 0;
#X connect 2 0 0 0;
#X connect 2 1 8 0;
#X connect 3 0 7 0;
#X connect 4 0 5 1;
#X connect 5 0 6 0;
#X connect 7 0 5 0;
#X connect 8 0 3 1;
