#N canvas 13 44 864 698 10;
#X obj 304 162 bitsample;
#X obj 305 206 bitsample;
#X obj 307 246 bitsample;
#X obj 307 285 bitsample;
#X obj 306 322 bitsample;
#X obj 307 358 bitsample;
#X obj 308 394 bitsample;
#X obj 309 433 bitsample;
#X obj 466 48 inlet;
#X obj 465 82 bang;
#X obj 529 52 bng 15 250 50 0 empty empty empty 17 7 0 10 -262144 -1
-1;
#X obj 564 321 delay 2;
#X obj 589 222 delay 5;
#X obj 596 192 delay 6;
#X obj 598 153 delay 7;
#X obj 554 353 delay 1;
#X floatatom 392 460 5 0 0 0 - - -;
#X floatatom 383 175 5 0 0 0 - - -;
#X floatatom 385 299 5 0 0 0 - - -;
#X floatatom 388 225 5 0 0 0 - - -;
#X floatatom 382 266 5 0 0 0 - - -;
#X floatatom 383 337 5 0 0 0 - - -;
#X floatatom 388 375 5 0 0 0 - - -;
#X floatatom 389 417 5 0 0 0 - - -;
#X obj 587 259 delay 4;
#X obj 588 289 delay 3;
#X obj 536 636 bytepack;
#X obj 724 52 inlet;
#X obj 538 663 outlet;
#X obj 304 48 loadbang;
#X obj 304 78 uzi 8;
#X obj 660 601 pack f f f f f f f f;
#X obj 659 658 outlet;
#X text 87 19 - 8-bit shift register;
#X text 17 55 Kind of like an 8-position queue. On bang input \, samples
the second inlet (for a binary value) and stores it in the first position
of the register. On each bang \, each value is shifted downward one
position. The last value is shifted off the end and sent to the second
output. The first output contains an integer representation of the
8-bit binary value represented in the register.;
#X text 16 624 Trevor Wilson;
#X text 16 640 wilsontr@gmail.com;
#X text 17 655 2014;
#X text 15 20 8bitshift;
#X connect 0 0 1 0;
#X connect 0 0 17 0;
#X connect 1 0 2 0;
#X connect 1 0 19 0;
#X connect 2 0 3 0;
#X connect 2 0 20 0;
#X connect 3 0 4 0;
#X connect 3 0 18 0;
#X connect 4 0 5 0;
#X connect 4 0 21 0;
#X connect 5 0 6 0;
#X connect 5 0 22 0;
#X connect 6 0 7 0;
#X connect 6 0 23 0;
#X connect 7 0 16 0;
#X connect 8 0 9 0;
#X connect 9 0 7 1;
#X connect 9 0 15 0;
#X connect 9 0 11 0;
#X connect 9 0 12 0;
#X connect 9 0 13 0;
#X connect 9 0 14 0;
#X connect 9 0 24 0;
#X connect 9 0 25 0;
#X connect 10 0 9 0;
#X connect 11 0 5 1;
#X connect 12 0 2 1;
#X connect 13 0 1 1;
#X connect 14 0 0 1;
#X connect 15 0 6 1;
#X connect 16 0 31 7;
#X connect 16 0 32 0;
#X connect 17 0 31 0;
#X connect 18 0 31 3;
#X connect 19 0 31 1;
#X connect 20 0 31 2;
#X connect 21 0 31 4;
#X connect 22 0 31 5;
#X connect 23 0 31 6;
#X connect 24 0 3 1;
#X connect 25 0 4 1;
#X connect 26 0 28 0;
#X connect 27 0 0 0;
#X connect 29 0 30 0;
#X connect 30 0 9 0;
#X connect 31 0 26 0;
