#N canvas 120 87 474 577 10;
#X obj 149 151 delay \$1;
#X obj 75 41 inlet;
#X obj 99 448 outlet~;
#X obj 154 192 pack 0 \$2;
#X obj 135 43 inlet;
#X obj 215 48 inlet;
#X obj 93 116 t l b;
#X obj 158 229 unpack;
#X obj 155 259 sqrt;
#X obj 154 296 sqrt;
#X obj 157 360 *~;
#X obj 158 388 *~;
#X obj 194 426 edge~;
#X obj 228 460 outlet;
#X obj 166 460 outlet;
#X text 174 491 eor;
#X text 238 488 eoc;
#X obj 155 330 vline~;
#X floatatom 91 341 5 0 0 0 - - -;
#X floatatom 215 276 5 0 0 0 - - -;
#X obj 81 85 pack 1 \$1;
#X connect 0 0 3 0;
#X connect 0 0 14 0;
#X connect 1 0 20 0;
#X connect 3 0 7 0;
#X connect 4 0 0 1;
#X connect 4 0 20 1;
#X connect 5 0 3 1;
#X connect 6 0 7 0;
#X connect 6 1 0 0;
#X connect 7 0 8 0;
#X connect 7 1 17 1;
#X connect 7 1 19 0;
#X connect 8 0 9 0;
#X connect 9 0 17 0;
#X connect 9 0 18 0;
#X connect 10 0 11 0;
#X connect 10 0 11 1;
#X connect 11 0 2 0;
#X connect 12 1 13 0;
#X connect 17 0 10 0;
#X connect 17 0 10 1;
#X connect 17 0 12 0;
#X connect 20 0 6 0;
