#N canvas 120 87 474 577 10;
#X obj 149 151 delay \$1;
#X obj 75 41 inlet;
#X obj 99 448 outlet~;
#X obj 154 192 pack 0 \$2;
#X obj 135 43 inlet;
#X obj 213 40 inlet;
#X obj 93 134 t l b;
#X obj 158 229 unpack;
#X obj 155 259 sqrt;
#X obj 154 296 sqrt;
#X obj 155 330 line~;
#X obj 157 360 *~;
#X obj 158 388 *~;
#X obj 82 78 pack 1 f;
#X connect 0 0 3 0;
#X connect 1 0 13 0;
#X connect 3 0 7 0;
#X connect 4 0 0 1;
#X connect 4 0 13 1;
#X connect 5 0 3 1;
#X connect 6 0 7 0;
#X connect 6 1 0 0;
#X connect 7 0 8 0;
#X connect 7 1 10 1;
#X connect 8 0 9 0;
#X connect 9 0 10 0;
#X connect 10 0 11 0;
#X connect 10 0 11 1;
#X connect 11 0 12 0;
#X connect 11 0 12 1;
#X connect 12 0 2 0;
#X connect 13 0 6 0;
