#N canvas 528 202 450 300 10;
#X obj 92 113 t a b;
#X obj 147 135 delay \$1;
#X obj 75 41 inlet;
#X obj 82 78 pack 1 \$1;
#X obj 154 176 pack 0 \$2;
#X obj 143 211 line;
#X obj 149 254 outlet;
#X connect 0 0 5 0;
#X connect 0 1 1 0;
#X connect 1 0 4 0;
#X connect 2 0 3 0;
#X connect 3 0 0 0;
#X connect 4 0 5 0;
#X connect 5 0 6 0;
