#N canvas 0 22 508 469 10;
#X obj 155 285 outlet;
#X floatatom 101 272 5 0 0 0 - - -;
#X obj 147 27 inlet;
#X obj 210 23 inlet;
#X obj 275 22 inlet;
#X obj 156 179 line 0;
#X obj 191 221 line 1;
#X msg 180 89 0 \$1;
#X connect 2 0 5 0;
#X connect 3 0 7 0;
#X connect 4 0 6 0;
#X connect 5 0 1 0;
#X connect 5 0 0 0;
#X connect 5 0 6 0;
#X connect 6 0 0 0;
#X connect 7 0 5 0;
