#N canvas 0 22 493 358 10;
#X obj 161 151 list-find;
#X obj 144 210 > 0;
#X obj 135 241 sel 1;
#X floatatom 94 137 5 0 0 0 - - -;
#X floatatom 193 205 5 0 0 0 - - -;
#X floatatom 235 168 5 0 0 0 - - -;
#X obj 118 33 inlet;
#X obj 137 295 outlet;
#X obj 269 35 inlet;
#X obj 126 98 counter 0 1 \$1;
#X obj 204 37 inlet;
#X obj 327 42 inlet;
#X connect 0 0 4 0;
#X connect 0 1 5 0;
#X connect 0 1 1 0;
#X connect 1 0 2 0;
#X connect 2 0 7 0;
#X connect 6 0 9 0;
#X connect 8 0 0 1;
#X connect 9 0 0 0;
#X connect 9 0 3 0;
#X connect 10 0 9 4;
#X connect 11 0 9 2;
