#N canvas 0 22 850 690 10;
#X obj 451 363 *~ 0;
#X obj 543 214 vsl 15 128 0.01 1 1 0 empty empty empty 0 -9 0 10 -262144
-1 -1 0 1;
#X obj 385 220 line~;
#X floatatom 524 448 5 0 0 0 - - -;
#X obj 135 47 inlet~;
#X obj 252 758 outlet~;
#X obj 387 158 nbx 5 14 -1e+37 1e+37 0 0 empty empty empty 0 -8 0 10
-262144 -1 -1 0 256;
#X floatatom 480 441 5 0 0 0 - - -;
#X obj 441 554 s~ \$0-fdbk;
#X obj 196 74 r~ \$0-fdbk;
#X obj 506 367 expr (1 - $f1);
#X obj 386 46 inlet;
#X obj 143 104 delwrite~ \$0-b1 500;
#X obj 245 141 vd~ \$0-b1;
#X obj 147 173 delwrite~ \$0-b2 500;
#X obj 247 199 vd~ \$0-b2;
#X obj 250 722 vd~ \$0-b10;
#X obj 151 684 delwrite~ \$0-b10 500;
#X obj 147 231 delwrite~ \$0-b3 500;
#X obj 248 262 vd~ \$0-b3;
#X obj 148 294 delwrite~ \$0-b4 500;
#X obj 252 324 vd~ \$0-b4;
#X obj 152 357 delwrite~ \$0-b5 500;
#X obj 251 395 vd~ \$0-b5;
#X obj 142 431 delwrite~ \$0-b6 500;
#X obj 244 468 vd~ \$0-b6;
#X obj 146 500 delwrite~ \$0-b7 500;
#X obj 246 526 vd~ \$0-b7;
#X obj 146 558 delwrite~ \$0-b8 500;
#X obj 247 589 vd~ \$0-b8;
#X obj 147 621 delwrite~ \$0-b9 500;
#X obj 251 651 vd~ \$0-b9;
#X obj 528 42 inlet;
#X obj 528 79 * 20000;
#X obj 611 66 inlet;
#X text 611 26 feedback;
#X text 526 25 decay;
#X text 136 29 input;
#X text 385 27 freq;
#X floatatom 633 110 5 0 0 0 - - -;
#X obj 443 487 lop~;
#X obj 385 191 pack 0 100;
#X connect 0 0 40 0;
#X connect 1 0 7 0;
#X connect 1 0 10 0;
#X connect 2 0 13 0;
#X connect 2 0 15 0;
#X connect 2 0 16 0;
#X connect 2 0 19 0;
#X connect 2 0 21 0;
#X connect 2 0 23 0;
#X connect 2 0 25 0;
#X connect 2 0 27 0;
#X connect 2 0 29 0;
#X connect 2 0 31 0;
#X connect 3 0 40 1;
#X connect 4 0 12 0;
#X connect 6 0 41 0;
#X connect 9 0 12 0;
#X connect 10 0 0 1;
#X connect 11 0 6 0;
#X connect 13 0 14 0;
#X connect 15 0 18 0;
#X connect 16 0 0 0;
#X connect 16 0 5 0;
#X connect 19 0 20 0;
#X connect 21 0 22 0;
#X connect 23 0 24 0;
#X connect 25 0 26 0;
#X connect 27 0 28 0;
#X connect 29 0 30 0;
#X connect 31 0 17 0;
#X connect 32 0 33 0;
#X connect 33 0 3 0;
#X connect 34 0 39 0;
#X connect 34 0 0 1;
#X connect 40 0 8 0;
#X connect 41 0 2 0;
