#N canvas 621 80 639 623 10;
#X obj 55 15 inlet;
#X obj 251 16 inlet;
#X obj 85 138 randsubstr;
#X obj 91 277 list-replace;
#X obj 116 499 outlet;
#X obj 161 136 zl len;
#X obj 66 101 t l l l;
#X obj 162 202 random;
#X obj 86 176 t l b;
#X obj 257 319 zl len;
#X obj 284 126 t l l;
#X obj 163 235 + 1;
#X msg 122 37 1 2 3 4 5 6 7;
#X obj 107 399 zl slice;
#X msg 314 50 list a b c d e f g;
#X connect 0 0 6 0;
#X connect 1 0 10 0;
#X connect 2 0 8 0;
#X connect 2 1 3 1;
#X connect 3 0 13 0;
#X connect 5 0 7 1;
#X connect 6 1 2 0;
#X connect 6 2 5 0;
#X connect 7 0 11 0;
#X connect 8 0 3 0;
#X connect 8 1 7 0;
#X connect 9 0 13 1;
#X connect 10 0 3 2;
#X connect 10 1 9 0;
#X connect 12 0 6 0;
#X connect 13 0 4 0;
#X connect 14 0 10 0;
