#N canvas 648 94 692 360 10;
#X obj 43 45 inlet;
#X obj 56 91 bng 15 250 50 0 empty empty empty 17 7 0 10 -262144 -1
-1;
#X obj 92 71 metro 500;
#X obj 101 40 bng 15 250 50 0 empty empty empty 17 7 0 10 -262144 -1
-1;
#X obj 61 251 bng 15 250 50 0 empty empty empty 17 7 0 10 -262144 -1
-1;
#X obj 29 280 outlet;
#X obj 263 252 bng 15 250 50 0 empty empty empty 17 7 0 10 -262144
-1 -1;
#X obj 236 284 outlet;
#X obj 340 253 bng 15 250 50 0 empty empty empty 17 7 0 10 -262144
-1 -1;
#X obj 322 286 outlet;
#X obj 318 70 bng 15 250 50 0 empty empty empty 17 7 0 10 -262144 -1
-1;
#X floatatom 24 209 5 0 0 0 - - -;
#X floatatom 219 200 5 0 0 0 - - -;
#X floatatom 306 209 5 0 0 0 - - -;
#X obj 23 169 counter 0 0 1;
#X obj 315 172 counter 0 0 7;
#X floatatom 416 203 5 0 0 0 - - -;
#X obj 455 259 bng 15 250 50 0 empty empty empty 17 7 0 10 -262144
-1 -1;
#X obj 460 286 outlet;
#X obj 162 235 bng 15 250 50 0 empty empty empty 17 7 0 10 -262144
-1 -1;
#X obj 127 281 outlet;
#X obj 432 172 counter 0 0 15;
#X obj 123 169 counter 0 0 2;
#X obj 39 228 sel 0;
#X obj 147 211 sel 0;
#X obj 203 35 inlet;
#X floatatom 127 191 5 0 0 0 - - -;
#X obj 236 222 sel 0;
#X obj 203 68 f;
#X obj 322 231 sel 0;
#X obj 424 228 sel 0;
#X obj 543 170 counter 0 0 32;
#X floatatom 531 204 5 0 0 0 - - -;
#X obj 524 234 sel 0;
#X obj 538 263 bng 15 250 50 0 empty empty empty 17 7 0 10 -262144
-1 -1;
#X obj 543 294 outlet;
#X obj 313 30 inlet;
#X text 44 25 clock;
#X text 313 9 reset;
#X obj 221 171 counter 0 0 3;
#X connect 0 0 1 0;
#X connect 1 0 14 0;
#X connect 1 0 15 0;
#X connect 1 0 21 0;
#X connect 1 0 22 0;
#X connect 1 0 31 0;
#X connect 1 0 39 0;
#X connect 2 0 1 0;
#X connect 3 0 2 0;
#X connect 4 0 5 0;
#X connect 6 0 7 0;
#X connect 8 0 9 0;
#X connect 10 0 14 2;
#X connect 10 0 15 2;
#X connect 10 0 21 2;
#X connect 10 0 22 2;
#X connect 10 0 31 2;
#X connect 10 0 39 2;
#X connect 11 0 23 0;
#X connect 12 0 27 0;
#X connect 13 0 29 0;
#X connect 14 0 11 0;
#X connect 15 0 13 0;
#X connect 16 0 30 0;
#X connect 17 0 18 0;
#X connect 19 0 20 0;
#X connect 21 0 16 0;
#X connect 22 0 26 0;
#X connect 23 0 4 0;
#X connect 24 0 19 0;
#X connect 25 0 28 0;
#X connect 26 0 24 0;
#X connect 27 0 6 0;
#X connect 28 0 23 1;
#X connect 28 0 24 1;
#X connect 28 0 27 1;
#X connect 28 0 29 1;
#X connect 28 0 30 1;
#X connect 28 0 33 1;
#X connect 29 0 8 0;
#X connect 30 0 17 0;
#X connect 31 0 32 0;
#X connect 32 0 33 0;
#X connect 33 0 34 0;
#X connect 34 0 35 0;
#X connect 36 0 10 0;
#X connect 39 0 12 0;
