#N canvas 415 142 883 567 10;
#X obj 108 157 hsl 128 15 0 1 0 0 empty empty index -2 -8 1 10 -262144
-1 -1 0 1;
#X text -207 4 freq;
#X text -91 2 index;
#X text -160 3 mod freq;
#X obj 108 195 hsl 128 15 1 10 0 0 empty empty mod_freq_ratio -2 -8
1 10 -262144 -1 -1 0 1;
#X obj 284 343 zl nth;
#X obj 285 294 t b f;
#X obj 251 372 *;
#X msg 285 318 0.25 0.5 1 2 3 4 5 6 7 8;
#X obj -153 456 outlet~;
#X obj 263 120 hsl 80 15 0 1 0 0 empty empty timbre -2 -8 1 10 -262144
-1 -1 0 1;
#N canvas 25 245 490 435 phasemod 0;
#X obj -52 121 phasor~;
#X obj -49 180 +~;
#X obj 27 156 *~;
#X obj 27 113 osc~ 0;
#X obj -54 43 inlet~;
#X obj 11 31 inlet~;
#X obj 117 42 inlet;
#X obj -40 374 outlet~;
#X obj 83 139 line~;
#X obj 85 111 pack 0 15;
#X obj -44 253 cos~;
#X obj -39 298 *~;
#X obj 44 372 outlet~;
#X connect 0 0 1 0;
#X connect 1 0 10 0;
#X connect 2 0 1 1;
#X connect 3 0 2 0;
#X connect 3 0 12 0;
#X connect 4 0 0 0;
#X connect 5 0 3 0;
#X connect 6 0 9 0;
#X connect 8 0 2 1;
#X connect 9 0 8 0;
#X connect 10 0 11 0;
#X connect 10 0 11 1;
#X connect 11 0 7 0;
#X restore -209 175 pd phasemod;
#N canvas 83 103 648 569 freqmod 0;
#X obj 85 32 inlet~;
#X obj 171 28 inlet~;
#X obj 267 28 inlet;
#X obj 159 458 outlet~;
#X obj 91 187 +~;
#X obj 171 113 osc~;
#X obj 163 163 *~;
#X floatatom 230 121 5 0 0 0 - - -;
#X obj 445 27 inlet;
#X obj 332 19 inlet;
#X floatatom 453 97 5 0 0 0 - - -;
#X floatatom 356 84 5 0 0 0 - - -;
#X obj 243 63 pack 0 25;
#X obj 239 87 line;
#X obj 269 449 outlet~;
#X obj 97 402 cos~;
#X obj 95 332 *~;
#X floatatom 107 145 5 0 0 0 - - -;
#X obj 99 269 osc~;
#X obj 193 416 crossfade~;
#X obj 216 214 lop~ 1;
#X obj 96 235 /~ 2;
#X obj 36 232 osc~;
#X floatatom 262 386 5 0 1 0 - - -;
#X obj 248 321 sqrt;
#X obj 248 352 sqrt;
#X obj 39 188 +~;
#X obj 96 374 +~;
#X obj 439 169 lop~ 1;
#X obj 219 154 * 1000;
#X obj 301 92 * 3;
#X connect 0 0 4 0;
#X connect 0 0 26 0;
#X connect 1 0 5 0;
#X connect 2 0 12 0;
#X connect 4 0 21 0;
#X connect 5 0 6 0;
#X connect 5 0 14 0;
#X connect 6 0 4 1;
#X connect 6 0 26 1;
#X connect 7 0 29 0;
#X connect 8 0 10 0;
#X connect 9 0 11 0;
#X connect 9 0 24 0;
#X connect 9 0 30 0;
#X connect 10 0 28 0;
#X connect 12 0 13 0;
#X connect 13 0 7 0;
#X connect 15 0 19 1;
#X connect 16 0 27 0;
#X connect 17 0 4 1;
#X connect 18 0 16 0;
#X connect 19 0 3 0;
#X connect 20 0 16 1;
#X connect 21 0 18 0;
#X connect 22 0 19 0;
#X connect 23 0 19 2;
#X connect 24 0 25 0;
#X connect 25 0 23 0;
#X connect 26 0 22 0;
#X connect 27 0 15 0;
#X connect 28 0 27 1;
#X connect 29 0 6 1;
#X connect 30 0 20 0;
#X restore -138 230 pd freqmod;
#X obj 72 74 t b;
#X obj 119 463 outlet~;
#X obj 184 140 tgl 15 1 empty empty lock 17 7 1 10 -262144 -1 -1 1
1;
#X obj 175 77 line;
#X obj 281 444 expr ($f2 != 0);
#X obj 284 473 sel 1;
#X obj 361 495 f;
#X obj 262 195 hsl 80 15 0 1 0 1 empty empty offset -2 -8 1 10 -262144
-1 -1 0 1;
#X obj -200 60 s \$0-freq;
#X obj 174 56 pack 0 5;
#X obj 409 468 ftom;
#X obj 409 495 +;
#X obj 411 524 mtof;
#X obj -210 25 inlet;
#X obj -151 23 inlet;
#X obj -89 22 inlet;
#X obj -33 20 inlet;
#X text -37 1 timbre;
#X obj 198 317 t b f;
#X obj 178 177 nbx 5 14 0 10 0 0 empty empty empty 0 -8 1 10 -262144
-1 -1 0 256;
#X obj 295 177 nbx 5 14 0 1 0 0 empty empty empty 0 -8 1 10 -262144
-1 -1 0 256;
#X obj 263 157 hsl 80 15 0 0.25 0 0 empty empty symmetry -2 -8 1 10
-262144 -1 -1 0 1;
#X obj 139 140 nbx 4 14 0 1 0 0 empty empty empty 0 -8 1 10 -262144
-1 -1 0 256;
#X obj 105 119 nbx 5 14 0 20000 0 0 empty empty freq 0 -8 1 10 -262144
-1 -1 0 256;
#X obj 162 119 nbx 5 14 0 20000 0 0 empty empty mod_freq 0 -8 1 10
-262144 -1 -1 0 256;
#X obj 33 20 inlet;
#X text 27 2 symmetry;
#X obj 73 42 * 0.25;
#X connect 0 0 12 2;
#X connect 0 0 35 0;
#X connect 4 0 6 0;
#X connect 5 0 7 0;
#X connect 5 0 32 0;
#X connect 6 0 8 0;
#X connect 6 1 5 1;
#X connect 7 0 19 1;
#X connect 7 0 17 0;
#X connect 8 0 5 0;
#X connect 10 0 12 3;
#X connect 12 0 9 0;
#X connect 12 1 14 0;
#X connect 13 0 4 0;
#X connect 15 0 17 1;
#X connect 16 0 37 0;
#X connect 17 0 18 0;
#X connect 18 0 19 0;
#X connect 19 0 23 0;
#X connect 20 0 24 1;
#X connect 20 0 33 0;
#X connect 22 0 16 0;
#X connect 23 0 24 0;
#X connect 24 0 25 0;
#X connect 25 0 22 0;
#X connect 26 0 13 0;
#X connect 26 0 21 0;
#X connect 26 0 36 0;
#X connect 27 0 37 0;
#X connect 28 0 0 0;
#X connect 29 0 10 0;
#X connect 31 0 7 0;
#X connect 31 1 7 1;
#X connect 34 0 12 4;
#X connect 36 0 12 0;
#X connect 36 0 31 0;
#X connect 36 0 7 1;
#X connect 37 0 12 1;
#X connect 38 0 40 0;
#X connect 40 0 34 0;
#X coords 0 -1 1 1 250 130 2 100 100;
