#N canvas 139 251 567 436 10;
#X obj 115 62 inlet;
#X text 115 32 clock;
#X obj 271 54 inlet;
#X text 229 27 beats in measure to count;
#X obj 91 182 bng 15 250 50 0 empty empty empty 17 7 0 10 -262144 -1
-1;
#X obj 137 333 outlet;
#X text 136 357 bang;
#X msg 291 110 4;
#X obj 142 297 bng 15 250 50 0 empty empty empty 17 7 0 10 -262144
-1 -1;
#X floatatom 95 276 5 0 0 0 - - -;
#X obj 130 244 counter 1 1;
#X floatatom 262 87 5 0 0 0 - - -;
#X text 162 38 measures;
#X obj 173 61 inlet;
#X obj 135 85 t b b;
#X floatatom 189 206 5 0 0 0 - - -;
#X floatatom 146 146 5 0 0 0 - - -;
#X obj 85 84 bng 15 250 50 0 empty empty empty 17 7 0 10 -262144 -1
-1;
#X obj 188 122 f \$1;
#X obj 188 173 * \$2;
#X connect 0 0 10 0;
#X connect 0 0 14 0;
#X connect 0 0 17 0;
#X connect 2 0 11 0;
#X connect 4 0 10 0;
#X connect 7 0 15 0;
#X connect 8 0 5 0;
#X connect 10 0 9 0;
#X connect 10 3 8 0;
#X connect 11 0 19 1;
#X connect 13 0 18 1;
#X connect 14 0 18 0;
#X connect 15 0 10 4;
#X connect 18 0 16 0;
#X connect 18 0 19 0;
#X connect 19 0 15 0;
