#N canvas 288 54 480 613 10;
#X obj 170 243 delay \$1;
#X obj 75 16 inlet;
#X obj 120 540 outlet~;
#X obj 175 284 pack 0 \$2;
#X obj 114 208 t l b;
#X obj 179 321 unpack;
#X obj 176 351 sqrt;
#X obj 175 388 sqrt;
#X obj 178 452 *~;
#X obj 179 480 *~;
#X obj 215 518 edge~;
#X obj 249 552 outlet;
#X obj 187 552 outlet;
#X text 195 583 eor;
#X text 259 580 eoc;
#X obj 176 422 vline~;
#X floatatom 236 368 5 0 0 0 - - -;
#X obj 334 77 sigtof~;
#X obj 337 20 inlet~;
#X obj 248 14 inlet~;
#X obj 250 101 * 10000;
#X obj 334 109 * 10000;
#X obj 102 181 pack 1 f;
#X obj 248 68 sigtof~;
#X obj 170 14 inlet;
#X obj 123 14 inlet;
#X obj 336 49 expr~ pow($v1 \, 2);
#X obj 226 43 expr~ pow($v1 \, 2);
#X connect 0 0 3 0;
#X connect 0 0 12 0;
#X connect 1 0 22 0;
#X connect 3 0 5 0;
#X connect 4 0 5 0;
#X connect 4 1 0 0;
#X connect 5 0 6 0;
#X connect 5 1 15 1;
#X connect 5 1 16 0;
#X connect 6 0 7 0;
#X connect 7 0 15 0;
#X connect 8 0 9 0;
#X connect 8 0 9 1;
#X connect 9 0 2 0;
#X connect 10 1 11 0;
#X connect 15 0 8 0;
#X connect 15 0 8 1;
#X connect 15 0 10 0;
#X connect 17 0 21 0;
#X connect 18 0 26 0;
#X connect 19 0 27 0;
#X connect 20 0 0 1;
#X connect 20 0 22 1;
#X connect 21 0 3 1;
#X connect 22 0 4 0;
#X connect 23 0 20 0;
#X connect 24 0 3 1;
#X connect 25 0 22 1;
#X connect 25 0 0 1;
#X connect 26 0 17 0;
#X connect 27 0 23 0;
