#N canvas 537 196 545 427 10;
#X obj 118 68 inlet;
#X obj 203 67 inlet;
#X obj 117 107 sig~;
#X obj 202 109 sig~;
#X obj 135 192 crossfade~;
#X obj 270 73 inlet;
#X obj 138 243 sigtof~;
#X obj 135 326 outlet;
#X connect 0 0 2 0;
#X connect 1 0 3 0;
#X connect 2 0 4 1;
#X connect 3 0 4 0;
#X connect 4 0 6 0;
#X connect 5 0 4 2;
#X connect 6 0 7 0;
