#N canvas 190 46 1103 694 10;
#X obj 138 -69 pulse;
#X obj 908 146 s \$0-tempo;
#X obj 164 4 hradio 15 1 0 16 empty empty empty 0 -8 0 10 -262144 -1
-1 6;
#X obj 147 -108 r \$0-tempo;
#X obj 863 341 tgl 30 0 empty empty start/stop -5 -8 1 10 -262144 -1
-4160 0 1;
#X obj 77 -128 r \$0-startstop;
#X obj 889 419 s \$0-startstop;
#X obj 834 79 int;
#X obj 225 444 t b f;
#X floatatom 259 489 5 0 0 0 - - -;
#X obj 191 488 bng 15 250 50 0 empty empty empty 17 7 0 10 -262144
-1 -1;
#X obj 909 202 s \$0-length;
#X obj 306 -38 r \$0-length;
#X obj 664 134 ii;
#X obj 696 69 ii;
#X obj 145 104 seqnote;
#X obj 821 341 tgl 30 0 empty empty reverse -2 -8 1 10 -262144 -1 -4160
0 1;
#X obj 807 420 s \$0-reverse;
#X obj 193 -76 r \$0-reverse;
#X obj 302 -71 bng 15 250 50 0 empty empty empty 17 7 0 10 -262144
-1 -1;
#X obj 324 14 bng 15 250 50 0 empty empty empty 17 7 0 10 -262144 -1
-1;
#X obj 415 -4 bng 15 250 50 0 empty empty empty 17 7 0 10 -262144 -1
-1;
#X obj 1061 102 quantize;
#X obj 314 462 s \$0-cvnote;
#X obj 1020 -78 r \$0-cvnote;
#X floatatom 1066 156 5 0 0 0 - - -;
#X floatatom 1066 -17 5 0 0 0 - - -;
#X obj 7 -67 inlet;
#X obj 425 -136 inlet;
#X obj 473 -139 inlet;
#X obj 512 -139 inlet;
#X obj 548 -139 inlet;
#X obj 586 -139 inlet;
#X obj 627 -139 inlet;
#X obj 663 -139 inlet;
#X obj 704 -139 inlet;
#X obj 1145 128 print scale;
#X obj 1105 58 r \$0-scaleselect;
#X obj 663 172 ii;
#X obj 762 193 scaleselect;
#X obj 898 233 s \$0-scaleselect;
#X obj 181 -140 inlet;
#X obj 232 -139 inlet;
#X obj 282 -143 inlet;
#X obj 190 512 outlet;
#X obj 1026 494 outlet;
#X obj 120 -149 inlet;
#X obj 913 275 s \$0-rootnote;
#X obj 1064 -50 r \$0-rootnote;
#X obj 164 -27 counter 0 0 15;
#X obj 843 121 nbx 5 14 -1e+37 1e+37 0 0 empty empty empty 0 -8 0 10
-262144 -1 -1 0 256;
#X obj 844 159 nbx 5 16 1 16 0 1 empty empty length 0 -8 1 10 -262144
-1 -4160 8 256;
#X obj 840 255 nbx 5 16 -127 127 0 0 empty empty root_note 0 -8 1 10
-262144 -1 -4160 22 256;
#X obj 766 250 ii;
#X obj 841 297 nbx 5 16 1 32 0 0 empty empty note_to_count 0 -8 1 10
-262144 -1 -4160 1 256;
#X obj 913 321 s \$0-notecount;
#X obj 764 279 ii;
#X obj 243 -103 r \$0-notecount;
#X obj 700 121 hsl 128 15 0 300 0 0 empty empty tempo -2 -8 1 10 -262144
-1 -4160 0 1;
#X obj 165 32 route 0 1 2 3 4 5 6 7 8 9 10 11 12 13 14 15;
#X obj 29 19 s \$0-clockout;
#X obj 1100 443 r \$0-clockout;
#X obj 1096 493 outlet;
#X obj 117 -20 bng 15 250 50 0 empty empty empty 17 7 0 10 -262144
-1 -1;
#X obj 56 -21 t b;
#X obj 779 341 tgl 30 0 empty empty quantize -2 -8 1 10 -262144 -1
-4160 0 1;
#X obj 754 443 s \$0-quantize;
#X obj 907 -84 r \$0-quantize;
#X obj 968 -7 sel 0 1;
#X obj 1039 50 f;
#X obj 968 55 f;
#X obj 986 104 +;
#X obj 287 104 seqnote;
#X obj 181 104 seqnote;
#X obj 108 104 seqnote;
#X obj 215 104 seqnote;
#X obj 253 104 seqnote;
#X obj 321 104 seqnote;
#X obj 355 104 seqnote;
#X obj 394 104 seqnote;
#X obj 429 104 seqnote;
#X obj 462 104 seqnote;
#X obj 495 104 seqnote;
#X obj 534 104 seqnote;
#X obj 569 104 seqnote;
#X obj 602 104 seqnote;
#X obj 636 104 seqnote;
#X floatatom 1010 140 5 0 0 0 - - -;
#X floatatom 892 14 5 0 0 0 - - -;
#X obj 959 80 * 12;
#X obj 952 -47 == 1;
#X connect 0 0 49 0;
#X connect 0 0 63 0;
#X connect 0 0 64 0;
#X connect 2 0 59 0;
#X connect 3 0 0 1;
#X connect 4 0 6 0;
#X connect 5 0 0 0;
#X connect 7 0 50 0;
#X connect 8 0 10 0;
#X connect 8 1 9 0;
#X connect 8 1 23 0;
#X connect 10 0 44 0;
#X connect 12 0 49 4;
#X connect 13 0 51 0;
#X connect 14 0 50 0;
#X connect 15 0 8 0;
#X connect 16 0 17 0;
#X connect 18 0 49 1;
#X connect 21 0 49 3;
#X connect 22 0 25 0;
#X connect 24 0 69 1;
#X connect 24 0 70 0;
#X connect 26 0 22 1;
#X connect 26 0 71 1;
#X connect 27 0 49 0;
#X connect 28 0 74 1;
#X connect 29 0 15 1;
#X connect 30 0 73 1;
#X connect 31 0 75 1;
#X connect 32 0 76 1;
#X connect 33 0 72 1;
#X connect 34 0 77 1;
#X connect 35 0 78 1;
#X connect 37 0 22 2;
#X connect 37 0 36 0;
#X connect 38 0 39 0;
#X connect 39 0 40 0;
#X connect 41 0 0 1;
#X connect 42 0 49 0;
#X connect 43 0 49 1;
#X connect 46 0 0 0;
#X connect 48 0 26 0;
#X connect 49 0 2 0;
#X connect 49 1 20 0;
#X connect 49 2 19 0;
#X connect 49 3 21 0;
#X connect 50 0 58 0;
#X connect 51 0 11 0;
#X connect 52 0 47 0;
#X connect 53 0 52 0;
#X connect 54 0 55 0;
#X connect 56 0 54 0;
#X connect 57 0 0 3;
#X connect 58 0 1 0;
#X connect 58 0 7 0;
#X connect 59 0 74 0;
#X connect 59 1 15 0;
#X connect 59 2 73 0;
#X connect 59 3 75 0;
#X connect 59 4 76 0;
#X connect 59 5 72 0;
#X connect 59 6 77 0;
#X connect 59 7 78 0;
#X connect 59 8 79 0;
#X connect 59 9 80 0;
#X connect 59 10 81 0;
#X connect 59 11 82 0;
#X connect 59 12 83 0;
#X connect 59 13 84 0;
#X connect 59 14 85 0;
#X connect 59 15 86 0;
#X connect 61 0 62 0;
#X connect 64 0 60 0;
#X connect 65 0 66 0;
#X connect 67 0 88 0;
#X connect 67 0 90 0;
#X connect 68 1 69 0;
#X connect 69 0 22 0;
#X connect 70 0 89 0;
#X connect 71 0 45 0;
#X connect 71 0 87 0;
#X connect 72 0 8 0;
#X connect 73 0 8 0;
#X connect 74 0 8 0;
#X connect 75 0 8 0;
#X connect 76 0 8 0;
#X connect 77 0 8 0;
#X connect 78 0 8 0;
#X connect 79 0 8 0;
#X connect 80 0 8 0;
#X connect 81 0 8 0;
#X connect 82 0 8 0;
#X connect 83 0 8 0;
#X connect 84 0 8 0;
#X connect 85 0 8 0;
#X connect 86 0 8 0;
#X connect 89 0 71 0;
#X coords 0 -1 1 1 800 275 2 100 100;
