#N canvas 40 147 457 404 10;
#X obj 103 115 nbx 4 14 -1 1 0 1 empty empty scale 0 -8 1 10 -262144
-1 -1 1 256;
#X obj 103 144 nbx 4 14 -0 1 0 1 empty empty offset 0 -8 1 10 -262144
-1 -1 0 256;
#X obj 100 16 inlet~;
#X obj 324 79 *~;
#X obj 242 347 +~;
#X obj 245 374 outlet~;
#X connect 0 0 3 1;
#X connect 1 0 4 1;
#X connect 2 0 3 0;
#X connect 3 0 4 0;
#X connect 4 0 5 0;
#X coords 0 -1 1 1 50 60 2 100 100;
