#N canvas 497 56 472 602 10;
#X obj 85 51 inlet;
#X obj 109 458 outlet~;
#X obj 223 50 inlet;
#X obj 164 305 line~;
#X obj 166 335 *~;
#X obj 167 363 *~;
#X obj 252 380 sigtof~;
#X floatatom 278 431 5 0 0 0 - - -;
#X obj 158 216 pack 0 1000;
#X msg 92 236 0 5000;
#X connect 0 0 9 0;
#X connect 3 0 4 0;
#X connect 3 0 4 1;
#X connect 3 0 6 0;
#X connect 4 0 5 0;
#X connect 4 0 5 1;
#X connect 5 0 1 0;
#X connect 6 0 7 0;
#X connect 8 0 3 0;
#X connect 9 0 3 0;
