#N canvas 0 22 907 462 10;
#X obj 530 44 inlet~;
#X obj 541 428 outlet~;
#X obj 280 243 allpass~ 50 3 0.4 0.8;
#X obj 271 343 allpass~ 50 5 0.1 0.9;
#X obj 103 191 allpass~ 100 123 0.5 0.1;
#X floatatom 678 46 5 0 0 0 - - -;
#X obj 676 84 / 100;
#X obj 267 174 allpass~ 50 1 0.2 0.3;
#X obj 277 209 allpass~ 50 5 0.3 0.6;
#X obj 278 275 allpass~ 50 4 0.8 0.4;
#X obj 274 313 allpass~ 50 6 0.4 1;
#X obj 268 376 allpass~ 50 8 0.9 0.1;
#X obj 268 403 allpass~ 50 10 0.3 0.9;
#X obj 635 160 allpass~ 50 5 0.9 0.4 0.2;
#X obj 631 186 allpass~ 50 10 1 1;
#X obj 635 220 allpass~ 50 3 1 0.8;
#X obj 632 252 allpass~ 50 1 0.8 1;
#X obj 628 287 allpass~ 50 0.3 0.4 2;
#X obj 626 320 allpass~ 50 0.5 0.4 9;
#X obj 622 354 allpass~ 50 0.9 1 4;
#X obj 534 116 allpass~ 50 100 1 0.5;
#X connect 0 0 20 0;
#X connect 2 0 9 0;
#X connect 3 0 11 0;
#X connect 5 0 6 0;
#X connect 6 0 20 2;
#X connect 7 0 8 0;
#X connect 8 0 2 0;
#X connect 9 0 10 0;
#X connect 10 0 3 0;
#X connect 11 0 12 0;
#X connect 12 0 13 0;
#X connect 13 0 14 0;
#X connect 14 0 15 0;
#X connect 15 0 16 0;
#X connect 16 0 17 0;
#X connect 17 0 18 0;
#X connect 18 0 19 0;
#X connect 19 0 1 0;
#X connect 20 0 1 0;
#X connect 20 0 4 0;
#X connect 20 0 7 0;
