#N canvas 0 22 997 504 10;
#X obj 576 24 inlet~;
#X obj 521 408 outlet~;
#X obj 247 156 allpass~ 50 5 0.2 0.3;
#X obj 257 189 allpass~ 50 10 0.3 0.6;
#X obj 260 223 allpass~ 50 3 0.4 0.8;
#X obj 258 255 allpass~ 50 20 0.8 0.4;
#X obj 254 293 allpass~ 50 35 0.4 1;
#X obj 248 356 allpass~ 50 45 0.9 0.1;
#X obj 251 323 allpass~ 50 5 0.1 0.9;
#X obj 83 171 allpass~ 100 123 0.5 0.1;
#X floatatom 590 58 5 0 0 0 - - -;
#X floatatom 658 26 5 0 0 0 - - -;
#X obj 656 64 / 100;
#X obj 601 132 allpass~ 50 5 0.9 -0.3 -0.5;
#X obj 611 166 allpass~ 50 10 -0.8 -0.3;
#X obj 615 200 allpass~ 50 15 -0.7 -0.1;
#X obj 612 232 allpass~ 50 20 -0.6 -0.6;
#X obj 608 267 allpass~ 50 25 -0.5 -0.8;
#X obj 606 300 allpass~ 50 30 -0.4 -0.2;
#X obj 603 333 allpass~ 50 35 -0.3 -0.8;
#X obj 248 383 allpass~ 50 20 0.3 0.9;
#X obj 514 96 allpass~ 50 50 0.1 0.1;
#X connect 0 0 21 0;
#X connect 2 0 3 0;
#X connect 3 0 4 0;
#X connect 4 0 5 0;
#X connect 5 0 6 0;
#X connect 6 0 8 0;
#X connect 7 0 20 0;
#X connect 8 0 7 0;
#X connect 10 0 21 1;
#X connect 11 0 12 0;
#X connect 12 0 21 2;
#X connect 13 0 14 0;
#X connect 14 0 15 0;
#X connect 15 0 16 0;
#X connect 16 0 17 0;
#X connect 17 0 18 0;
#X connect 18 0 19 0;
#X connect 19 0 1 0;
#X connect 20 0 13 0;
#X connect 21 0 1 0;
#X connect 21 0 9 0;
#X connect 21 0 2 0;
