#N canvas 650 131 620 537 10;
#X obj 51 21 inlet~;
#X obj 204 505 outlet~;
#X obj 171 59 nbx 5 14 -1 1 0 1 empty empty empty 0 -8 0 10 -262144
-1 -1 0.3 256;
#X obj 105 53 nbx 5 14 0 100 0 1 empty empty empty 0 -8 0 10 -262144
-1 -1 0.2 256;
#X obj 54 82 allpass~ 100 1.3 0.5;
#X obj 173 112 nbx 5 14 -1 1 0 1 empty empty empty 0 -8 0 10 -262144
-1 -1 0.2 256;
#X obj 107 106 nbx 5 14 0 100 0 1 empty empty empty 0 -8 0 10 -262144
-1 -1 0.9 256;
#X obj 57 136 allpass~ 100 1.3 0.5;
#X obj 172 172 nbx 5 14 -1 1 0 1 empty empty empty 0 -8 0 10 -262144
-1 -1 0.3 256;
#X obj 106 166 nbx 5 14 0 100 0 1 empty empty empty 0 -8 0 10 -262144
-1 -1 0.5 256;
#X obj 55 189 allpass~ 100 1.3 0.5;
#X obj 177 220 nbx 5 14 -1 1 0 1 empty empty empty 0 -8 0 10 -262144
-1 -1 0.1 256;
#X obj 111 214 nbx 5 14 0 100 0 1 empty empty empty 0 -8 0 10 -262144
-1 -1 0.3 256;
#X obj 60 243 allpass~ 100 1.3 0.5;
#X obj 179 276 nbx 5 14 -1 1 0 1 empty empty empty 0 -8 0 10 -262144
-1 -1 0.2 256;
#X obj 113 270 nbx 5 14 0 100 0 1 empty empty empty 0 -8 0 10 -262144
-1 -1 0.6 256;
#X obj 62 299 allpass~ 100 1.3 0.5;
#X obj 178 330 nbx 5 14 -1 1 0 1 empty empty empty 0 -8 0 10 -262144
-1 -1 0.3 256;
#X obj 112 324 nbx 5 14 0 100 0 1 empty empty empty 0 -8 0 10 -262144
-1 -1 0.7 256;
#X obj 61 353 allpass~ 100 1.3 0.5;
#X obj 182 383 nbx 5 14 -1 1 0 1 empty empty empty 0 -8 0 10 -262144
-1 -1 0.3 256;
#X obj 116 377 nbx 5 14 0 100 0 1 empty empty empty 0 -8 0 10 -262144
-1 -1 1.1 256;
#X obj 65 406 allpass~ 100 1.3 0.5;
#X obj 171 433 nbx 5 14 -1 1 0 1 empty empty empty 0 -8 0 10 -262144
-1 -1 0.2 256;
#X obj 105 427 nbx 5 14 0 100 0 1 empty empty empty 0 -8 0 10 -262144
-1 -1 5 256;
#X obj 54 456 allpass~ 100 1.3 0.5;
#X obj 380 33 nbx 5 14 -1 1 0 1 empty empty empty 0 -8 0 10 -262144
-1 -1 0.2 256;
#X obj 314 27 nbx 5 14 0 100 0 1 empty empty empty 0 -8 0 10 -262144
-1 -1 3 256;
#X obj 263 56 allpass~ 100 1.3 0.5;
#X obj 382 86 nbx 5 14 -1 1 0 1 empty empty empty 0 -8 0 10 -262144
-1 -1 0.2 256;
#X obj 316 80 nbx 5 14 0 100 0 1 empty empty empty 0 -8 0 10 -262144
-1 -1 6 256;
#X obj 266 110 allpass~ 100 1.3 0.5;
#X obj 380 141 nbx 5 14 -1 1 0 1 empty empty empty 0 -8 0 10 -262144
-1 -1 0.8 256;
#X obj 314 135 nbx 5 14 0 100 0 1 empty empty empty 0 -8 0 10 -262144
-1 -1 15 256;
#X obj 263 165 allpass~ 100 1.3 0.5;
#X obj 382 195 nbx 5 14 -1 1 0 1 empty empty empty 0 -8 0 10 -262144
-1 -1 0.7 256;
#X obj 316 189 nbx 5 14 0 100 0 1 empty empty empty 0 -8 0 10 -262144
-1 -1 10 256;
#X obj 265 221 allpass~ 100 1.3 0.5;
#X obj 380 251 nbx 5 14 -1 1 0 1 empty empty empty 0 -8 0 10 -262144
-1 -1 0.9 256;
#X obj 314 245 nbx 5 14 0 100 0 1 empty empty empty 0 -8 0 10 -262144
-1 -1 22 256;
#X obj 263 274 allpass~ 100 1.3 0.5;
#X obj 382 304 nbx 5 14 -1 1 0 1 empty empty empty 0 -8 0 10 -262144
-1 -1 0.99 256;
#X obj 316 298 nbx 5 14 0 100 0 1 empty empty empty 0 -8 0 10 -262144
-1 -1 20 256;
#X obj 266 328 allpass~ 100 1.3 0.5;
#X obj 477 111 rpole~;
#X obj 478 147 rzero~;
#X obj 533 62 / 100;
#X obj 459 33 nbx 5 14 0 100 0 1 empty empty empty 0 -8 0 10 -262144
-1 -1 8 256;
#X obj 390 361 nbx 5 14 -1 1 0 1 empty empty empty 0 -8 0 10 -262144
-1 -1 0.1 256;
#X obj 324 355 nbx 5 14 0 100 0 1 empty empty empty 0 -8 0 10 -262144
-1 -1 4 256;
#X obj 273 387 allpass~ 100 1.3 0.5;
#X obj 388 417 nbx 5 14 -1 1 0 1 empty empty empty 0 -8 0 10 -262144
-1 -1 0.95 256;
#X obj 322 411 nbx 5 14 0 100 0 1 empty empty empty 0 -8 0 10 -262144
-1 -1 16 256;
#X obj 271 440 allpass~ 100 1.3 0.5;
#X obj 390 470 nbx 5 14 -1 1 0 1 empty empty empty 0 -8 0 10 -262144
-1 -1 0.9 256;
#X obj 324 464 nbx 5 14 0 100 0 1 empty empty empty 0 -8 0 10 -262144
-1 -1 18 256;
#X obj 274 494 allpass~ 100 1.3 0.5;
#X obj 544 133 nbx 5 14 0 200 0 1 empty empty empty 0 -8 0 10 -262144
-1 -1 22 256;
#X obj 469 177 allpass~ 200 25 0.1;
#X connect 0 0 4 0;
#X connect 0 0 44 0;
#X connect 0 0 58 0;
#X connect 2 0 4 2;
#X connect 3 0 4 1;
#X connect 4 0 7 0;
#X connect 5 0 7 2;
#X connect 6 0 7 1;
#X connect 7 0 10 0;
#X connect 8 0 10 2;
#X connect 9 0 10 1;
#X connect 10 0 13 0;
#X connect 11 0 13 2;
#X connect 12 0 13 1;
#X connect 13 0 16 0;
#X connect 14 0 16 2;
#X connect 15 0 16 1;
#X connect 16 0 19 0;
#X connect 17 0 19 2;
#X connect 18 0 19 1;
#X connect 19 0 22 0;
#X connect 20 0 22 2;
#X connect 21 0 22 1;
#X connect 22 0 25 0;
#X connect 23 0 25 2;
#X connect 24 0 25 1;
#X connect 25 0 28 0;
#X connect 26 0 28 2;
#X connect 27 0 28 1;
#X connect 28 0 31 0;
#X connect 29 0 31 2;
#X connect 30 0 31 1;
#X connect 31 0 34 0;
#X connect 32 0 34 2;
#X connect 33 0 34 1;
#X connect 34 0 37 0;
#X connect 35 0 37 2;
#X connect 36 0 37 1;
#X connect 37 0 40 0;
#X connect 38 0 40 2;
#X connect 39 0 40 1;
#X connect 40 0 43 0;
#X connect 41 0 43 2;
#X connect 42 0 43 1;
#X connect 43 0 50 0;
#X connect 44 0 45 0;
#X connect 46 0 44 1;
#X connect 46 0 45 1;
#X connect 47 0 46 0;
#X connect 48 0 50 2;
#X connect 49 0 50 1;
#X connect 50 0 53 0;
#X connect 51 0 53 2;
#X connect 52 0 53 1;
#X connect 53 0 56 0;
#X connect 54 0 56 2;
#X connect 55 0 56 1;
#X connect 56 0 1 0;
#X connect 57 0 58 1;
#X connect 58 0 1 0;
