#N canvas 0 22 1093 698 10;
#X obj 235 454 t b f;
#X floatatom 134 494 5 0 0 0 - - -;
#X obj 170 -89 inlet;
#X obj 156 164 easelseqnote;
#X obj 183 164 easelseqnote;
#X obj 210 164 easelseqnote;
#X obj 237 164 easelseqnote;
#X obj 264 164 easelseqnote;
#X obj 225 -67 bng 15 250 50 0 empty empty empty 17 7 0 10 -262144
-1 -1;
#X obj 174 -17 counter 0 1 5;
#X obj 175 42 route 1 2 3 4 5;
#X obj 294 175 vradio 12 1 0 3 empty empty stages 0 -8 1 10 -262144
-1 -1 1;
#X obj 341 31 + 3;
#X obj 201 498 bng 15 250 50 0 empty empty empty 17 7 0 10 -262144
-1 -1;
#X obj 200 522 outlet;
#X obj 133 529 outlet;
#X obj 298 114 ii;
#X text 311 172 3;
#X text 311 185 4;
#X text 312 198 5;
#X connect 0 0 13 0;
#X connect 0 1 1 0;
#X connect 1 0 15 0;
#X connect 2 0 9 0;
#X connect 3 0 0 0;
#X connect 4 0 0 0;
#X connect 5 0 0 0;
#X connect 6 0 0 0;
#X connect 7 0 0 0;
#X connect 8 0 9 0;
#X connect 9 0 10 0;
#X connect 10 0 3 0;
#X connect 10 1 4 0;
#X connect 10 2 5 0;
#X connect 10 3 6 0;
#X connect 10 4 7 0;
#X connect 11 0 12 0;
#X connect 12 0 9 4;
#X connect 13 0 14 0;
#X connect 16 0 11 0;
#X coords 0 -1 1 1 180 175 2 150 160;
