#N canvas 355 35 464 619 10;
#X obj 102 102 tgl 15 1 empty empty empty 17 7 0 10 -262144 -4160 -1
46.7615 46.7615;
#X obj -129 23 inlet;
#X obj -9 465 outlet;
#X obj 102 140 vsl 15 120 0 1 0 1 empty empty empty 0 -9 0 10 -228856
-4160 -228856 4900 1;
#X obj -75 385 expr ($f2 != 0);
#X obj -75 315 bng 15 250 50 0 empty empty empty 17 7 0 10 -262144
-1 -1;
#X obj -72 414 sel 1;
#X obj 5 436 f;
#X obj -61 450 bng 15 250 50 0 empty empty empty 17 7 0 10 -262144
-1 -1;
#X obj 107 119 bng 10 250 50 0 empty empty empty 17 7 0 10 -262144
-4160 -262144;
#X obj -109 483 s \$0-stepbang;
#X obj 156 325 r \$0-stepbang;
#X obj 54 24 inlet;
#X connect 0 0 4 1;
#X connect 1 0 5 0;
#X connect 3 0 7 1;
#X connect 4 0 6 0;
#X connect 5 0 4 0;
#X connect 6 0 7 0;
#X connect 7 0 2 0;
#X connect 7 0 8 0;
#X connect 8 0 10 0;
#X connect 11 0 9 0;
#X connect 12 0 3 0;
#X coords 0 -1 1 1 19 165 2 100 100;
