#N canvas 57 75 1031 664 10;
#X obj 108 180 hsl 128 15 0 1 0 1 empty empty mod_index -2 -8 1 10
-262144 -4160 -1 8800 1;
#X obj 108 247 hsl 128 15 1 17 0 1 empty empty mod_freq_ratio -2 -8
1 10 -262144 -4160 -1 6200 1;
#X obj 333 439 zl nth;
#X obj 334 390 t b f;
#X obj 300 468 *;
#X obj -184 608 outlet~;
#X obj 264 184 hsl 80 15 0 1 0 1 empty empty timbre -2 -8 1 10 -262144
-258113 -1 2700 1;
#X obj -97 189 t b;
#X obj -13 551 outlet~;
#X obj 184 166 tgl 12 0 empty empty lock 17 7 1 10 -262144 -1 -1 1
1;
#X obj 330 540 expr ($f2 != 0);
#X obj 333 569 sel 1;
#X obj 410 591 f;
#X obj -201 196 s \$0-freq;
#X obj 458 564 ftom;
#X obj 460 620 mtof;
#X obj -219 26 inlet;
#X obj -151 22 inlet;
#X obj -89 21 inlet;
#X obj -33 19 inlet;
#X obj 247 413 t b f;
#X obj 178 229 nbx 5 14 0 15 0 0 empty empty empty 0 -8 1 10 -262144
-1 -1 6 256;
#X obj 262 248 hsl 80 15 0 0.25 0 0 empty empty symmetry -2 -8 1 10
-262144 -258113 -1 7900 1;
#X obj 164 384 nbx 5 14 0 20000 0 0 empty empty freq 0 -8 1 10 -262144
-1 -1 53.6604 256;
#X obj 152 117 nbx 4 14 0 20000 0 0 empty empty mod_freq 0 -8 1 10
-262144 -4160 -4160 321.962 256;
#X obj 33 19 inlet;
#X text 27 1 symmetry;
#X obj 43 55 * 0.25;
#X msg 334 413 0.25 0.5 1 2 3 4 5 6 7 8 9 10 11 12 13 14 15;
#X obj 106 280 vradio 12 1 1 3 empty empty primary 0 -8 1 10 -262144
-258113 -258113 1;
#X obj 160 277 hsl 128 15 0 0.95 0 1 empty empty waveshape -2 -8 1
10 -262144 -258113 -1 1700 1;
#X text 121 276 saw;
#X text 122 289 pulse;
#X text 122 303 tri;
#X obj 108 149 hsl 128 15 0 1 0 1 empty empty main_pitch_cv -2 -8 1
10 -262144 -258113 -1 7200 1;
#X obj 264 152 hsl 80 15 0 1 0 1 empty empty mod_osc_cv -2 -8 1 10
-262144 -4160 -1 700 1;
#X text -214 3 pitch cv;
#X text -148 1 mod cv;
#X obj -207 69 * 1760;
#X obj 105 117 nbx 4 14 0 20000 0 0 empty empty freq 0 -8 1 10 -262144
-258113 -258113 48.7518 256;
#X obj 263 216 hsl 80 15 0 1 0 1 empty empty timbre_cv -2 -8 1 10 -262144
-258113 -1 5900 1;
#X text -43 0 timbre cv;
#X obj -118 71 * 1760;
#X obj 107 211 hsl 128 15 0 1 0 1 empty empty mod_index_cv -2 -8 1
10 -262144 -4160 -1 1500 1;
#X text -102 0 index cv;
#X obj -28 281 cvcontrol;
#X obj -124 103 cvcontrol;
#X obj -204 136 cvcontrol;
#X obj -26 94 cvcontrol;
#X obj 334 278 vradio 12 1 1 3 empty empty mod -8 -8 1 10 -262144 -4160
-4160 2;
#X text 310 271 saw;
#X text 309 299 tri;
#X text 298 285 pulse;
#X obj 337 25 t f;
#X floatatom 270 509 5 0 0 0 - - -;
#X floatatom 405 620 5 0 0 0 - - -;
#X obj 458 591 + 0;
#X obj 159 303 tgl 15 1 empty empty fm 17 7 1 10 -262144 -4160 -4160
1 1;
#X obj 197 303 tgl 15 1 empty empty am 17 7 1 10 -262144 -1 -1 0 1
;
#N canvas 279 56 976 659 fm-osc-bus 0;
#X obj 85 32 inlet~;
#X obj 171 28 inlet~;
#X obj 267 28 inlet;
#X obj 146 621 outlet~;
#X obj 91 187 +~;
#X obj 164 146 *~;
#X floatatom 230 121 5 0 0 0 - - -;
#X obj 419 51 inlet;
#X obj 333 46 inlet;
#X floatatom 427 121 5 0 0 0 - - -;
#X floatatom 356 84 5 0 0 0 - - -;
#X obj 243 63 pack 0 25;
#X obj 239 87 line;
#X obj 322 623 outlet~;
#X obj 97 402 cos~;
#X obj 95 332 *~;
#X floatatom 107 145 5 0 0 0 - - -;
#X obj 99 269 osc~;
#X obj 193 416 crossfade~;
#X obj 216 214 lop~ 1;
#X obj 96 235 /~ 2;
#X obj 36 232 osc~;
#X floatatom 262 386 5 0 1 0 - - -;
#X obj 248 321 sqrt;
#X obj 248 352 sqrt;
#X obj 39 188 +~;
#X obj 96 374 +~;
#X obj 413 193 lop~ 1;
#X obj 219 154 * 1000;
#N canvas 303 194 840 337 waveshapes 0;
#X obj 184 79 pulse~;
#X obj 85 85 phasor~;
#X obj 86 129 -~ 0.5;
#X obj 173 17 inlet~;
#X obj 69 242 outlet~;
#X obj 181 244 outlet~;
#X obj 257 244 outlet~;
#X obj 87 166 *~ 1;
#X obj 604 70 pulse~;
#X obj 607 139 hp2~ 30 0.1;
#N canvas 591 331 452 398 spike~ 0;
#X obj 201 151 line~;
#X obj 54 172 cos~;
#X obj 201 127 pack 0 50;
#X obj 55 99 -~ 0.5;
#X obj 55 125 *~;
#X obj 201 52 / 10;
#X obj 201 76 moses 0;
#X msg 201 100 0;
#X obj 54 148 clip~ -0.5 0.5;
#X text 196 8 bandwidth;
#X obj 201 176 +~ 1;
#X obj 54 196 +~ 1;
#X obj 54 220 *~ 0.5;
#X obj 55 75 phasor~;
#X obj 54 16 inlet~;
#X obj 52 321 outlet~;
#X obj 197 24 nbx 5 14 0 10 0 1 empty empty empty 0 -8 0 10 -262144
-1 -1 10 256;
#X obj 296 22 nbx 5 14 -1e+37 1e+37 0 0 empty empty empty 0 -8 0 10
-262144 -1 -1 0 256;
#X obj 53 272 hip~ 1;
#X connect 0 0 10 0;
#X connect 1 0 11 0;
#X connect 2 0 0 0;
#X connect 3 0 4 0;
#X connect 4 0 8 0;
#X connect 5 0 6 0;
#X connect 6 0 7 0;
#X connect 6 1 2 0;
#X connect 7 0 2 0;
#X connect 8 0 1 0;
#X connect 10 0 4 1;
#X connect 11 0 12 0;
#X connect 12 0 18 0;
#X connect 13 0 3 0;
#X connect 14 0 13 0;
#X connect 16 0 5 0;
#X connect 17 0 5 0;
#X connect 18 0 15 0;
#X restore 410 92 pd spike~;
#X obj 256 79 tri~;
#X connect 0 0 5 0;
#X connect 1 0 2 0;
#X connect 2 0 7 0;
#X connect 3 0 0 0;
#X connect 3 0 1 0;
#X connect 3 0 11 0;
#X connect 7 0 4 0;
#X connect 8 0 9 0;
#X connect 11 0 6 0;
#X restore 425 386 pd waveshapes;
#X obj 55 474 expr~ $v1;
#X obj 510 48 inlet;
#X text 494 25 osc 2 waveshape;
#X text 415 31 symmetry;
#X text 331 26 fold;
#N canvas 732 299 450 300 modosc 0;
#N canvas 595 318 450 300 waveshapes 0;
#X obj 134 99 phasor~;
#X obj 135 143 -~ 0.5;
#X obj 193 37 inlet~;
#X obj 135 265 outlet~;
#X obj 201 264 outlet~;
#X obj 277 264 outlet~;
#X obj 204 99 pulse~;
#X obj 136 180 *~ 1;
#X obj 275 71 tri~;
#X connect 0 0 1 0;
#X connect 1 0 7 0;
#X connect 2 0 0 0;
#X connect 2 0 6 0;
#X connect 2 0 8 0;
#X connect 6 0 4 0;
#X connect 7 0 3 0;
#X connect 8 0 5 0;
#X restore 126 81 pd waveshapes;
#X obj 128 190 signalroute~;
#X obj 119 248 outlet~;
#X obj 114 12 inlet~;
#X obj 246 19 inlet;
#X connect 0 0 1 0;
#X connect 0 1 1 1;
#X connect 0 2 1 2;
#X connect 1 0 2 0;
#X connect 3 0 0 0;
#X connect 4 0 1 3;
#X restore 152 79 pd modosc;
#X text 162 6 mod osc hz;
#X obj 249 270 sqrt;
#X obj 252 244 sqrt;
#X obj 301 92 * 3;
#X obj 607 46 inlet;
#X text 605 23 fm toggle;
#X text 696 24 am toggle;
#X obj 699 45 inlet;
#X obj 154 567 *~;
#N canvas 734 353 450 300 onoff 0;
#X obj 113 48 inlet;
#X obj 123 222 outlet;
#X obj 111 100 sel 1;
#X connect 0 0 2 0;
#X restore 552 247 pd onoff;
#X obj 138 169 *~;
#X obj 341 256 hip~ 1;
#X obj 442 289 env~;
#X floatatom 479 337 5 0 0 0 - - -;
#X obj 325 207 *~;
#X msg 644 149 1;
#X msg 529 116 1;
#X obj 798 47 inlet;
#X text 771 26 osc 1 waveshape;
#X obj 412 445 signalroute~;
#X text 878 30 osc 1 wv amt;
#X obj 878 52 inlet;
#X obj 175 515 crossfade~;
#X obj 235 470 *~ 1;
#X floatatom 497 157 5 0 0 0 - - -;
#X msg 596 112 0;
#X floatatom 644 185 5 0 0 0 - - -;
#X obj 329 298 *~;
#X obj 685 117 sel 1;
#X obj 573 499 spigot~;
#X obj 619 408 sig~;
#X msg 704 213 1;
#X msg 745 219 0;
#X obj 557 91 sel 1;
#X obj 150 593 hip~ 1;
#X connect 0 0 4 0;
#X connect 0 0 25 0;
#X connect 1 0 35 0;
#X connect 2 0 11 0;
#X connect 4 0 20 0;
#X connect 5 0 46 0;
#X connect 6 0 28 0;
#X connect 7 0 9 0;
#X connect 8 0 10 0;
#X connect 8 0 39 0;
#X connect 9 0 27 0;
#X connect 10 0 22 0;
#X connect 11 0 12 0;
#X connect 12 0 6 0;
#X connect 12 0 50 1;
#X connect 14 0 30 0;
#X connect 15 0 26 0;
#X connect 16 0 4 1;
#X connect 17 0 15 0;
#X connect 18 0 58 0;
#X connect 19 0 15 1;
#X connect 20 0 17 0;
#X connect 21 0 18 0;
#X connect 22 0 18 2;
#X connect 23 0 24 0;
#X connect 24 0 22 0;
#X connect 25 0 21 0;
#X connect 25 0 29 0;
#X connect 26 0 14 0;
#X connect 27 0 26 1;
#X connect 28 0 5 1;
#X connect 29 0 55 0;
#X connect 29 1 55 1;
#X connect 29 2 55 2;
#X connect 30 0 18 1;
#X connect 31 0 35 1;
#X connect 35 0 5 0;
#X connect 35 0 13 0;
#X connect 35 0 50 0;
#X connect 37 0 23 0;
#X connect 38 0 37 0;
#X connect 39 0 19 0;
#X connect 40 0 69 0;
#X connect 43 0 64 0;
#X connect 44 0 70 0;
#X connect 46 0 25 1;
#X connect 46 0 4 1;
#X connect 47 0 48 0;
#X connect 47 0 63 0;
#X connect 48 0 49 0;
#X connect 50 0 47 0;
#X connect 51 0 62 0;
#X connect 52 0 60 0;
#X connect 53 0 55 3;
#X connect 55 0 59 0;
#X connect 57 0 58 2;
#X connect 58 0 44 0;
#X connect 59 0 58 1;
#X connect 60 0 46 1;
#X connect 61 0 60 0;
#X connect 62 0 63 1;
#X connect 63 0 44 1;
#X connect 64 0 51 0;
#X connect 64 1 67 0;
#X connect 64 1 68 0;
#X connect 66 0 44 1;
#X connect 67 0 66 0;
#X connect 68 0 63 1;
#X connect 69 0 52 0;
#X connect 69 1 61 0;
#X connect 70 0 3 0;
#X restore -172 423 pd fm-osc-bus ----------;
#X obj 231 105 hsl 114 14 0.01 1 1 1 empty empty pri -20 6 1 10 -262144
-258113 -1 2500 1;
#X obj 231 123 hsl 114 14 0.0001 1 1 0 empty empty mod -24 6 1 10 -262144
-4160 -1 8000 1;
#X obj 165 51 * 1760;
#X obj 217 48 * 1760;
#X obj 106 24 inlet;
#X text 102 3 waveshape;
#X connect 0 0 45 1;
#X connect 1 0 3 0;
#X connect 2 0 4 0;
#X connect 2 0 21 0;
#X connect 3 0 28 0;
#X connect 3 1 2 1;
#X connect 4 0 12 1;
#X connect 4 0 10 0;
#X connect 4 0 54 0;
#X connect 6 0 48 1;
#X connect 7 0 1 0;
#X connect 9 0 10 1;
#X connect 10 0 11 0;
#X connect 11 0 12 0;
#X connect 12 0 14 0;
#X connect 12 0 55 0;
#X connect 14 0 56 0;
#X connect 15 0 53 0;
#X connect 16 0 38 0;
#X connect 17 0 42 0;
#X connect 18 0 45 0;
#X connect 19 0 48 0;
#X connect 20 0 4 0;
#X connect 20 1 4 1;
#X connect 22 0 59 4;
#X connect 23 0 20 0;
#X connect 23 0 4 1;
#X connect 24 0 46 1;
#X connect 25 0 27 0;
#X connect 27 0 22 0;
#X connect 28 0 2 0;
#X connect 29 0 59 8;
#X connect 30 0 59 9;
#X connect 34 0 47 2;
#X connect 35 0 46 2;
#X connect 38 0 47 0;
#X connect 39 0 47 1;
#X connect 40 0 48 2;
#X connect 42 0 46 0;
#X connect 43 0 45 2;
#X connect 45 0 59 2;
#X connect 46 0 59 1;
#X connect 47 0 7 0;
#X connect 47 0 13 0;
#X connect 47 0 59 0;
#X connect 47 0 23 0;
#X connect 48 0 59 3;
#X connect 49 0 59 5;
#X connect 53 0 24 0;
#X connect 56 0 15 0;
#X connect 57 0 59 6;
#X connect 58 0 59 7;
#X connect 59 0 5 0;
#X connect 59 1 8 0;
#X connect 60 0 62 0;
#X connect 61 0 63 0;
#X connect 62 0 39 0;
#X connect 63 0 24 0;
#X connect 64 0 59 9;
#X coords 0 -1 1 1 250 220 2 100 100;
