#N canvas 64 22 1031 664 10;
#X obj 108 178 hsl 128 15 0 1 0 0 empty empty fm_index -2 -8 1 10 -262144
-1 -1 0 1;
#X obj 108 243 hsl 128 15 1 17 0 0 empty empty mod_freq_ratio -2 -8
1 10 -262144 -1 -1 0 1;
#X obj 333 439 zl nth;
#X obj 334 390 t b f;
#X obj 300 468 *;
#X obj -184 608 outlet~;
#X obj 262 171 hsl 80 15 0 1 0 0 empty empty timbre -2 -8 1 10 -262144
-1 -1 5700 1;
#N canvas 25 245 490 435 phasemod 0;
#X obj -52 121 phasor~;
#X obj -49 180 +~;
#X obj 27 156 *~;
#X obj 27 113 osc~ 0;
#X obj -54 43 inlet~;
#X obj 11 31 inlet~;
#X obj 117 42 inlet;
#X obj -40 374 outlet~;
#X obj 83 139 line~;
#X obj 85 111 pack 0 15;
#X obj -44 253 cos~;
#X obj -39 298 *~;
#X obj 44 372 outlet~;
#X connect 0 0 1 0;
#X connect 1 0 10 0;
#X connect 2 0 1 1;
#X connect 3 0 2 0;
#X connect 3 0 12 0;
#X connect 4 0 0 0;
#X connect 5 0 3 0;
#X connect 6 0 9 0;
#X connect 8 0 2 1;
#X connect 9 0 8 0;
#X connect 10 0 11 0;
#X connect 10 0 11 1;
#X connect 11 0 7 0;
#X restore -209 226 pd phasemod;
#N canvas 42 143 648 569 freqmod 0;
#X obj 85 32 inlet~;
#X obj 171 28 inlet~;
#X obj 267 28 inlet;
#X obj 159 458 outlet~;
#X obj 91 187 +~;
#X obj 171 113 osc~;
#X obj 163 163 *~;
#X floatatom 230 121 5 0 0 0 - - -;
#X obj 445 27 inlet;
#X obj 332 19 inlet;
#X floatatom 453 97 5 0 0 0 - - -;
#X floatatom 356 84 5 0 0 0 - - -;
#X obj 243 63 pack 0 25;
#X obj 239 87 line;
#X obj 269 449 outlet~;
#X obj 97 402 cos~;
#X obj 95 332 *~;
#X floatatom 107 145 5 0 0 0 - - -;
#X obj 99 269 osc~;
#X obj 193 416 crossfade~;
#X obj 216 214 lop~ 1;
#X obj 96 235 /~ 2;
#X obj 36 232 osc~;
#X floatatom 262 386 5 0 1 0 - - -;
#X obj 248 321 sqrt;
#X obj 248 352 sqrt;
#X obj 39 188 +~;
#X obj 96 374 +~;
#X obj 439 169 lop~ 1;
#X obj 219 154 * 1000;
#X obj 301 92 * 3;
#N canvas 587 377 450 300 waveshapes 0;
#X obj 256 79 tri~;
#X obj 184 79 pulse~;
#X obj 114 79 phasor~;
#X obj 115 123 -~ 0.5;
#X obj 116 160 *~ 2;
#X obj 173 17 inlet~;
#X obj 115 245 outlet~;
#X obj 181 244 outlet~;
#X obj 257 244 outlet~;
#X connect 0 0 8 0;
#X connect 1 0 7 0;
#X connect 2 0 3 0;
#X connect 3 0 4 0;
#X connect 4 0 6 0;
#X connect 5 0 2 0;
#X connect 5 0 1 0;
#X connect 5 0 0 0;
#X restore 425 386 pd waveshapes;
#X obj 383 449 outlet~;
#X obj 447 449 outlet~;
#X obj 512 449 outlet~;
#X obj 54 458 expr~ $v1 / $v2;
#X connect 0 0 4 0;
#X connect 0 0 26 0;
#X connect 1 0 5 0;
#X connect 2 0 12 0;
#X connect 4 0 21 0;
#X connect 5 0 6 0;
#X connect 5 0 14 0;
#X connect 6 0 4 1;
#X connect 6 0 26 1;
#X connect 7 0 29 0;
#X connect 8 0 10 0;
#X connect 9 0 11 0;
#X connect 9 0 24 0;
#X connect 9 0 30 0;
#X connect 10 0 28 0;
#X connect 12 0 13 0;
#X connect 13 0 7 0;
#X connect 15 0 35 0;
#X connect 16 0 27 0;
#X connect 17 0 4 1;
#X connect 18 0 16 0;
#X connect 19 0 3 0;
#X connect 20 0 16 1;
#X connect 20 0 35 1;
#X connect 21 0 18 0;
#X connect 22 0 19 0;
#X connect 23 0 19 2;
#X connect 24 0 25 0;
#X connect 25 0 23 0;
#X connect 26 0 22 0;
#X connect 26 0 31 0;
#X connect 27 0 15 0;
#X connect 28 0 27 1;
#X connect 29 0 6 1;
#X connect 30 0 20 0;
#X connect 31 0 32 0;
#X connect 31 1 33 0;
#X connect 31 2 34 0;
#X connect 35 0 19 1;
#X restore -164 358 pd freqmod;
#X obj -97 189 t b;
#X obj -13 551 outlet~;
#X obj 184 164 tgl 12 0 empty empty lock 17 7 1 10 -262144 -1 -1 0
1;
#X obj 175 76 line;
#X obj 330 540 expr ($f2 != 0);
#X obj 333 569 sel 1;
#X obj 410 591 f;
#X obj -201 196 s \$0-freq;
#X obj 174 55 pack 0 5;
#X obj 458 564 ftom;
#X obj 460 620 mtof;
#X obj -219 26 inlet;
#X obj -151 22 inlet;
#X obj -89 21 inlet;
#X obj -33 19 inlet;
#X obj 247 413 t b f;
#X obj 178 225 nbx 5 14 0 15 0 0 empty empty empty 0 -8 1 10 -262144
-1 -1 0.25 256;
#X obj 260 235 hsl 80 15 0 0.25 0 0 empty empty symmetry -2 -8 1 10
-262144 -1 -1 0 1;
#X obj 123 340 nbx 5 14 0 20000 0 0 empty empty freq 0 -8 1 10 -262144
-1 -1 863.563 256;
#X obj 164 117 nbx 5 14 0 20000 0 0 empty empty mod_freq 0 -8 1 10
-262144 -1 -1 400 256;
#X obj 33 19 inlet;
#X text 27 1 symmetry;
#X obj 73 41 * 0.25;
#X msg 334 414 0.25 0.5 1 2 3 4 5 6 7 8 9 10 11 12 13 14 15;
#X obj 106 261 vradio 12 1 1 3 empty empty empty 0 -8 0 10 -262144
-1 -1 1;
#X obj -176 508 crossfade~;
#X obj 173 279 hsl 128 15 0 0.8 0 1 empty empty waveshape -2 -8 1 10
-262144 -1 -1 6700 1;
#N canvas 188 296 749 411 signalroute~ 0;
#X obj 147 296 outlet~;
#X obj 86 29 inlet~;
#X obj 160 30 inlet~;
#X obj 245 30 inlet~;
#X obj 379 20 inlet;
#X obj 94 222 *~;
#X obj 162 221 *~;
#X obj 233 220 *~;
#X obj 373 51 route 0 1 2;
#X obj 348 83 t b;
#X msg 261 122 1;
#X msg 299 123 0;
#X msg 334 118 0;
#X obj 393 117 t b;
#X msg 401 155 0;
#X msg 328 159 0;
#X msg 367 160 1;
#X msg 445 149 0;
#X msg 484 150 0;
#X msg 518 145 1;
#X obj 457 85 t b b b;
#X connect 1 0 5 0;
#X connect 2 0 6 0;
#X connect 3 0 7 0;
#X connect 4 0 8 0;
#X connect 5 0 0 0;
#X connect 6 0 0 0;
#X connect 7 0 0 0;
#X connect 8 0 9 0;
#X connect 8 1 13 0;
#X connect 8 2 20 0;
#X connect 9 0 10 0;
#X connect 9 0 11 0;
#X connect 9 0 12 0;
#X connect 10 0 5 1;
#X connect 11 0 6 1;
#X connect 12 0 7 1;
#X connect 13 0 15 0;
#X connect 13 0 16 0;
#X connect 13 0 14 0;
#X connect 14 0 7 1;
#X connect 15 0 5 1;
#X connect 16 0 6 1;
#X connect 17 0 5 1;
#X connect 18 0 6 1;
#X connect 19 0 7 1;
#X connect 20 0 17 0;
#X connect 20 1 18 0;
#X connect 20 2 19 0;
#X restore -59 404 pd signalroute~;
#X text 121 257 saw;
#X text 122 270 pulse;
#X text 122 284 tri;
#X obj -116 463 *~ 1;
#X obj 458 591 + 1;
#X obj 108 147 hsl 128 15 0 1 0 1 empty empty main_pitch_cv -2 -8 1
10 -262144 -1 -1 5100 1;
#X obj 262 138 hsl 80 15 0.001 1 1 0 empty empty mod_osc_cv -2 -8 1
10 -262144 -1 -1 3100 1;
#X text -214 3 pitch cv;
#X text -148 1 mod cv;
#X obj -207 69 * 1760;
#X obj 105 117 nbx 5 14 0 20000 0 0 empty empty freq 0 -8 1 10 -262144
-1 -1 0 256;
#X obj 261 203 hsl 80 15 0 1 0 0 empty empty timbre_cv -2 -8 1 10 -262144
-1 -1 4500 1;
#X text -43 0 timbre cv;
#X obj -119 112 cvcontrol;
#X obj -118 71 * 1760;
#X obj -208 135 cvcontrol;
#X obj -26 94 cvcontrol;
#X obj 107 209 hsl 128 15 0 1 0 0 empty empty fm_cv -2 -8 1 10 -262144
-1 -1 0 1;
#X text -102 0 index cv;
#X obj -34 260 cvcontrol;
#X connect 0 0 56 1;
#X connect 1 0 3 0;
#X connect 2 0 4 0;
#X connect 2 0 25 0;
#X connect 3 0 32 0;
#X connect 3 1 2 1;
#X connect 4 0 15 1;
#X connect 4 0 13 0;
#X connect 6 0 53 1;
#X connect 8 0 34 0;
#X connect 8 1 10 0;
#X connect 8 2 36 0;
#X connect 8 3 36 1;
#X connect 8 4 36 2;
#X connect 9 0 1 0;
#X connect 11 0 13 1;
#X connect 12 0 28 0;
#X connect 13 0 14 0;
#X connect 14 0 15 0;
#X connect 15 0 18 0;
#X connect 17 0 12 0;
#X connect 18 0 41 0;
#X connect 19 0 17 0;
#X connect 20 0 46 0;
#X connect 21 0 51 0;
#X connect 22 0 56 0;
#X connect 23 0 53 0;
#X connect 24 0 4 0;
#X connect 24 1 4 1;
#X connect 26 0 8 4;
#X connect 27 0 24 0;
#X connect 27 0 4 1;
#X connect 28 0 50 1;
#X connect 29 0 31 0;
#X connect 31 0 26 0;
#X connect 32 0 2 0;
#X connect 33 0 36 3;
#X connect 34 0 5 0;
#X connect 35 0 34 2;
#X connect 36 0 40 0;
#X connect 40 0 34 1;
#X connect 41 0 19 0;
#X connect 42 0 52 2;
#X connect 43 0 50 2;
#X connect 46 0 52 0;
#X connect 47 0 52 1;
#X connect 48 0 53 2;
#X connect 50 0 8 1;
#X connect 51 0 50 0;
#X connect 52 0 8 0;
#X connect 52 0 9 0;
#X connect 52 0 27 0;
#X connect 52 0 16 0;
#X connect 53 0 8 3;
#X connect 54 0 56 2;
#X connect 56 0 8 2;
#X coords 0 -1 1 1 250 200 2 100 100;
