#N canvas 0 22 450 300 10;
#X obj 43 171 adenv~;
#X obj 68 260 outlet~;
#X obj 100 38 inlet;
#X obj 158 37 inlet;
#X obj 211 38 inlet;
#X obj 107 149 knob 32 32 0.01 1 1 0 empty empty cv_scale 0 -8 1 10
-262144 -4160 -1 0 1;
#X obj 153 149 knob 32 32 0.01 1 1 0 empty empty cv_scale 0 -8 1 10
-262144 -4160 -1 0 1;
#X obj 153 71 * 5000;
#X obj 212 71 * 5000;
#X obj 213 250 *;
#X obj 264 250 *;
#X obj 107 202 hsl 90 15 0.01 1 1 1 empty empty level -2 -8 1 10 -262144
-1 -1 8900 1;
#X obj 52 224 *~;
#X obj 266 127 ii;
#X msg 264 171 1;
#X obj 155 116 nbx 4 14 0.1 10000 1 0 empty empty decay 0 -8 1 10 -262144
-1 -1 0.1 256;
#X obj 108 116 nbx 4 14 0.1 10000 1 0 empty empty attack 0 -8 1 10
-262144 -1 -1 0.1 256;
#X connect 0 0 12 0;
#X connect 2 0 0 0;
#X connect 3 0 7 0;
#X connect 4 0 8 0;
#X connect 5 0 9 1;
#X connect 6 0 10 1;
#X connect 7 0 9 0;
#X connect 8 0 10 0;
#X connect 9 0 16 0;
#X connect 10 0 15 0;
#X connect 11 0 12 1;
#X connect 12 0 1 0;
#X connect 13 0 14 0;
#X connect 14 0 11 0;
#X connect 15 0 0 2;
#X connect 16 0 0 1;
#X coords 0 -1 1 1 100 120 2 100 100;
