#N canvas 25 38 1346 668 10;
#X obj 448 147 noisytri~;
#X obj 597 158 phasor~;
#X obj 479 189 samphold~;
#X obj 630 89 hsl 128 15 0.05 10000 1 0 empty empty frequency -2 -8
0 10 -262144 -1 -1 2100 1;
#X obj 537 310 snapshot~;
#X obj 944 55 bng 15 250 50 0 empty empty empty 17 7 0 10 -262144 -1
-1;
#X obj 518 279 atc~;
#X obj 261 354 phasor~;
#X obj 195 228 hsl 128 15 0.05 10000 0 0 empty empty clock_speed -2
-8 0 10 -262144 -1 -1 4000 1;
#X obj 359 331 samphold~;
#X obj 362 418 snapshot~;
#X floatatom 226 584 5 0 0 0 - - -;
#X obj 359 378 atc~;
#X floatatom 536 351 10 0 0 0 - - -;
#X obj 933 791 noteout;
#X obj 943 749 makenote;
#X obj 1026 774 print x2;
#X floatatom 871 753 5 0 0 0 - - -;
#X obj 1034 432 metro;
#X obj 939 476 bng 15 250 50 0 empty empty empty 17 7 0 10 -262144
-1 -1;
#X obj 889 605 expr ($f2 * $f3);
#X obj 1151 555 hsl 128 15 0 120 0 1 empty empty note_scaling -2 -8
0 10 -262144 -1 -1 4700 1;
#X obj 1055 633 hsl 128 15 0 127 0 1 empty empty note_offset -2 -8
0 10 -262144 -1 -1 1100 1;
#X obj 939 665 +;
#X obj 1110 347 hsl 128 15 10 10000 1 0 empty empty random_gates_scaling
-2 -8 0 10 -262144 -1 -1 7000 1;
#X floatatom 1099 379 5 0 0 0 - - -;
#X floatatom 1191 606 5 0 0 0 - - -;
#X floatatom 1058 665 5 0 0 0 - - -;
#X floatatom 646 119 5 0 0 0 - - -;
#X obj 1017 703 f;
#X obj 928 558 expr $f2 * $f3;
#X obj 548 153 * 0.8;
#X obj 905 290 snapshot~;
#X floatatom 861 379 5 0 0 0 - - -;
#X obj 287 304 expr (1000/$f1);
#X floatatom 272 258 10 0 0 0 - - -;
#X obj 862 126 metro 5;
#X obj 1133 482 loadbang;
#X obj 1136 441 bng 15 250 50 0 empty empty empty 17 7 0 10 -262144
-1 -1;
#X obj 1098 410 expr ($f1 * $f2);
#X obj 928 266 atc~;
#X obj 766 188 expr~ ($v1 > 0 && $v2 > 0);
#X obj 429 622 * 20;
#X obj 510 633 mtof;
#X floatatom 527 736 5 0 0 0 - - -;
#X obj -61 29 table indices;
#X obj 275 696 arraysize indices;
#X obj 259 738 *;
#X floatatom 314 741 5 0 0 0 - - -;
#X obj 329 664 loadbang;
#X obj 231 758 i;
#X obj 166 791 tabread indices;
#X obj 480 680 *;
#X obj 480 717 ftom;
#X obj 1045 741 loadbang;
#X obj 540 770 makenote;
#X obj 540 803 noteout;
#X msg 612 781 9;
#X obj 621 726 loadbang;
#X obj 923 714 f;
#X obj 259 631 t b;
#X floatatom -50 258 5 0 0 0 - - -;
#X obj -50 226 ctlin 0;
#X obj -51 322 s freq_control;
#X obj 626 38 r freq_control;
#X obj -54 370 ctlin 1;
#X obj -52 448 s clk_control;
#X obj 167 184 r clk_control;
#X obj -50 559 s gate_control;
#X obj -49 489 ctlin 2;
#X obj -47 598 ctlin 3;
#X obj -47 631 expr ($f1 / 127) * 120;
#X obj -49 663 s note_scaling_control;
#X obj -45 706 ctlin 4;
#X obj -43 735 s note_offset_control;
#X obj -52 411 expr ($f1 / 127) * 1000;
#X obj -50 522 expr ($f1 / 127) * 5000;
#X obj -49 290 expr ($f1 / 127) * 500;
#X obj 906 320 abs;
#X msg 966 685 200;
#X obj 933 241 lop~;
#X msg 950 201 10;
#X msg 992 775 1;
#X obj 504 243 lop~;
#X connect 0 0 2 0;
#X connect 0 0 9 0;
#X connect 1 0 2 1;
#X connect 1 0 41 1;
#X connect 2 0 41 0;
#X connect 2 0 83 0;
#X connect 3 0 1 0;
#X connect 3 0 28 0;
#X connect 3 0 31 0;
#X connect 4 0 13 0;
#X connect 4 0 30 1;
#X connect 4 0 20 1;
#X connect 5 0 18 0;
#X connect 5 0 36 0;
#X connect 5 0 24 0;
#X connect 5 0 3 0;
#X connect 6 0 4 0;
#X connect 7 0 9 1;
#X connect 8 0 7 0;
#X connect 8 0 34 0;
#X connect 8 0 35 0;
#X connect 9 0 12 0;
#X connect 10 0 11 0;
#X connect 10 0 42 0;
#X connect 11 0 47 0;
#X connect 11 0 60 0;
#X connect 12 0 10 0;
#X connect 15 0 14 0;
#X connect 15 1 14 1;
#X connect 15 1 16 0;
#X connect 18 0 19 0;
#X connect 18 0 30 0;
#X connect 19 0 20 0;
#X connect 20 0 23 0;
#X connect 21 0 20 2;
#X connect 21 0 26 0;
#X connect 22 0 23 1;
#X connect 22 0 27 0;
#X connect 23 0 59 0;
#X connect 24 0 25 0;
#X connect 24 0 39 1;
#X connect 29 0 15 2;
#X connect 29 0 55 2;
#X connect 30 0 29 0;
#X connect 31 0 83 1;
#X connect 32 0 78 0;
#X connect 36 0 4 0;
#X connect 36 0 10 0;
#X connect 36 0 32 0;
#X connect 37 0 21 0;
#X connect 37 0 22 0;
#X connect 37 0 29 0;
#X connect 37 0 79 0;
#X connect 38 0 37 0;
#X connect 39 0 18 1;
#X connect 39 0 30 2;
#X connect 40 0 32 0;
#X connect 41 0 80 0;
#X connect 42 0 81 0;
#X connect 43 0 52 0;
#X connect 44 0 55 0;
#X connect 46 0 47 1;
#X connect 46 0 48 0;
#X connect 47 0 50 0;
#X connect 49 0 46 0;
#X connect 50 0 51 0;
#X connect 51 0 52 1;
#X connect 52 0 53 0;
#X connect 53 0 44 0;
#X connect 54 0 82 0;
#X connect 55 0 56 0;
#X connect 55 1 56 1;
#X connect 57 0 56 2;
#X connect 58 0 57 0;
#X connect 59 0 15 0;
#X connect 59 0 17 0;
#X connect 59 0 43 0;
#X connect 60 0 46 0;
#X connect 61 0 77 0;
#X connect 62 0 61 0;
#X connect 64 0 3 0;
#X connect 65 0 75 0;
#X connect 67 0 8 0;
#X connect 69 0 76 0;
#X connect 70 0 71 0;
#X connect 71 0 72 0;
#X connect 73 0 74 0;
#X connect 75 0 66 0;
#X connect 76 0 68 0;
#X connect 77 0 63 0;
#X connect 78 0 33 0;
#X connect 78 0 39 0;
#X connect 79 0 15 1;
#X connect 79 0 55 1;
#X connect 80 0 40 0;
#X connect 81 0 80 1;
#X connect 82 0 14 2;
#X connect 83 0 6 0;
#X coords 0 0 1 1 200 100 1 100 100;
