#N canvas 0 164 733 536 10;
#X obj 193 391 osc~;
#X obj 201 293 +~;
#X obj 269 242 *~;
#X obj 270 184 osc~;
#X obj 331 191 * 100;
#X obj 195 469 outlet~;
#X obj 197 175 * \$2;
#X obj 82 66 ii;
#X obj 273 150 * \$3;
#X obj 84 163 nbx 5 14 -1e+37 1e+37 0 0 empty empty empty 0 -8 0 10
-262144 -1 -1 100 256;
#X floatatom 434 211 5 0 0 0 - - -;
#X obj 385 122 expr \$4;
#X floatatom 341 249 5 0 0 0 - - -;
#X obj 399 82 ii;
#X obj 73 108 expr \$1;
#X obj 215 28 inlet;
#X obj 193 107 spigot;
#X floatatom 218 142 5 0 0 0 - - -;
#X floatatom 214 209 5 0 0 0 - - -;
#X obj 225 74 != 0;
#X floatatom 291 65 5 0 0 0 - - -;
#X floatatom 252 97 5 0 0 0 - - -;
#X obj 204 53 t f f;
#X connect 0 0 5 0;
#X connect 1 0 0 0;
#X connect 2 0 1 1;
#X connect 3 0 2 0;
#X connect 4 0 2 1;
#X connect 4 0 12 0;
#X connect 6 0 1 0;
#X connect 6 0 18 0;
#X connect 7 0 14 0;
#X connect 8 0 3 0;
#X connect 11 0 4 0;
#X connect 11 0 10 0;
#X connect 13 0 11 0;
#X connect 14 0 6 0;
#X connect 14 0 9 0;
#X connect 15 0 20 0;
#X connect 15 0 22 0;
#X connect 16 0 17 0;
#X connect 16 0 6 0;
#X connect 19 0 16 1;
#X connect 19 0 21 0;
#X connect 22 0 16 0;
#X connect 22 1 19 0;
