#N canvas 40 58 523 534 10;
#X obj 187 268 cos~;
#X obj 186 241 +~;
#X obj 178 217 *~;
#X obj 102 192 lop~ 1;
#X obj 241 238 lop~ 1;
#X obj 188 185 osc~;
#X obj 181 327 outlet~;
#X obj 68 45 inlet~;
#X obj 143 43 inlet~;
#X obj 210 44 inlet~;
#X msg 53 129 1;
#X obj 31 92 ii;
#X connect 0 0 6 0;
#X connect 1 0 0 0;
#X connect 2 0 1 0;
#X connect 3 0 2 0;
#X connect 4 0 1 1;
#X connect 5 0 2 1;
#X connect 7 0 5 0;
#X connect 8 0 3 0;
#X connect 9 0 4 0;
#X connect 10 0 3 0;
#X connect 11 0 10 0;
