#N canvas 217 23 931 715 10;
#X obj 442 120 nbx 5 14 0 1 0 1 empty empty empty 0 -8 0 10 -262144
-1 -1 0.5 256;
#X text 445 105 density;
#X text 527 110 evens;
#X obj 517 129 nbx 5 14 0 1 0 1 empty empty empty 0 -8 0 10 -262144
-1 -1 0.3 256;
#X text 592 110 odds;
#X obj 585 131 nbx 5 14 0 1 0 1 empty empty empty 0 -8 0 10 -262144
-1 -1 0.7 256;
#X obj 373 123 nbx 5 14 0 32 0 1 empty empty empty 0 -8 0 10 -262144
-1 -1 16 256;
#X text 378 105 length;
#X obj 285 50 bng 15 250 50 0 empty empty empty 17 7 0 10 -262144 -1
-1;
#X obj 274 17 inlet;
#X obj 298 233 decimalrand;
#X obj 315 279 <=;
#X obj 312 312 sel 0 1;
#X obj 423 430 decimalrand;
#X obj 481 470 <=;
#X obj 485 502 sel 0 1;
#X obj 363 345 f;
#X obj 369 371 mod 2;
#X obj 416 390 sel 1 0;
#X obj 526 405 decimalrand;
#X obj 578 462 <=;
#X obj 573 499 sel 0 1;
#X obj 301 203 t b f b f;
#X obj 548 618 list-insert -1;
#X obj 385 220 s \$0-val;
#X obj 571 537 r \$0-val;
#X obj 527 551 f;
#X obj 553 688 s \$0-listreturn;
#X obj 706 301 r \$0-listreturn;
#X obj 399 192 s \$0-done;
#X obj 678 497 r \$0-done;
#X obj 678 624 outlet;
#X obj 159 36 r \$0-nextbang;
#X obj 323 685 s \$0-nextbang;
#X obj 544 647 t b l;
#X obj 706 184 ii;
#X obj 402 41 bang;
#X obj 409 19 bng 15 250 50 0 empty empty empty 17 7 0 10 -262144 -1
-1;
#X obj 643 381 t l l l;
#X obj 367 179 t b;
#X obj 678 537 l;
#X obj 658 326 t l;
#X floatatom 348 421 5 0 0 0 - - -;
#X floatatom 415 480 5 0 0 0 - - -;
#X floatatom 247 283 5 0 0 0 - - -;
#X floatatom 522 447 5 0 0 0 - - -;
#X floatatom 487 609 5 0 0 0 - - -;
#X obj 525 573 t f f;
#X msg 705 236 list -1;
#X obj 401 171 s \$0-length;
#X obj 356 144 t f f f;
#X obj 158 224 bng 15 250 50 0 empty empty empty 17 7 0 10 -262144
-1 -1;
#X obj 151 127 f;
#X obj 154 157 < 1;
#X obj 157 190 sel 1;
#X msg 331 80 0;
#X obj 444 39 inlet;
#X obj 494 38 inlet;
#X obj 538 40 inlet;
#X obj 585 42 inlet;
#X obj 393 87 f \$1;
#X obj 452 81 f \$2;
#X obj 586 85 f \$4;
#X obj 527 81 f \$3;
#X obj 678 573 list-delete -1;
#X obj 285 180 counter 0 1;
#X obj 550 597 + 1;
#X connect 0 0 11 1;
#X connect 3 0 14 1;
#X connect 5 0 20 1;
#X connect 6 0 50 0;
#X connect 8 0 37 0;
#X connect 8 0 65 0;
#X connect 9 0 8 0;
#X connect 10 0 11 0;
#X connect 10 0 44 0;
#X connect 11 0 12 0;
#X connect 12 0 33 0;
#X connect 12 1 16 0;
#X connect 13 0 14 0;
#X connect 13 0 43 0;
#X connect 14 0 15 0;
#X connect 15 0 33 0;
#X connect 15 1 26 0;
#X connect 16 0 17 0;
#X connect 17 0 18 0;
#X connect 17 0 42 0;
#X connect 18 0 13 0;
#X connect 18 1 19 0;
#X connect 19 0 20 0;
#X connect 19 0 45 0;
#X connect 20 0 21 0;
#X connect 21 0 33 0;
#X connect 21 1 26 0;
#X connect 22 0 10 0;
#X connect 22 1 16 1;
#X connect 22 3 24 0;
#X connect 23 0 34 0;
#X connect 25 0 26 1;
#X connect 26 0 47 0;
#X connect 28 0 41 0;
#X connect 30 0 40 0;
#X connect 32 0 52 0;
#X connect 34 0 33 0;
#X connect 34 1 27 0;
#X connect 35 0 48 0;
#X connect 36 0 3 0;
#X connect 36 0 5 0;
#X connect 36 0 35 0;
#X connect 36 0 55 0;
#X connect 36 0 0 0;
#X connect 36 0 60 0;
#X connect 36 0 61 0;
#X connect 36 0 62 0;
#X connect 36 0 63 0;
#X connect 36 0 65 2;
#X connect 37 0 36 0;
#X connect 38 0 23 2;
#X connect 38 1 40 1;
#X connect 39 0 29 0;
#X connect 40 0 64 0;
#X connect 41 0 38 0;
#X connect 47 0 46 0;
#X connect 47 1 66 0;
#X connect 48 0 41 0;
#X connect 50 1 65 4;
#X connect 50 2 49 0;
#X connect 51 0 65 0;
#X connect 52 0 53 0;
#X connect 53 0 54 0;
#X connect 54 0 51 0;
#X connect 55 0 52 1;
#X connect 56 0 60 1;
#X connect 57 0 61 1;
#X connect 58 0 63 1;
#X connect 59 0 62 1;
#X connect 60 0 6 0;
#X connect 61 0 0 0;
#X connect 62 0 5 0;
#X connect 63 0 3 0;
#X connect 64 0 31 0;
#X connect 65 0 22 0;
#X connect 65 3 39 0;
#X connect 65 3 52 1;
#X connect 66 0 23 0;
