#N canvas 0 22 826 535 10;
#X obj 354 33 inlet;
#X obj 172 387 cos~;
#X obj 222 375 cos~;
#X obj 263 372 cos~;
#X obj 316 374 cos~;
#X obj 387 368 cos~;
#X obj 448 376 cos~;
#X obj 338 130 phasor~ \$1;
#X obj 295 471 /~ 3;
#X obj 183 235 *~ 1;
#X obj 298 509 outlet~;
#X obj 229 237 *~ \$2;
#X obj 231 415 *~ 0.5;
#X obj 274 234 *~ \$3;
#X obj 281 415 *~ 0.4;
#X obj 325 234 *~ \$4;
#X obj 331 420 *~ 0.3;
#X obj 371 235 *~ \$5;
#X obj 385 421 *~ 0.2;
#X obj 434 235 *~ \$6;
#X obj 447 419 *~ 0.1;
#X connect 0 0 7 0;
#X connect 1 0 8 0;
#X connect 2 0 12 0;
#X connect 3 0 14 0;
#X connect 4 0 16 0;
#X connect 5 0 18 0;
#X connect 6 0 20 0;
#X connect 7 0 9 0;
#X connect 7 0 11 0;
#X connect 7 0 13 0;
#X connect 7 0 15 0;
#X connect 7 0 17 0;
#X connect 7 0 19 0;
#X connect 8 0 10 0;
#X connect 9 0 1 0;
#X connect 11 0 2 0;
#X connect 12 0 8 0;
#X connect 13 0 3 0;
#X connect 14 0 8 0;
#X connect 15 0 4 0;
#X connect 16 0 8 0;
#X connect 17 0 5 0;
#X connect 18 0 8 0;
#X connect 19 0 6 0;
#X connect 20 0 8 0;
