#N canvas 0 22 450 300 10;
#X floatatom 162 117 5 0 0 0 - - -;
#X obj 110 129 sel 1;
#X obj 112 38 inlet;
#X obj 111 198 outlet;
#X obj 114 80 random 30;
#X obj 114 154 random 2;
#X floatatom 179 193 5 0 0 0 - - -;
#X obj 116 105 < 6;
#X connect 1 0 5 0;
#X connect 2 0 4 0;
#X connect 4 0 0 0;
#X connect 4 0 7 0;
#X connect 5 0 3 0;
#X connect 5 0 6 0;
#X connect 7 0 1 0;
