#N canvas 547 164 450 300 10;
#X obj 97 38 inlet;
#X obj 193 28 inlet;
#X obj 148 238 outlet;
#X obj 215 238 outlet;
#X obj 115 164 spigot;
#X obj 176 74 sel 0 1;
#X obj 193 157 spigot;
#X connect 0 0 4 0;
#X connect 0 0 6 0;
#X connect 1 0 5 0;
#X connect 4 0 2 0;
#X connect 5 0 4 1;
#X connect 5 1 6 1;
#X connect 6 0 3 0;
