#N canvas 0 22 492 460 10;
#X obj 77 62 inlet;
#X obj 117 102 del;
#X obj 157 58 inlet;
#X obj 17 62 inlet~;
#X obj 29 152 *~;
#X msg 70 124 1;
#X floatatom 159 85 5 0 0 0 - - -;
#X msg 116 126 0;
#X obj 35 361 delwrite~ \$0-buffer 1000;
#X obj 155 155 vd~ \$0-buffer 100;
#X obj 170 187 z~ 1;
#X obj 122 220 *~ 0.5;
#X obj 179 222 *~ 0.5;
#X obj 152 274 +~;
#X obj 324 60 inlet;
#X obj 151 305 *~ 0.99;
#X obj 218 367 outlet~;
#X floatatom 347 112 5 0 0 0 - - -;
#X connect 0 0 1 0;
#X connect 0 0 5 0;
#X connect 1 0 7 0;
#X connect 2 0 6 0;
#X connect 3 0 4 0;
#X connect 4 0 8 0;
#X connect 5 0 4 1;
#X connect 6 0 1 1;
#X connect 6 0 9 0;
#X connect 7 0 4 1;
#X connect 9 0 10 0;
#X connect 9 0 11 0;
#X connect 10 0 12 0;
#X connect 11 0 13 0;
#X connect 12 0 13 1;
#X connect 13 0 15 0;
#X connect 14 0 15 1;
#X connect 14 0 17 0;
#X connect 15 0 16 0;
#X connect 15 0 8 0;
