#N canvas 194 136 590 460 10;
#X obj 77 46 inlet~;
#X obj 215 47 inlet~;
#X obj 102 380 outlet~;
#X obj 104 321 *~;
#X obj 154 336 env~;
#X floatatom 191 370 5 0 0 0 - - -;
#X obj 75 155 lop~ \$1;
#X obj 293 49 inlet;
#X text 288 31 strike;
#X text 215 28 control;
#X obj 131 42 inlet;
#X obj 286 93 adenv~ 20 40;
#X obj 129 75 sig~;
#X obj 127 98 vactrol~;
#X obj 129 126 sigtof~;
#X obj 207 96 vactrol~;
#X connect 0 0 6 0;
#X connect 1 0 15 0;
#X connect 3 0 2 0;
#X connect 3 0 4 0;
#X connect 4 0 5 0;
#X connect 6 0 3 0;
#X connect 7 0 11 0;
#X connect 10 0 12 0;
#X connect 11 0 3 1;
#X connect 12 0 13 0;
#X connect 13 0 14 0;
#X connect 14 0 6 1;
#X connect 15 0 3 1;
