#N canvas 551 139 590 460 10;
#X obj 77 46 inlet~;
#X obj 215 47 inlet~;
#X obj 102 380 outlet~;
#X obj 104 321 *~;
#X obj 154 336 env~;
#X floatatom 191 370 5 0 0 0 - - -;
#X obj 293 49 inlet;
#X text 288 31 strike;
#X text 215 28 control;
#X obj 286 93 adenv~ 20 40;
#X obj 207 96 vactrol~;
#X obj 131 42 inlet~;
#X obj 115 253 *~ 20000;
#X obj 253 191 nbx 5 14 0 10 0 1 empty empty Q 0 -8 1 10 -262144 -1
-1 0.52 256;
#X obj 79 282 onepole~;
#X obj 127 98 vactrol~;
#X connect 0 0 14 0;
#X connect 1 0 10 0;
#X connect 3 0 2 0;
#X connect 3 0 4 0;
#X connect 4 0 5 0;
#X connect 6 0 9 0;
#X connect 9 0 3 1;
#X connect 10 0 3 1;
#X connect 11 0 15 0;
#X connect 12 0 14 1;
#X connect 14 0 3 0;
#X connect 15 0 12 0;
