#N canvas 199 83 508 606 10;
#X text 125 5 scale;
#X obj 200 46 inlet;
#X text 197 27 octaves;
#X obj 155 513 outlet;
#X obj 141 95 zl len;
#X obj 182 187 *;
#X obj 160 120 t f f;
#X obj 159 347 +;
#X obj 223 324 f;
#X obj 154 425 zl join;
#X obj 147 464 print l;
#X msg 273 84 1 2 3 4 5 6;
#X obj 127 46 list;
#X obj 127 20 inlet;
#X floatatom 290 29 5 0 0 0 - - -;
#X floatatom 103 147 5 0 0 0 - - -;
#X obj 152 230 zl iter 1;
#X floatatom 245 273 5 0 0 0 - - -;
#X obj 255 422 print zz;
#X obj 123 75 t l l l;
#X obj 247 378 l;
#X obj 234 476 print lz;
#X obj 194 394 l;
#X obj 157 369 t b f;
#X connect 1 0 5 1;
#X connect 4 0 6 0;
#X connect 4 0 15 0;
#X connect 6 0 5 0;
#X connect 6 1 17 0;
#X connect 7 0 8 0;
#X connect 7 0 23 0;
#X connect 8 0 7 1;
#X connect 9 0 20 1;
#X connect 11 0 12 0;
#X connect 12 0 19 0;
#X connect 13 0 12 0;
#X connect 14 0 5 1;
#X connect 16 0 7 0;
#X connect 17 0 8 0;
#X connect 19 0 16 0;
#X connect 19 1 4 0;
#X connect 19 2 20 1;
#X connect 20 0 9 0;
#X connect 20 0 18 0;
#X connect 22 0 9 1;
#X connect 23 0 20 0;
#X connect 23 1 22 0;
