#N canvas 177 246 1507 882 10;
#N canvas 643 702 450 300 loop1 0;
#X obj 156 91 vd~ \$0-loop1;
#X obj 137 233 *~ 0.5;
#X obj 67 75 r~ \$0-input;
#X obj 135 272 delwrite~ \$0-loop1 200;
#X obj 198 231 r \$0-decay;
#X msg 222 47 28.66;
#X obj 219 14 loadbang;
#X obj 140 173 allpass~ 100 25.66 0.598;
#X obj 141 205 allpass~ 100 37.48 0.519;
#X connect 0 0 7 0;
#X connect 1 0 3 0;
#X connect 2 0 7 0;
#X connect 4 0 1 1;
#X connect 5 0 0 0;
#X connect 6 0 5 0;
#X connect 7 0 8 0;
#X connect 8 0 1 0;
#X restore 380 388 pd loop1;
#N canvas 881 507 450 300 loop2 0;
#X obj 25 -1206 *~ 0.5;
#X obj 57 -1336 vd~ \$0-loop2;
#X obj 32 -1393 r~ \$0-input;
#X obj 23 -1155 delwrite~ \$0-loop2 500;
#X obj 76 -1208 r \$0-decay;
#X msg 135 -1366 24;
#X obj 134 -1391 loadbang;
#X obj 28 -1266 allpass~ 100 22 0.49;
#X obj 28 -1232 allpass~ 100 16 0.52;
#X connect 0 0 3 0;
#X connect 1 0 7 0;
#X connect 2 0 7 0;
#X connect 4 0 0 1;
#X connect 5 0 1 0;
#X connect 6 0 5 0;
#X connect 7 0 8 0;
#X connect 8 0 0 0;
#X restore 468 390 pd loop2;
#N canvas 897 509 450 300 loop3 0;
#X obj 56 -810 *~ 0.5;
#X obj 61 -1025 r~ \$0-input;
#X obj 54 -762 delwrite~ \$0-loop3 200;
#X obj 73 -910 vd~ \$0-loop3;
#X obj 113 -814 r \$0-decay;
#X msg 119 -952 15;
#X obj 117 -976 loadbang;
#X obj 59 -870 allpass~ 100 23 0.5;
#X obj 61 -838 allpass~ 100 28 0.6;
#X connect 0 0 2 0;
#X connect 1 0 7 0;
#X connect 3 0 7 0;
#X connect 4 0 0 1;
#X connect 5 0 3 0;
#X connect 6 0 5 0;
#X connect 7 0 8 0;
#X connect 8 0 0 0;
#X restore 547 393 pd loop3;
#N canvas 970 503 450 300 loop4 0;
#X obj 33 235 *~ 0.5;
#X obj 45 20 r~ \$0-input;
#X obj 29 290 delwrite~ \$0-loop4 200;
#X obj 70 104 vd~ \$0-loop4;
#X obj 90 228 r \$0-decay;
#X msg 126 63 11.3;
#X obj 126 41 loadbang;
#X obj 36 176 allpass~ 100 22 0.7;
#X obj 37 207 allpass~ 100 40 0.6;
#X connect 0 0 2 0;
#X connect 1 0 7 0;
#X connect 3 0 7 0;
#X connect 4 0 0 1;
#X connect 5 0 3 0;
#X connect 6 0 5 0;
#X connect 7 0 8 0;
#X connect 8 0 0 0;
#X restore 621 396 pd loop4;
#N canvas 973 574 450 300 taps 0;
#X obj -3 123 vd~ \$0-loop1;
#X floatatom -2 86 5 0 0 0 - - -;
#X obj 139 209 s~ \$0-wet;
#X floatatom 94 81 5 0 0 0 - - -;
#X obj 89 119 vd~ \$0-loop2;
#X floatatom 192 85 5 0 0 0 - - -;
#X floatatom 282 95 5 0 0 0 - - -;
#X obj 185 128 vd~ \$0-loop3;
#X obj 275 131 vd~ \$0-loop4;
#X obj 104 156 *~ -0.6;
#X obj 20 161 *~ 0.6;
#X obj 181 161 *~ 0.6;
#X obj 275 162 *~ -0.6;
#X msg 50 81 15;
#X msg 148 79 25;
#X msg 245 85 7.5;
#X msg 343 87 8;
#X obj 153 39 loadbang;
#X obj -22 210 s~ \$0-left;
#X obj 322 215 s~ \$0-right;
#X connect 0 0 10 0;
#X connect 1 0 0 0;
#X connect 3 0 4 0;
#X connect 4 0 9 0;
#X connect 5 0 7 0;
#X connect 6 0 8 0;
#X connect 7 0 11 0;
#X connect 8 0 12 0;
#X connect 9 0 2 0;
#X connect 9 0 18 0;
#X connect 10 0 2 0;
#X connect 10 0 18 0;
#X connect 11 0 2 0;
#X connect 11 0 19 0;
#X connect 12 0 2 0;
#X connect 12 0 19 0;
#X connect 13 0 0 0;
#X connect 14 0 4 0;
#X connect 15 0 7 0;
#X connect 16 0 8 0;
#X connect 17 0 13 0;
#X connect 17 0 14 0;
#X connect 17 0 15 0;
#X connect 17 0 16 0;
#X restore 483 458 pd taps;
#X obj 380 576 outlet~;
#X obj 574 572 outlet~;
#X obj 379 523 r~ \$0-left;
#X obj 379 548 *~ 1.2;
#X obj 574 545 *~ 1.2;
#X obj 572 516 r~ \$0-right;
#X obj 358 225 inlet~;
#X obj 497 212 inlet;
#X obj 627 220 inlet;
#X obj 628 251 s \$0-freeze;
#N canvas 136 235 450 300 input 0;
#X obj 39 40 inlet~;
#X obj 82 225 s~ \$0-input;
#X obj 82 195 *~;
#X floatatom 125 148 5 0 0 0 - - -;
#X msg 139 119 0;
#X msg 205 121 1;
#X obj 113 175 lop~ 2;
#X obj 215 61 loadbang;
#X obj 138 87 sel 1;
#X obj 137 51 r \$0-freeze;
#X connect 0 0 2 0;
#X connect 2 0 1 0;
#X connect 3 0 6 0;
#X connect 4 0 3 0;
#X connect 5 0 3 0;
#X connect 6 0 2 1;
#X connect 7 0 5 0;
#X connect 8 0 4 0;
#X connect 8 1 5 0;
#X connect 9 0 8 0;
#X restore 359 259 pd input;
#N canvas 989 54 450 300 decay 0;
#X obj 103 33 inlet;
#X obj 94 246 s \$0-decay;
#X floatatom 95 88 5 0 0 0 - - -;
#X obj 218 58 sel 1;
#X obj 244 82 t b;
#X obj 220 27 r \$0-freeze;
#X msg 219 109 1;
#X connect 0 0 2 0;
#X connect 2 0 1 0;
#X connect 3 0 6 0;
#X connect 3 1 4 0;
#X connect 4 0 2 0;
#X connect 5 0 3 0;
#X connect 6 0 1 0;
#X restore 496 248 pd decay;
#X connect 7 0 8 0;
#X connect 8 0 5 0;
#X connect 9 0 6 0;
#X connect 10 0 9 0;
#X connect 11 0 15 0;
#X connect 12 0 16 0;
#X connect 13 0 14 0;
