#N canvas 0 22 1280 699 10;
#N canvas 441 161 524 356 loop1 0;
#X obj 156 91 vd~ \$0-loop1;
#X obj 137 233 *~ 0.5;
#X obj 57 137 r~ \$0-input;
#X obj 135 272 delwrite~ \$0-loop1 200;
#X obj 198 231 r \$0-decay;
#X obj 256 114 hsl 128 15 0 25 0 0 empty empty empty -2 -8 0 10 -262144
-1 -1 0 1;
#X floatatom 264 140 5 0 0 0 - - -;
#X obj 305 182 hsl 128 15 0 25 0 0 empty empty empty -2 -8 0 10 -262144
-1 -1 0 1;
#X floatatom 313 208 5 0 0 0 - - -;
#X obj 273 38 hsl 128 15 0 25 0 0 empty empty empty -2 -8 0 10 -262144
-1 -1 0 1;
#X floatatom 281 64 5 0 0 0 - - -;
#X obj 129 21 r~ \$0-modulate;
#X obj 314 136 hsl 128 15 0 1 0 0 empty empty empty -2 -8 0 10 -262144
-1 -1 0 1;
#X floatatom 322 162 5 0 0 0 - - -;
#X obj 294 242 hsl 128 15 0 1 0 0 empty empty empty -2 -8 0 10 -262144
-1 -1 0 1;
#X floatatom 302 268 5 0 0 0 - - -;
#X obj 140 173 allpass~ 100 10.03 0.582;
#X obj 141 205 allpass~ 100 12.59 0.598;
#X obj 150 59 +~ 9.842;
#X connect 0 0 16 0;
#X connect 1 0 3 0;
#X connect 2 0 16 0;
#X connect 4 0 1 1;
#X connect 5 0 6 0;
#X connect 5 0 16 1;
#X connect 7 0 8 0;
#X connect 7 0 17 1;
#X connect 9 0 10 0;
#X connect 9 0 18 1;
#X connect 11 0 18 0;
#X connect 12 0 13 0;
#X connect 12 0 16 2;
#X connect 14 0 15 0;
#X connect 14 0 17 2;
#X connect 16 0 17 0;
#X connect 17 0 1 0;
#X connect 18 0 0 0;
#X restore 380 388 pd loop1;
#N canvas 202 150 450 300 loop2 0;
#X obj 31 -1146 *~ 0.5;
#X obj 63 -1276 vd~ \$0-loop2;
#X obj 30 -1364 r~ \$0-input;
#X obj 29 -1095 delwrite~ \$0-loop2 500;
#X obj 82 -1148 r \$0-decay;
#X obj 204 -1265 hsl 128 15 0 25 0 0 empty empty empty -2 -8 0 10 -262144
-1 -1 0 1;
#X floatatom 212 -1239 5 0 0 0 - - -;
#X obj 198 -1197 hsl 128 15 0 25 0 0 empty empty empty -2 -8 0 10 -262144
-1 -1 0 1;
#X floatatom 206 -1171 5 0 0 0 - - -;
#X obj 210 -1321 hsl 128 15 0 25 0 0 empty empty empty -2 -8 0 10 -262144
-1 -1 0 1;
#X floatatom 218 -1295 5 0 0 0 - - -;
#X obj 46 -1336 r~ \$0-modulate;
#X obj 34 -1206 allpass~ 100 10.82 0.49;
#X obj 34 -1172 allpass~ 100 13.77 0.52;
#X obj 67 -1306 +~ 8.661;
#X connect 0 0 3 0;
#X connect 1 0 12 0;
#X connect 2 0 12 0;
#X connect 4 0 0 1;
#X connect 5 0 6 0;
#X connect 5 0 12 1;
#X connect 7 0 8 0;
#X connect 7 0 13 1;
#X connect 9 0 10 0;
#X connect 9 0 14 1;
#X connect 11 0 14 0;
#X connect 12 0 13 0;
#X connect 13 0 0 0;
#X connect 14 0 1 0;
#X restore 468 391 pd loop2;
#N canvas 399 172 450 300 loop3 0;
#X obj 56 -810 *~ 0.5;
#X obj 61 -1025 r~ \$0-input;
#X obj 54 -762 delwrite~ \$0-loop3 200;
#X obj 88 -938 vd~ \$0-loop3;
#X obj 113 -814 r \$0-decay;
#X obj 216 -946 hsl 128 15 0 25 0 0 empty empty empty -2 -8 0 10 -262144
-1 -1 0 1;
#X floatatom 217 -922 5 0 0 0 - - -;
#X obj 226 -873 hsl 128 15 0 25 0 0 empty empty empty -2 -8 0 10 -262144
-1 -1 0 1;
#X floatatom 234 -847 5 0 0 0 - - -;
#X obj 159 -1017 r~ \$0-modulate;
#X obj 249 -1001 hsl 128 15 0 25 0 0 empty empty empty -2 -8 0 10 -262144
-1 -1 0 1;
#X floatatom 250 -977 5 0 0 0 - - -;
#X obj 59 -870 allpass~ 100 10.62 0.5;
#X obj 61 -838 allpass~ 100 12.79 0.6;
#X obj 180 -979 +~ 9.251;
#X connect 0 0 2 0;
#X connect 1 0 12 0;
#X connect 3 0 12 0;
#X connect 4 0 0 1;
#X connect 5 0 6 0;
#X connect 5 0 12 1;
#X connect 7 0 8 0;
#X connect 7 0 13 1;
#X connect 9 0 14 0;
#X connect 10 0 11 0;
#X connect 10 0 14 1;
#X connect 12 0 13 0;
#X connect 13 0 0 0;
#X connect 14 0 3 0;
#X restore 547 393 pd loop3;
#N canvas 479 205 474 408 loop4 0;
#X obj 33 235 *~ 0.5;
#X obj 24 -41 r~ \$0-input;
#X obj 29 290 delwrite~ \$0-loop4 200;
#X obj 70 104 vd~ \$0-loop4;
#X obj 90 228 r \$0-decay;
#X obj 195 104 hsl 128 15 0 25 0 0 empty empty empty -2 -8 0 10 -262144
-1 -1 0 1;
#X floatatom 203 130 5 0 0 0 - - -;
#X obj 217 179 hsl 128 15 0 25 0 0 empty empty empty -2 -8 0 10 -262144
-1 -1 0 1;
#X floatatom 225 205 5 0 0 0 - - -;
#X obj 235 23 hsl 128 15 0 25 0 0 empty empty empty -2 -8 0 10 -262144
-1 -1 0 1;
#X floatatom 236 47 5 0 0 0 - - -;
#X obj 51 8 r~ \$0-modulate;
#X obj 37 207 allpass~ 100 10.82 0.6;
#X obj 36 176 allpass~ 100 7.677 0.7;
#X obj 72 38 +~ 12.59;
#X connect 0 0 2 0;
#X connect 1 0 13 0;
#X connect 3 0 13 0;
#X connect 4 0 0 1;
#X connect 5 0 6 0;
#X connect 5 0 13 1;
#X connect 7 0 8 0;
#X connect 7 0 12 1;
#X connect 9 0 10 0;
#X connect 9 0 14 1;
#X connect 11 0 14 0;
#X connect 12 0 0 0;
#X connect 13 0 12 0;
#X connect 14 0 3 0;
#X restore 621 396 pd loop4;
#N canvas 628 341 450 300 taps 0;
#X obj -3 123 vd~ \$0-loop1;
#X floatatom -2 86 5 0 0 0 - - -;
#X floatatom 94 81 5 0 0 0 - - -;
#X obj 89 119 vd~ \$0-loop2;
#X floatatom 192 85 5 0 0 0 - - -;
#X floatatom 282 95 5 0 0 0 - - -;
#X obj 185 128 vd~ \$0-loop3;
#X obj 275 131 vd~ \$0-loop4;
#X obj 104 156 *~ -0.6;
#X obj 20 161 *~ 0.6;
#X obj 181 161 *~ 0.6;
#X obj 275 162 *~ -0.6;
#X msg 50 81 15;
#X msg 148 79 25;
#X msg 245 85 7.5;
#X msg 343 87 8;
#X obj 153 39 loadbang;
#X obj -22 210 s~ \$0-left;
#X obj 322 215 s~ \$0-right;
#X connect 0 0 9 0;
#X connect 1 0 0 0;
#X connect 2 0 3 0;
#X connect 3 0 8 0;
#X connect 4 0 6 0;
#X connect 5 0 7 0;
#X connect 6 0 10 0;
#X connect 7 0 11 0;
#X connect 8 0 17 0;
#X connect 8 0 18 0;
#X connect 9 0 17 0;
#X connect 10 0 18 0;
#X connect 10 0 17 0;
#X connect 11 0 18 0;
#X connect 12 0 0 0;
#X connect 13 0 3 0;
#X connect 14 0 6 0;
#X connect 15 0 7 0;
#X connect 16 0 12 0;
#X connect 16 0 13 0;
#X connect 16 0 14 0;
#X connect 16 0 15 0;
#X restore 483 458 pd taps;
#X obj 380 576 outlet~;
#X obj 574 572 outlet~;
#X obj 379 523 r~ \$0-left;
#X obj 379 548 *~ 1.2;
#X obj 574 545 *~ 1.2;
#X obj 572 516 r~ \$0-right;
#X obj 358 225 inlet~;
#X obj 497 212 inlet;
#X obj 627 220 inlet;
#X obj 628 251 s \$0-freeze;
#N canvas 136 235 450 300 input 0;
#X obj 39 40 inlet~;
#X obj 81 263 s~ \$0-input;
#X obj 82 195 *~;
#X floatatom 125 148 5 0 0 0 - - -;
#X msg 139 119 0;
#X msg 205 121 1;
#X obj 113 175 lop~ 2;
#X obj 215 61 loadbang;
#X obj 138 87 sel 1;
#X obj 137 51 r \$0-freeze;
#X connect 0 0 2 0;
#X connect 2 0 1 0;
#X connect 3 0 6 0;
#X connect 4 0 3 0;
#X connect 5 0 3 0;
#X connect 6 0 2 1;
#X connect 7 0 5 0;
#X connect 8 0 4 0;
#X connect 8 1 5 0;
#X connect 9 0 8 0;
#X restore 359 259 pd input;
#N canvas 403 217 450 300 decay 0;
#X obj 103 33 inlet;
#X obj 94 246 s \$0-decay;
#X floatatom 95 88 5 0 0 0 - - -;
#X obj 218 58 sel 1;
#X obj 244 82 t b;
#X obj 220 27 r \$0-freeze;
#X msg 219 109 1;
#X connect 0 0 2 0;
#X connect 2 0 1 0;
#X connect 3 0 6 0;
#X connect 3 1 4 0;
#X connect 4 0 2 0;
#X connect 5 0 3 0;
#X connect 6 0 1 0;
#X restore 496 248 pd decay;
#X obj 856 270 s~ \$0-modulate;
#X floatatom 933 211 5 0 0 0 - - -;
#X floatatom 910 164 5 0 0 0 - - -;
#X obj 857 204 osc~ 0.5;
#X obj 857 240 *~ 0.05;
#X connect 7 0 8 0;
#X connect 8 0 5 0;
#X connect 9 0 6 0;
#X connect 10 0 9 0;
#X connect 11 0 15 0;
#X connect 12 0 16 0;
#X connect 13 0 14 0;
#X connect 18 0 21 1;
#X connect 19 0 20 1;
#X connect 20 0 21 0;
#X connect 21 0 17 0;
