#N canvas 52 286 688 443 10;
#X obj 101 101 tgl 10 1 empty empty empty 17 7 0 10 -99865 -262144
-1 1 1;
#X obj -35 299 outlet;
#X obj -100 174 expr ($f2 != 0);
#X obj -51 204 sel 1;
#X obj 100 112 bng 12 250 50 0 empty empty empty 17 7 0 10 -262144
-258113 -262144;
#X obj -97 80 inlet;
#X obj 26 226 t b;
#X obj 67 40 inlet;
#X obj 92 302 outlet;
#X msg 64 260 1;
#X msg 113 260 0;
#X obj 74 217 sel 1;
#X obj 60 74 route float bang;
#X obj 79 179 expr ($f2 != 0);
#X connect 0 0 2 1;
#X connect 0 0 13 1;
#X connect 2 0 3 0;
#X connect 3 0 6 0;
#X connect 5 0 2 0;
#X connect 6 0 4 0;
#X connect 6 0 1 0;
#X connect 7 0 12 0;
#X connect 9 0 8 0;
#X connect 10 0 8 0;
#X connect 11 0 9 0;
#X connect 11 1 10 0;
#X connect 12 0 0 0;
#X connect 12 1 13 0;
#X connect 13 0 11 0;
#X coords 0 -1 1 1 12 24 2 100 100;
