#N canvas 81 67 1164 569 10;
#N canvas 0 22 450 278 (subpatch) 0;
#X array \$0-sequence 16 float 1;
#A 0 1.11492 0.999535 0.945689 0.884151 0.822613 0.757229 0.691844
0.57646 0.553383 0.484153 0.430307 0.353384 0.214923 0.107231 -0.0312298
-0.115845;
#X coords 0 0 15 1 200 130 2 0 0;
#X restore 113 119 graph;
#X obj 8 -28 bng 15 250 50 0 empty empty empty 17 7 0 10 -262144 -1
-1;
#X floatatom -35 48 5 0 0 0 - - -;
#X obj 43 11 counter 0 1 16;
#X obj 208 445 tabread \$0-sequence;
#X floatatom 269 505 5 0 0 0 - - -;
#X obj 85 62 route 1 2 3 4 5 6 7 8 9 10 11 12 13 14 15 16;
#X floatatom 47 104 5 0 0 0 - - -;
#X obj 210 336 t b;
#X obj 212 419 f;
#X obj 27 -55 inlet;
#X obj 99 -48 inlet;
#X obj 207 512 outlet;
#X obj 206 478 expr 1 - $f1;
#X obj 347 194 ii;
#X obj -22 291 s \$0-length;
#X obj 202 -57 r \$0-length;
#X obj 171 -79 r \$0-offset;
#X obj -21 312 s \$0-offset;
#X msg 341 221 16;
#X obj 280 -35 inlet;
#X obj 341 -37 inlet;
#X obj 280 -5 * 16;
#X obj 282 23 int;
#X text 276 -54 length;
#X text 338 -55 offset;
#X obj 341 -4 * 15;
#X obj 342 24 int;
#X text 101 -65 reset;
#X text 26 -72 clock;
#X obj 101 103 cnv 15 100 14 empty empty empty 20 12 0 12 -262144 -66577
0;
#X floatatom 380 21 5 0 0 0 - - -;
#X floatatom 234 23 5 0 0 0 - - -;
#X obj 105 301 nbx 5 14 0 16 0 0 empty empty length 0 -8 1 10 -262144
-1 -1 14 256;
#X obj 161 302 nbx 5 14 0 15 0 0 empty empty offset 0 -8 1 10 -262144
-1 -1 0 256;
#X obj 455 -39 inlet;
#X text 415 -78 bang to output sequence;
#X text 415 -63 send a list to replace;
#X obj 565 480 outlet;
#X obj 452 64 tabdump \$0-sequence;
#X obj 491 -13 bng 15 250 50 0 empty empty empty 17 7 0 10 -262144
-1 -1;
#X obj 135 39 s \$0-overflow;
#X obj 458 288 t f;
#X obj 598 378 zl join;
#X msg 592 142 0;
#X obj 520 354 list-rev;
#X obj 806 69 zl slice 16;
#X obj 869 110 tabset \$0-sequence;
#X obj 488 174 uzi 16;
#X obj 794 246 unpack f f f f f f f f f f f f f f f f;
#X obj 485 199 counter 0 1 16;
#X obj 495 246 route 1 2 3 4 5 6 7 8 9 10 11 12 13 14 15 16;
#X obj 580 411 t b l;
#X obj 508 105 t b b b l b b;
#X obj 459 330 last-x 16;
#X msg 563 141 16;
#X obj 459 21 route bang;
#X floatatom 781 293 5 0 0 0 - - -;
#X obj 285 262 miniseqnote;
#X obj 117 262 miniseqnote;
#X obj 103 262 miniseqnote;
#X obj 131 262 miniseqnote;
#X obj 145 262 miniseqnote;
#X obj 159 262 miniseqnote;
#X obj 173 262 miniseqnote;
#X obj 187 262 miniseqnote;
#X obj 201 262 miniseqnote;
#X obj 215 262 miniseqnote;
#X obj 229 262 miniseqnote;
#X obj 243 262 miniseqnote;
#X obj 257 262 miniseqnote;
#X obj 271 262 miniseqnote;
#X obj 299 262 miniseqnote;
#X obj 313 262 miniseqnote;
#X obj 671 -15 inlet;
#X obj 671 7 * 16;
#X obj 672 31 int;
#X text 666 -35 direct address;
#X floatatom 685 64 5 0 0 0 - - -;
#X obj 40 37 t f f;
#X floatatom 44 71 5 0 0 0 - - -;
#X floatatom 115 448 5 0 0 0 - - -;
#X connect 1 0 3 0;
#X connect 3 0 2 0;
#X connect 3 0 79 0;
#X connect 3 3 41 0;
#X connect 4 0 13 0;
#X connect 6 0 7 0;
#X connect 6 0 60 0;
#X connect 6 1 59 0;
#X connect 6 2 61 0;
#X connect 6 3 62 0;
#X connect 6 4 63 0;
#X connect 6 5 64 0;
#X connect 6 6 65 0;
#X connect 6 7 66 0;
#X connect 6 8 67 0;
#X connect 6 9 68 0;
#X connect 6 10 69 0;
#X connect 6 11 70 0;
#X connect 6 12 71 0;
#X connect 6 13 58 0;
#X connect 6 14 72 0;
#X connect 6 15 73 0;
#X connect 8 0 9 0;
#X connect 9 0 4 0;
#X connect 9 0 81 0;
#X connect 10 0 3 0;
#X connect 11 0 3 2;
#X connect 13 0 12 0;
#X connect 13 0 5 0;
#X connect 14 0 19 0;
#X connect 16 0 3 4;
#X connect 17 0 3 3;
#X connect 19 0 33 0;
#X connect 20 0 22 0;
#X connect 21 0 26 0;
#X connect 22 0 23 0;
#X connect 22 0 32 0;
#X connect 23 0 33 0;
#X connect 26 0 27 0;
#X connect 26 0 31 0;
#X connect 27 0 34 0;
#X connect 33 0 15 0;
#X connect 34 0 18 0;
#X connect 35 0 56 0;
#X connect 39 0 53 0;
#X connect 40 0 56 0;
#X connect 42 0 54 0;
#X connect 43 0 52 0;
#X connect 44 0 54 1;
#X connect 45 0 43 0;
#X connect 46 0 49 0;
#X connect 46 1 47 0;
#X connect 48 0 50 0;
#X connect 49 0 57 0;
#X connect 49 0 60 1;
#X connect 49 1 59 1;
#X connect 49 2 61 1;
#X connect 49 3 62 1;
#X connect 49 4 63 1;
#X connect 49 5 64 1;
#X connect 49 6 65 1;
#X connect 49 7 66 1;
#X connect 49 8 67 1;
#X connect 49 9 68 1;
#X connect 49 10 69 1;
#X connect 49 11 70 1;
#X connect 49 12 71 1;
#X connect 49 13 58 1;
#X connect 49 14 72 1;
#X connect 49 15 73 1;
#X connect 50 0 51 0;
#X connect 51 0 60 1;
#X connect 51 1 59 1;
#X connect 51 2 61 1;
#X connect 51 3 62 1;
#X connect 51 4 63 1;
#X connect 51 5 64 1;
#X connect 51 6 65 1;
#X connect 51 7 66 1;
#X connect 51 8 67 1;
#X connect 51 9 68 1;
#X connect 51 10 69 1;
#X connect 51 11 70 1;
#X connect 51 12 71 1;
#X connect 51 13 58 1;
#X connect 51 14 72 1;
#X connect 51 15 73 1;
#X connect 52 1 38 0;
#X connect 53 0 48 0;
#X connect 53 2 50 2;
#X connect 53 3 43 1;
#X connect 53 4 55 0;
#X connect 53 5 44 0;
#X connect 54 0 45 0;
#X connect 55 0 54 1;
#X connect 56 0 39 0;
#X connect 56 1 46 0;
#X connect 58 0 8 0;
#X connect 58 1 42 0;
#X connect 59 0 8 0;
#X connect 59 1 42 0;
#X connect 60 0 8 0;
#X connect 60 1 42 0;
#X connect 61 0 8 0;
#X connect 61 1 42 0;
#X connect 62 0 8 0;
#X connect 62 1 42 0;
#X connect 63 0 8 0;
#X connect 63 1 42 0;
#X connect 64 0 8 0;
#X connect 64 1 42 0;
#X connect 65 0 8 0;
#X connect 65 1 42 0;
#X connect 66 0 8 0;
#X connect 66 1 42 0;
#X connect 67 0 8 0;
#X connect 67 1 42 0;
#X connect 68 0 8 0;
#X connect 68 1 42 0;
#X connect 69 0 8 0;
#X connect 69 1 42 0;
#X connect 70 0 8 0;
#X connect 70 1 42 0;
#X connect 71 0 8 0;
#X connect 71 1 42 0;
#X connect 72 0 8 0;
#X connect 72 1 42 0;
#X connect 73 0 8 0;
#X connect 73 1 42 0;
#X connect 74 0 75 0;
#X connect 75 0 76 0;
#X connect 76 0 78 0;
#X connect 76 0 79 0;
#X connect 79 0 80 0;
#X connect 79 0 6 0;
#X connect 79 1 9 1;
#X coords 0 -1 1 1 225 220 2 100 100;
