#N canvas 256 118 921 571 10;
#N canvas 0 22 450 278 (subpatch) 0;
#X array \$0-sequence 16 float 1;
#A 0 0.771332 0.779024 0.45595 0.409795 0.248259 0.425179 0.540562
0.340566 0.371333 0.648256 0.417487 0.471336 0.794414 0.894414 0.448257
0.66364;
#X coords 0 0 15 1 200 130 2 0 0;
#X restore 113 119 graph;
#X obj 8 -28 bng 15 250 50 0 empty empty empty 17 7 0 10 -262144 -1
-1;
#X floatatom -35 48 5 0 0 0 - - -;
#X obj 43 15 counter 0 1 16;
#X obj 208 445 tabread \$0-sequence;
#X floatatom 269 505 5 0 0 0 - - -;
#X obj 85 62 route 1 2 3 4 5 6 7 8 9 10 11 12 13 14 15 16;
#X floatatom 37 103 5 0 0 0 - - -;
#X obj 13 63 s \$0-index;
#X obj 212 381 t b;
#X obj 212 412 f;
#X obj 260 405 r \$0-index;
#X obj 103 262 miniseqnote;
#X obj 117 262 miniseqnote;
#X obj 131 262 miniseqnote;
#X obj 145 262 miniseqnote;
#X obj 159 262 miniseqnote;
#X obj 173 262 miniseqnote;
#X obj 187 262 miniseqnote;
#X obj 201 262 miniseqnote;
#X obj 215 262 miniseqnote;
#X obj 229 262 miniseqnote;
#X obj 243 262 miniseqnote;
#X obj 257 262 miniseqnote;
#X obj 271 262 miniseqnote;
#X obj 285 262 miniseqnote;
#X obj 299 262 miniseqnote;
#X obj 313 262 miniseqnote;
#X obj 39 -30 inlet;
#X obj 101 -30 inlet;
#X obj 207 512 outlet;
#X obj 206 478 expr 1 - $f1;
#X obj 347 194 ii;
#X obj 330 290 s \$0-length;
#X obj 202 -57 r \$0-length;
#X obj 171 -79 r \$0-offset;
#X obj 331 311 s \$0-offset;
#X msg 341 221 16;
#X obj 280 -35 inlet;
#X obj 341 -37 inlet;
#X obj 280 -5 * 16;
#X obj 282 23 int;
#X text 276 -54 length;
#X text 338 -55 offset;
#X obj 341 -4 * 15;
#X obj 342 24 int;
#X text 103 -47 reset;
#X text 38 -47 clock;
#X obj 101 103 cnv 15 100 14 empty empty empty 20 12 0 12 -262144 -66577
0;
#X floatatom 400 19 5 0 0 0 - - -;
#X floatatom 234 23 5 0 0 0 - - -;
#X obj 105 301 nbx 5 14 0 16 0 0 empty empty length 0 -8 1 10 -262144
-1 -1 16 256;
#X obj 161 302 nbx 5 14 0 15 0 0 empty empty offset 0 -8 1 10 -262144
-1 -1 0 256;
#X connect 1 0 3 0;
#X connect 3 0 2 0;
#X connect 3 0 6 0;
#X connect 3 0 8 0;
#X connect 4 0 31 0;
#X connect 6 0 7 0;
#X connect 6 0 12 0;
#X connect 6 1 13 0;
#X connect 6 2 14 0;
#X connect 6 3 15 0;
#X connect 6 4 16 0;
#X connect 6 5 17 0;
#X connect 6 6 18 0;
#X connect 6 7 19 0;
#X connect 6 8 20 0;
#X connect 6 9 21 0;
#X connect 6 10 22 0;
#X connect 6 11 23 0;
#X connect 6 12 24 0;
#X connect 6 13 25 0;
#X connect 6 14 26 0;
#X connect 6 15 27 0;
#X connect 9 0 10 0;
#X connect 10 0 4 0;
#X connect 11 0 10 1;
#X connect 12 0 9 0;
#X connect 13 0 9 0;
#X connect 14 0 9 0;
#X connect 15 0 9 0;
#X connect 16 0 9 0;
#X connect 17 0 9 0;
#X connect 18 0 9 0;
#X connect 19 0 9 0;
#X connect 20 0 9 0;
#X connect 21 0 9 0;
#X connect 22 0 9 0;
#X connect 23 0 9 0;
#X connect 24 0 9 0;
#X connect 25 0 9 0;
#X connect 26 0 9 0;
#X connect 27 0 9 0;
#X connect 28 0 3 0;
#X connect 29 0 3 2;
#X connect 31 0 30 0;
#X connect 31 0 5 0;
#X connect 32 0 37 0;
#X connect 34 0 3 4;
#X connect 35 0 3 3;
#X connect 37 0 51 0;
#X connect 38 0 40 0;
#X connect 39 0 44 0;
#X connect 40 0 41 0;
#X connect 40 0 50 0;
#X connect 41 0 51 0;
#X connect 44 0 45 0;
#X connect 44 0 49 0;
#X connect 45 0 52 0;
#X connect 51 0 33 0;
#X connect 52 0 36 0;
#X coords 0 -1 1 1 225 220 2 100 100;
