#N canvas 675 88 624 554 10;
#X obj 144 373 lpg~;
#X obj 93 210 inlet~;
#X obj 175 210 inlet;
#X text 91 183 signal;
#X text 171 182 control;
#X text 399 163 mode;
#X obj 392 189 inlet;
#X obj 392 213 route 0 1 2;
#X obj 144 426 outlet~;
#X obj 138 312 * 20000;
#N canvas 885 302 450 300 control 1;
#X obj 88 24 inlet;
#X obj 263 25 inlet;
#X obj 168 258 outlet;
#X obj 235 258 outlet;
#X obj 135 184 spigot;
#X obj 213 177 spigot;
#X obj 246 71 sel 0 1 2;
#X msg 157 128 1;
#X msg 184 129 0;
#X msg 229 128 1;
#X msg 268 128 1;
#X msg 340 136 0;
#X msg 368 141 1;
#X obj 126 223 expr pow($f1 \, 3);
#X obj 337 91 t b b b;
#X msg 310 130 1;
#X connect 0 0 4 0;
#X connect 0 0 5 0;
#X connect 1 0 6 0;
#X connect 4 0 13 0;
#X connect 5 0 3 0;
#X connect 6 0 7 0;
#X connect 6 0 8 0;
#X connect 6 1 9 0;
#X connect 6 1 10 0;
#X connect 6 2 14 0;
#X connect 7 0 4 1;
#X connect 8 0 5 1;
#X connect 9 0 4 1;
#X connect 10 0 5 1;
#X connect 11 0 4 1;
#X connect 12 0 5 1;
#X connect 13 0 2 0;
#X connect 14 0 15 0;
#X connect 14 1 11 0;
#X connect 14 2 12 0;
#X connect 15 0 13 0;
#X restore 184 261 pd control;
#X obj 250 347 sig~;
#X msg 385 249 0;
#X msg 310 245 1;
#X msg 464 268 0;
#X msg 344 246 0;
#X msg 422 249 0;
#X msg 514 278 1;
#X floatatom 163 339 5 0 0 0 - - -;
#X connect 0 0 8 0;
#X connect 1 0 0 0;
#X connect 2 0 10 0;
#X connect 6 0 7 0;
#X connect 6 0 10 1;
#X connect 7 0 13 0;
#X connect 7 0 15 0;
#X connect 7 1 12 0;
#X connect 7 1 16 0;
#X connect 7 3 14 0;
#X connect 7 3 17 0;
#X connect 9 0 0 1;
#X connect 9 0 18 0;
#X connect 10 0 9 0;
#X connect 10 1 11 0;
#X connect 11 0 0 2;
#X connect 12 0 11 0;
#X connect 13 0 11 0;
#X connect 14 0 11 0;
#X connect 15 0 9 0;
#X connect 16 0 9 0;
#X connect 17 0 9 0;
