#N canvas 675 88 624 554 10;
#X obj 147 464 lpg~;
#X obj 93 210 inlet~;
#X text 91 183 signal;
#X text 171 182 control;
#X text 399 163 mode;
#X obj 392 189 inlet;
#X obj 392 213 route 0 1 2;
#X obj 143 505 outlet~;
#X msg 385 249 0;
#X msg 310 245 1;
#X msg 464 268 0;
#X msg 344 246 0;
#X msg 422 249 0;
#X msg 514 278 1;
#N canvas 335 186 450 300 sigcontrol~ 1;
#X obj 273 35 inlet;
#X obj 259 61 sel 0 1 2;
#X msg 167 121 1;
#X msg 198 120 0;
#X msg 249 98 1;
#X msg 279 99 1;
#X msg 350 146 0;
#X msg 405 152 1;
#X obj 347 101 t b b b;
#X msg 320 140 1;
#X obj 98 34 inlet~;
#X obj 57 191 spigot~;
#X obj 73 272 outlet~;
#X obj 71 242 expr~ pow($v1 \, 3);
#X obj 246 198 spigot~;
#X obj 245 268 outlet~;
#X obj 150 224 sig~;
#X msg 261 125 0;
#X connect 0 0 1 0;
#X connect 1 0 2 0;
#X connect 1 0 3 0;
#X connect 1 1 4 0;
#X connect 1 1 5 0;
#X connect 1 1 17 0;
#X connect 1 2 8 0;
#X connect 2 0 11 1;
#X connect 3 0 14 1;
#X connect 4 0 11 1;
#X connect 5 0 14 1;
#X connect 6 0 11 1;
#X connect 7 0 14 1;
#X connect 8 0 9 0;
#X connect 8 1 6 0;
#X connect 8 2 7 0;
#X connect 9 0 16 0;
#X connect 10 0 11 0;
#X connect 10 0 14 0;
#X connect 11 1 13 0;
#X connect 13 0 12 0;
#X connect 14 1 15 0;
#X connect 16 0 13 0;
#X connect 17 0 16 0;
#X restore 147 261 pd sigcontrol~;
#X obj 175 210 inlet~;
#X obj 171 362 *~ 1;
#X obj 232 309 sig~;
#X connect 0 0 7 0;
#X connect 1 0 0 0;
#X connect 5 0 6 0;
#X connect 5 0 14 1;
#X connect 6 0 9 0;
#X connect 6 0 11 0;
#X connect 6 1 8 0;
#X connect 6 1 12 0;
#X connect 6 2 10 0;
#X connect 6 2 13 0;
#X connect 8 0 17 0;
#X connect 9 0 17 0;
#X connect 10 0 17 0;
#X connect 11 0 0 1;
#X connect 12 0 0 1;
#X connect 13 0 0 1;
#X connect 14 0 0 1;
#X connect 14 1 16 0;
#X connect 15 0 14 0;
#X connect 16 0 0 2;
#X connect 17 0 16 0;
