#N canvas 470 154 552 560 10;
#X obj 118 22 inlet~;
#X obj 234 344 *~ 1;
#X obj 231 481 outlet~;
#X obj 151 155 bpchannel~;
#X obj 309 366 env~;
#X obj 310 394 - 100;
#X obj 236 456 *~;
#X obj 309 419 / 100;
#X obj 305 448 expr 1 - $f1;
#X floatatom 318 480 5 0 0 0 - - -;
#X obj 255 399 lop~ 30;
#X obj 256 379 sig~;
#X obj 173 21 inlet;
#X obj 219 20 inlet;
#X obj 263 21 inlet;
#X obj 312 20 inlet;
#X obj 312 155 bpchannel~;
#X obj 206 155 bpchannel~;
#X obj 261 155 bpchannel~;
#X connect 0 0 3 0;
#X connect 0 0 16 0;
#X connect 0 0 17 0;
#X connect 0 0 18 0;
#X connect 1 0 4 0;
#X connect 1 0 6 0;
#X connect 3 0 1 0;
#X connect 4 0 5 0;
#X connect 5 0 7 0;
#X connect 6 0 2 0;
#X connect 7 0 8 0;
#X connect 8 0 9 0;
#X connect 9 0 11 0;
#X connect 10 0 6 1;
#X connect 11 0 10 0;
#X connect 12 0 3 1;
#X connect 13 0 17 1;
#X connect 14 0 18 1;
#X connect 15 0 16 1;
#X connect 16 0 1 0;
#X connect 17 0 1 0;
#X connect 18 0 1 0;
#X coords 0 -1 1 1 218 95 2 150 150;
