#N canvas 0 22 539 448 10;
#X obj 118 35 inlet;
#X obj 96 204 clip \$1 \$2;
#X obj 134 289 list-replace;
#X obj 121 92 t b b l;
#X obj 264 233 random;
#X obj 249 122 t l l;
#X obj 280 152 zl len;
#X obj 273 184 t b l;
#X obj 129 354 outlet;
#X obj 177 256 + 1;
#X obj 146 126 expr \$2 + 1;
#X obj 95 155 random;
#X connect 0 0 3 0;
#X connect 1 0 2 0;
#X connect 2 0 8 0;
#X connect 3 0 11 0;
#X connect 3 1 10 0;
#X connect 3 2 5 0;
#X connect 4 0 9 0;
#X connect 5 0 2 2;
#X connect 5 1 6 0;
#X connect 6 0 7 0;
#X connect 7 0 4 0;
#X connect 7 1 4 1;
#X connect 9 0 2 1;
#X connect 10 0 11 1;
#X connect 11 0 1 0;
