#N canvas 0 22 521 509 10;
#X msg 304 224 2;
#X msg 268 222 -2;
#X obj 169 332 mutateval;
#X obj 192 207 nbx 5 14 -1e+37 1e+37 0 0 empty empty empty 0 -8 0 10
-262144 -1 -1 0 256;
#X floatatom 191 367 5 0 0 0 - - -;
#X obj 130 132 inlet;
#X obj 200 422 outlet;
#X obj 199 130 inlet;
#X obj 306 130 inlet;
#X text 128 106 clock;
#X text 201 108 init;
#X text 303 105 max;
#X obj 257 131 inlet;
#X text 265 107 min;
#X obj 155 226 f \$1;
#X obj 163 162 t b b;
#X obj 265 268 f \$3;
#X floatatom 271 304 5 0 0 0 - - -;
#X floatatom 230 285 5 0 0 0 - - -;
#X obj 224 249 f \$2;
#X connect 0 0 16 1;
#X connect 1 0 19 1;
#X connect 2 0 4 0;
#X connect 3 0 14 1;
#X connect 4 0 6 0;
#X connect 4 0 14 1;
#X connect 5 0 14 0;
#X connect 5 0 15 0;
#X connect 7 0 3 0;
#X connect 8 0 16 1;
#X connect 12 0 19 1;
#X connect 14 0 2 0;
#X connect 15 0 19 0;
#X connect 15 1 16 0;
#X connect 16 0 2 2;
#X connect 16 0 17 0;
#X connect 19 0 2 1;
#X connect 19 0 18 0;
