#N canvas 188 185 504 415 10;
#X floatatom 199 152 5 0 0 0 - - -;
#X obj 198 121 random 2;
#X obj 218 179 sel 0 1;
#X msg 193 208 -1;
#X msg 225 211 1;
#X floatatom 198 316 5 0 0 0 - - -;
#X obj 259 145 t b;
#X obj 211 238 *;
#X obj 198 282 rotateval;
#X obj 248 38 inlet;
#X obj 343 39 inlet;
#X obj 250 76 s \$0-min;
#X obj 344 81 s \$0-max;
#X obj 281 248 r \$0-min;
#X obj 352 251 r \$0-max;
#X obj 112 35 inlet;
#X obj 185 368 outlet;
#X obj 121 79 t f b;
#X floatatom 107 130 5 0 0 0 - - -;
#X floatatom 222 259 5 0 0 0 - - -;
#X msg 307 169 1;
#X obj 313 144 ii;
#X connect 0 0 2 0;
#X connect 1 0 0 0;
#X connect 1 0 6 0;
#X connect 2 0 3 0;
#X connect 2 1 4 0;
#X connect 3 0 7 0;
#X connect 4 0 7 0;
#X connect 5 0 16 0;
#X connect 7 0 8 1;
#X connect 7 0 19 0;
#X connect 8 0 5 0;
#X connect 9 0 11 0;
#X connect 10 0 12 0;
#X connect 13 0 8 2;
#X connect 14 0 8 3;
#X connect 15 0 17 0;
#X connect 17 0 8 0;
#X connect 17 0 18 0;
#X connect 17 1 1 0;
#X connect 20 0 7 1;
#X connect 21 0 20 0;
