#N canvas 0 22 715 579 10;
#X obj 269 111 inlet;
#X obj 272 145 list;
#X obj 166 324 zl nth;
#X floatatom 240 225 5 0 0 0 - - -;
#X floatatom 129 280 5 0 0 0 - - -;
#X obj 167 296 list;
#X obj 164 271 t b;
#X obj 160 246 counter 1 1;
#X obj 277 173 t l l;
#X obj 288 209 zl len;
#X msg 332 111 5 4 3 2;
#X text 265 92 sequence;
#X obj 142 105 inlet;
#X obj 167 390 outlet;
#X obj 425 116 inlet;
#X text 421 95 reset;
#X connect 0 0 1 0;
#X connect 1 0 8 0;
#X connect 2 0 13 0;
#X connect 3 0 7 4;
#X connect 5 0 2 0;
#X connect 6 0 5 0;
#X connect 7 0 4 0;
#X connect 7 0 2 1;
#X connect 7 0 6 0;
#X connect 8 0 5 1;
#X connect 8 1 9 0;
#X connect 9 0 3 0;
#X connect 10 0 1 0;
#X connect 12 0 7 0;
#X connect 14 0 7 2;
