#N canvas 0 22 715 579 10;
#X obj 269 111 inlet;
#X obj 166 348 zl nth;
#X floatatom 272 232 5 0 0 0 - - -;
#X floatatom 129 280 5 0 0 0 - - -;
#X obj 277 173 t l l;
#X obj 288 209 zl len;
#X msg 332 111 5 4 3 2;
#X text 265 92 sequence;
#X obj 142 105 inlet;
#X obj 167 390 outlet;
#X obj 425 116 inlet;
#X text 421 95 reset;
#X obj 162 245 counter 0 1 5;
#X obj 164 271 t b f;
#X obj 272 145 zl reg;
#X obj 167 320 zl reg;
#X connect 0 0 14 0;
#X connect 1 0 9 0;
#X connect 2 0 12 4;
#X connect 4 0 15 1;
#X connect 4 1 5 0;
#X connect 5 0 2 0;
#X connect 6 0 14 0;
#X connect 8 0 12 0;
#X connect 10 0 12 2;
#X connect 12 0 3 0;
#X connect 12 0 13 0;
#X connect 13 0 15 0;
#X connect 13 1 1 1;
#X connect 14 0 4 0;
#X connect 15 0 1 0;
