#N canvas 0 22 450 300 10;
#X obj 251 203 sel 1;
#X obj 253 78 inlet~;
#X obj 252 239 outlet;
#X floatatom 185 235 5 0 0 0 - - -;
#X obj 351 74 metro 1;
#X obj 246 119 snapshot~;
#X obj 361 38 loadbang;
#X obj 319 50 bng 15 250 50 0 empty empty empty 17 7 0 10 -262144 -1
-1;
#X obj 250 173 <= 0.1;
#X floatatom 203 164 5 0 0 0 - - -;
#X connect 0 0 2 0;
#X connect 1 0 5 0;
#X connect 4 0 5 0;
#X connect 5 0 8 0;
#X connect 5 0 9 0;
#X connect 6 0 4 0;
#X connect 7 0 4 0;
#X connect 8 0 0 0;
#X connect 8 0 3 0;
