#N canvas 0 22 450 300 10;
#X obj 258 117 pan~;
#X obj 108 117 hsl 75 15 -45 45 0 1 empty empty pan -2 -8 1 10 -262144
-1 -1 3700 1;
#X obj 168 29 inlet~;
#X obj 194 231 outlet~;
#X obj 286 231 outlet~;
#X obj 330 48 inlet;
#X obj 331 91 * 90;
#X obj 329 124 - 45;
#X connect 0 0 3 0;
#X connect 0 1 4 0;
#X connect 1 0 0 1;
#X connect 2 0 0 0;
#X connect 5 0 6 0;
#X connect 6 0 7 0;
#X connect 7 0 1 0;
#X coords 0 -1 1 1 90 40 2 100 100;
