#N canvas 791 145 543 386 10;
#X obj 84 29 inlet;
#X obj 87 75 t b f;
#X obj 88 228 packel 1;
#X obj 174 40 inlet;
#X obj 116 268 +;
#X obj 105 341 outlet;
#X obj 201 118 int;
#X floatatom 274 140 5 0 0 0 - - -;
#X obj 115 299 +;
#X obj 276 63 length;
#X obj 91 143 list;
#X floatatom 324 88 5 0 0 0 - - -;
#X msg 270 -2 list 0 2 4 5 7 9 11 12;
#X obj 217 206 mod;
#X obj 320 204 -;
#X obj 186 164 moses;
#X floatatom 53 277 5 0 0 0 - - -;
#X floatatom 160 321 5 0 0 0 - - -;
#X floatatom 263 203 5 0 0 0 - - -;
#X msg 173 228 0;
#X obj 179 201 t b;
#X connect 0 0 1 0;
#X connect 1 0 10 0;
#X connect 1 1 6 0;
#X connect 2 0 4 0;
#X connect 2 0 16 0;
#X connect 3 0 4 1;
#X connect 4 0 8 0;
#X connect 6 0 7 0;
#X connect 6 0 15 0;
#X connect 8 0 5 0;
#X connect 8 0 17 0;
#X connect 9 0 11 0;
#X connect 9 0 15 1;
#X connect 9 0 14 1;
#X connect 9 0 13 1;
#X connect 10 0 2 0;
#X connect 12 0 9 0;
#X connect 12 0 10 1;
#X connect 13 0 2 1;
#X connect 14 0 8 1;
#X connect 15 0 2 1;
#X connect 15 0 20 0;
#X connect 15 1 13 0;
#X connect 15 1 14 0;
#X connect 15 1 18 0;
#X connect 19 0 8 1;
#X connect 20 0 19 0;
