#N canvas 0 22 649 609 10;
#X obj 85 60 nbx 5 14 -1e+37 1e+37 0 0 empty empty empty 0 -8 0 10
-262144 -1 -1 0 256;
#X obj 154 102 phasor~;
#X obj 157 139 -~ 0.5;
#X obj 168 335 *~;
#X obj 333 153 nbx 5 14 -1e+37 1e+37 0 0 empty empty empty 0 -8 0 10
-262144 -1 -1 0 256;
#X obj 218 201 / 10;
#X obj 220 230 pack 0 50;
#X obj 220 263 line~;
#X obj 221 292 +~ 1;
#X obj 170 368 clip~ -0.5 0.5;
#X obj 170 403 cos~;
#X obj 175 434 +~ 1;
#X obj 175 456 *~ 0.5;
#X obj 151 21 inlet~;
#X obj 236 25 inlet;
#X obj 176 506 outlet~;
#X connect 0 0 1 0;
#X connect 1 0 2 0;
#X connect 2 0 3 0;
#X connect 3 0 9 0;
#X connect 4 0 5 0;
#X connect 5 0 6 0;
#X connect 6 0 7 0;
#X connect 7 0 8 0;
#X connect 8 0 3 1;
#X connect 9 0 10 0;
#X connect 10 0 11 0;
#X connect 11 0 12 0;
#X connect 12 0 15 0;
#X connect 13 0 1 0;
#X connect 14 0 5 0;
