#N canvas 531 354 450 300 10;
#X obj 145 76 phasor~;
#X obj 261 34 inlet;
#X obj 138 30 inlet~;
#X obj 160 207 outlet~;
#X floatatom 197 35 5 0 0 0 - - -;
#X obj 152 129 expr~ $v1 > 0;
#X obj 147 102 -~ 0.5;
#X connect 0 0 6 0;
#X connect 2 0 0 0;
#X connect 4 0 0 0;
#X connect 5 0 3 0;
#X connect 6 0 5 0;
