#N canvas 922 337 450 300 10;
#X obj 261 34 inlet;
#X obj 138 30 inlet~;
#X obj 150 254 outlet~;
#X obj 152 164 expr~ $v1 > $v2;
#X floatatom 259 104 5 0 1 0 - - -;
#X obj 147 102 -~ 0.5;
#X obj 151 207 hip~ 1;
#X obj 145 76 phasor~ \$1;
#X connect 0 0 3 1;
#X connect 1 0 7 0;
#X connect 3 0 6 0;
#X connect 4 0 3 1;
#X connect 5 0 3 0;
#X connect 6 0 2 0;
#X connect 7 0 5 0;
