#N canvas 268 126 801 600 10;
#X floatatom 442 42 5 0 0 0 - - -;
#X obj 279 189 counter;
#X obj 598 265 zl;
#X obj 278 96 t l l;
#X obj 311 124 zl len;
#X obj 248 135 until;
#X floatatom 275 337 5 0 0 0 - - -;
#X obj 338 257 list;
#X obj 285 223 t b f;
#X obj 278 303 zl nth;
#X obj 226 170 bng 15 250 50 0 empty empty empty 17 7 0 10 -262144
-1 -1;
#X msg 408 259 list;
#X obj 422 213 ii;
#X floatatom 420 344 5 0 0 0 - - -;
#X obj 277 428 counter 0 1 3;
#X obj 269 370 t b f f;
#X obj 266 397 uzi;
#X obj 283 469 t b;
#X msg 289 44 0 2 3 5 7 8 11 12;
#X connect 0 0 1 2;
#X connect 1 0 8 0;
#X connect 3 0 7 1;
#X connect 3 1 4 0;
#X connect 4 0 1 4;
#X connect 5 0 1 0;
#X connect 6 0 15 0;
#X connect 7 0 9 0;
#X connect 8 0 7 0;
#X connect 8 1 9 1;
#X connect 9 0 6 0;
#X connect 10 0 1 0;
#X connect 12 0 11 0;
#X connect 15 0 16 0;
#X connect 15 1 16 1;
#X connect 15 2 14 4;
#X connect 16 0 14 0;
#X connect 18 0 3 0;
