#N canvas 0 22 613 332 10;
#X obj 56 53 inlet;
#X obj 214 54 inlet;
#X obj 114 253 outlet;
#X obj 336 140 bpm2ms;
#X obj 339 107 * 8;
#X obj 308 43 inlet;
#X obj 118 217 *;
#X obj 356 39 ii;
#X obj 253 54 ii;
#X obj 253 89 \$1;
#X obj 345 69 \$2;
#X text 55 23 float 0-1;
#X text 211 21 range 0+;
#X text 308 14 bpm;
#X obj 72 137 expr int(($f1 * $f2) + $f3) * 2;
#X obj 427 45 inlet;
#X text 417 18 integer - minimum;
#X obj 418 81 int;
#X msg 480 63 1;
#X obj 496 41 ii;
#X floatatom 140 87 5 0 0 0 - - -;
#X connect 0 0 14 0;
#X connect 1 0 14 1;
#X connect 1 0 20 0;
#X connect 3 0 6 1;
#X connect 4 0 3 0;
#X connect 5 0 4 0;
#X connect 6 0 2 0;
#X connect 7 0 10 0;
#X connect 8 0 9 0;
#X connect 9 0 14 1;
#X connect 10 0 4 0;
#X connect 14 0 6 0;
#X connect 15 0 17 0;
#X connect 17 0 14 2;
#X connect 18 0 17 0;
#X connect 19 0 18 0;
