#N canvas 135 152 498 581 10;
#X obj 131 320 randoflength;
#X obj 119 246 zl slice;
#X obj 84 368 zl slice;
#X obj 170 205 / 2;
#X obj 107 275 t l l;
#X obj 88 113 t l l;
#X obj 82 52 inlet;
#X obj 89 473 outlet;
#X obj 181 224 t f f;
#X obj 131 176 randoflength;
#X msg 146 59 1 2 3 4 5 6 7;
#X obj 184 476 outlet;
#X connect 0 0 2 1;
#X connect 1 1 4 0;
#X connect 2 0 7 0;
#X connect 3 0 8 0;
#X connect 4 0 2 0;
#X connect 4 1 0 0;
#X connect 5 0 1 0;
#X connect 5 1 9 0;
#X connect 6 0 5 0;
#X connect 8 0 1 1;
#X connect 8 1 11 0;
#X connect 9 0 3 0;
#X connect 10 0 5 0;
