#N canvas 0 22 450 300 10;
#X obj 153 211 outlet;
#X obj 152 132 random;
#X obj 151 172 /;
#X obj 150 58 inlet;
#X obj 115 88 bng 15 250 50 0 empty empty empty 17 7 0 10 -262144 -1
-1;
#X floatatom 70 222 5 0 0 0 - - -;
#X obj 151 98 t b b;
#X msg 239 118 1e+06;
#X connect 1 0 2 0;
#X connect 2 0 0 0;
#X connect 2 0 5 0;
#X connect 3 0 6 0;
#X connect 4 0 6 0;
#X connect 6 0 1 0;
#X connect 6 0 7 0;
#X connect 7 0 2 1;
#X connect 7 0 1 1;
