#N canvas 577 24 829 691 10;
#X obj 311 414 8bitshift;
#X obj 321 129 noise~;
#X obj 321 163 snapshot~;
#X obj 144 131 knob 32 32 0 1 0 0 empty empty chance 0 -8 1 10 -1 -4160
-4160 0 1;
#X obj 187 131 knob 32 32 0.01 1 1 0 empty empty change 0 -8 1 10 -1
-4160 -4160 0 1;
#X floatatom 371 196 5 0 0 0 - - -;
#X floatatom 262 384 5 0 0 0 - - -;
#X floatatom 230 299 5 0 0 0 - - -;
#X floatatom 394 442 5 0 0 0 - - -;
#X floatatom 427 337 5 0 0 0 - - -;
#X obj 362 384 bng 15 250 50 0 empty empty empty 17 7 0 10 -262144
-1 -1;
#X obj 395 442 s \$0-fdbck;
#X obj 306 268 r \$0-fdbck;
#X obj 299 337 myswitch;
#X floatatom 373 299 5 0 0 0 - - -;
#X obj 400 268 <;
#X floatatom 329 299 5 0 0 0 - - -;
#X obj 260 268 <;
#X obj 469 57 inlet;
#X obj 438 100 bng 15 250 50 0 empty empty empty 17 7 0 10 -262144
-1 -1;
#X obj 371 229 abs;
#X obj 281 220 abs;
#X text 104 99 randomseq8;
#X obj 233 131 knob 32 32 0 6 0 0 empty empty dist 0 -8 1 10 -16662
-4160 -4160 0 1;
#X obj 67 414 + 1;
#X obj 190 493 expr pow(2 \, $f1);
#X obj 190 527 mod;
#X obj 262 560 /;
#X floatatom 262 594 10 0 0 0 - - -;
#X floatatom 262 527 10 0 0 0 - - -;
#X floatatom 335 442 5 0 0 0 - - -;
#X floatatom 113 442 5 0 0 0 - - -;
#X floatatom 89 527 5 0 0 0 - - -;
#X obj 38 527 mod;
#X obj 89 493 * 1;
#X obj 262 627 outlet;
#X obj 85 581 /;
#X obj 85 615 outlet;
#X floatatom 155 615 5 0 0 0 - - -;
#X connect 0 0 26 0;
#X connect 0 0 30 0;
#X connect 0 0 34 0;
#X connect 0 1 8 0;
#X connect 1 0 2 0;
#X connect 2 0 5 0;
#X connect 2 0 20 0;
#X connect 2 0 21 0;
#X connect 3 0 17 1;
#X connect 4 0 15 1;
#X connect 8 0 11 0;
#X connect 10 0 0 0;
#X connect 12 0 13 1;
#X connect 12 0 16 0;
#X connect 13 0 6 0;
#X connect 13 0 10 0;
#X connect 13 0 0 1;
#X connect 14 0 10 0;
#X connect 14 0 13 0;
#X connect 15 0 9 0;
#X connect 15 0 14 0;
#X connect 17 0 7 0;
#X connect 17 0 13 2;
#X connect 18 0 19 0;
#X connect 19 0 2 0;
#X connect 20 0 15 0;
#X connect 21 0 17 0;
#X connect 23 0 25 0;
#X connect 23 0 24 0;
#X connect 24 0 31 0;
#X connect 24 0 33 1;
#X connect 25 0 27 1;
#X connect 25 0 26 1;
#X connect 25 0 29 0;
#X connect 26 0 27 0;
#X connect 27 0 28 0;
#X connect 28 0 35 0;
#X connect 31 0 36 1;
#X connect 32 0 36 0;
#X connect 33 0 32 0;
#X connect 34 0 33 0;
#X connect 36 0 37 0;
#X connect 36 0 38 0;
#X coords 0 -1 1 1 170 70 2 100 100;
