#N canvas 225 241 707 421 10;
#X obj 32 106 r~ spring-in;
#X obj 31 323 cpole~;
#X obj 254 31 r params;
#X obj 539 112 v count;
#X obj 115 343 throw~ spring-out;
#X obj 609 223 + 1;
#X obj 606 250 v count;
#X text 343 23 args - min \, random-range \, spacing \, time-const
\, time-const-range;
#X obj 253 60 t l b;
#X obj 197 107 unpack 0 0 0 0 0;
#X obj 422 182 expr $f1 + $f3*($f2-$f1);
#X obj 606 110 samplerate~;
#X obj 422 225 expr 1 - 1000/($f1*$f2);
#X obj 422 202 max 0.001;
#X obj 422 245 clip 0 1;
#X obj 135 189 expr $f1 + $f4*($f2-$f1)+$f5*$f3;
#X obj 134 215 expr $f1*2*3.14159/$f2;
#X obj 139 270 expr cos($f1)*$f2;
#X obj 256 269 expr sin($f1)*$f2;
#X floatatom 167 310 7 0 0 0 - - -;
#X floatatom 239 312 7 0 0 0 - - -;
#X floatatom 621 185 5 0 0 0 - - -;
#X floatatom 70 217 7 0 0 0 - - -;
#X floatatom 71 251 7 0 0 0 - - -;
#X floatatom 330 229 7 0 0 0 - - -;
#X obj 322 98 random 10000;
#X obj 322 118 / 10000;
#X obj 413 104 random 10000;
#X obj 413 124 / 10000;
#X connect 0 0 1 0;
#X connect 1 1 4 0;
#X connect 2 0 8 0;
#X connect 3 0 5 0;
#X connect 3 0 15 4;
#X connect 3 0 21 0;
#X connect 5 0 6 0;
#X connect 8 0 9 0;
#X connect 8 1 3 0;
#X connect 8 1 11 0;
#X connect 8 1 25 0;
#X connect 8 1 27 0;
#X connect 9 0 15 0;
#X connect 9 1 15 1;
#X connect 9 2 15 2;
#X connect 9 3 10 0;
#X connect 9 4 10 1;
#X connect 10 0 13 0;
#X connect 11 0 12 1;
#X connect 11 0 16 1;
#X connect 12 0 14 0;
#X connect 13 0 12 0;
#X connect 14 0 17 1;
#X connect 14 0 18 1;
#X connect 15 0 16 0;
#X connect 15 0 22 0;
#X connect 16 0 17 0;
#X connect 16 0 18 0;
#X connect 16 0 23 0;
#X connect 17 0 1 2;
#X connect 17 0 19 0;
#X connect 18 0 1 3;
#X connect 18 0 20 0;
#X connect 25 0 26 0;
#X connect 26 0 15 3;
#X connect 27 0 28 0;
#X connect 28 0 10 2;
