#N canvas 716 92 501 603 10;
#X obj 120 45 inlet;
#X obj 338 41 inlet;
#X text 110 15 value;
#X text 190 14 delta;
#X text 344 12 max;
#X obj 187 44 inlet;
#X obj 159 104 +;
#X obj 161 288 f;
#X obj 188 514 outlet;
#X obj 261 320 >;
#X obj 240 264 f;
#X obj 345 414 f;
#X floatatom 119 73 5 0 0 0 - - -;
#X floatatom 151 148 5 0 0 0 - - -;
#X floatatom 318 454 5 0 0 0 - - -;
#X obj 270 347 sel 1 0;
#X floatatom 312 307 5 0 0 0 - - -;
#X obj 152 195 sel 1 0;
#X floatatom 108 216 5 0 0 0 - - -;
#X floatatom 154 325 5 0 0 0 - - -;
#X obj 64 67 bng 15 250 50 0 empty empty empty 17 7 0 10 -262144 -1
-1;
#X obj 147 257 bng 15 250 50 0 empty empty empty 17 7 0 10 -262144
-1 -1;
#X obj 234 376 bng 15 250 50 0 empty empty empty 17 7 0 10 -262144
-1 -1;
#X obj 282 382 bng 15 250 50 0 empty empty empty 17 7 0 10 -262144
-1 -1;
#X obj 216 97 t b;
#X floatatom 340 110 5 0 0 0 - - -;
#X floatatom 182 67 5 0 0 0 - - -;
#X floatatom 203 486 5 0 0 0 - - -;
#X text 87 270 underflow;
#X text 194 383 over;
#X text 295 403 OK;
#X obj 235 325 bng 15 250 50 0 empty empty empty 17 7 0 10 -262144
-1 -1;
#X obj 197 227 t b b;
#X obj 198 262 bng 15 250 50 0 empty empty empty 17 7 0 10 -262144
-1 -1;
#X obj 310 387 t b;
#X obj 160 126 t f f;
#X obj 250 295 t f f;
#X msg 74 36 3;
#X obj 266 43 inlet;
#X text 260 13 min;
#X floatatom 264 119 5 0 0 0 - - -;
#X msg 289 86 1;
#X obj 156 169 <;
#X obj 216 442 f;
#X obj 256 151 s \$0-min;
#X obj 237 413 r \$0-min;
#X connect 0 0 12 0;
#X connect 1 0 25 0;
#X connect 5 0 26 0;
#X connect 6 0 35 0;
#X connect 7 0 19 0;
#X connect 9 0 15 0;
#X connect 10 0 16 0;
#X connect 10 0 31 0;
#X connect 10 0 36 0;
#X connect 11 0 14 0;
#X connect 12 0 6 0;
#X connect 12 0 24 0;
#X connect 13 0 42 0;
#X connect 14 0 27 0;
#X connect 15 0 22 0;
#X connect 15 1 23 0;
#X connect 15 1 34 0;
#X connect 17 0 21 0;
#X connect 17 1 32 0;
#X connect 19 0 27 0;
#X connect 20 0 12 0;
#X connect 21 0 7 0;
#X connect 22 0 43 0;
#X connect 24 0 25 0;
#X connect 24 0 26 0;
#X connect 25 0 7 1;
#X connect 25 0 9 1;
#X connect 26 0 6 1;
#X connect 27 0 8 0;
#X connect 32 0 33 0;
#X connect 32 0 10 0;
#X connect 34 0 11 0;
#X connect 35 0 13 0;
#X connect 35 1 10 1;
#X connect 36 0 9 0;
#X connect 36 1 11 1;
#X connect 37 0 12 0;
#X connect 38 0 40 0;
#X connect 40 0 42 1;
#X connect 40 0 44 0;
#X connect 41 0 40 0;
#X connect 42 0 17 0;
#X connect 42 0 18 0;
#X connect 43 0 27 0;
#X connect 45 0 43 1;
