#N canvas 95 55 688 602 10;
#X obj 106 57 bng 15 250 50 0 empty empty empty 17 7 0 10 -262144 -1
-1;
#X obj 133 116 f 30;
#X text 210 81 number of harmonics;
#X obj 133 182 until;
#X obj 133 232 f 1;
#X obj 163 232 + 1;
#X msg 148 205 1;
#X obj 133 262 expr 1/$f1;
#X obj 133 148 t f b b;
#X obj 133 300 list prepend;
#X obj 229 300 t l;
#X obj 106 337 list;
#N canvas 0 22 450 278 (subpatch) 0;
#X array \$0-saw 2051 float 2;
#X coords 0 1 2051 -1 200 140 1 0 0;
#X restore 396 139 graph;
#X obj 106 417 list trim;
#X obj 106 444 t b a;
#X msg 106 477 normalize;
#X obj 117 516 s \$0-saw;
#X obj 362 431 list prepend set;
#X obj 362 453 list trim;
#X msg 362 481 sinesum 2048 1 0.5 0.333333 0.25 0.2 0.166667 0.142857
0.125 0.111111 0.1 0.0909091 0.0833333 0.0769231 0.0714286 0.0666667
0.0625 0.0588235 0.0555556 0.0526316 0.05 0.047619 0.0454545 0.0434783
0.0416667 0.04 0.0384615 0.037037 0.0357143 0.0344828 0.0333333 0.0322581
0.03125 0.030303 0.0294118 0.0285714 0.0277778 0.027027 0.0263158 0.025641
0.025 0.0243902 0.0238095 0.0232558 0.0227273 0.0222222 0.0217391 0.0212766
0.0208333 0.0204082 0.02 0.0196078 0.0192308 0.0188679 0.0185185 0.0181818
0.0178571 0.0175439 0.0172414 0.0169492 0.0166667 0.0163934 0.016129
0.015873 0.015625 0.0153846 0.0151515 0.0149254 0.0147059 0.0144928
0.0142857 0.0140845 0.0138889 0.0136986 0.0135135 0.0133333 0.0131579
0.012987 0.0128205 0.0126582 0.0125 0.0123457 0.0121951 0.0120482 0.0119048
0.0117647 0.0116279 0.0114943 0.0113636 0.011236 0.0111111 0.010989
0.0108696 0.0107527 0.0106383 0.0105263 0.0104167 0.0103093 0.0102041
0.010101 0.01 0.00990099 0.00980392 0.00970874 0.00961538 0.00952381
0.00943396 0.00934579 0.00925926 0.00917431 0.00909091 0.00900901 0.00892857
0.00884956 0.00877193 0.00869565 0.00862069 0.00854701 0.00847458 0.00840336
0.00833333 0.00826446 0.00819672 0.00813008 0.00806452 0.008 0.00793651
0.00787402 0.0078125 0.00775194 0.00769231 0.00763359 0.00757576 0.0075188
0.00746269 0.00740741 0.00735294 0.00729927 0.00724638 0.00719424 0.00714286
0.0070922 0.00704225 0.00699301 0.00694444 0.00689655 0.00684932 0.00680272
0.00675676 0.00671141 0.00666667 0.00662252 0.00657895 0.00653595 0.00649351
0.00645161 0.00641026 0.00636943 0.00632911 0.00628931 0.00625 0.00621118
0.00617284 0.00613497 0.00609756 0.00606061 0.0060241 0.00598802 0.00595238
0.00591716 0.00588235 0.00584795 0.00581395 0.00578035 0.00574713 0.00571429
0.00568182 0.00564972 0.00561798 0.00558659 0.00555556 0.00552486 0.00549451
0.00546448 0.00543478 0.00540541 0.00537634 0.00534759 0.00531915 0.00529101
0.00526316 0.0052356 0.00520833 0.00518135 0.00515464 0.00512821 0.00510204
0.00507614 0.00505051 0.00502513 0.005 0.00497512 0.00495049 0.00492611
0.00490196 0.00487805 0.00485437 0.00483092 0.00480769 0.00478469 0.0047619
0.00473934 0.00471698 0.00469484 0.0046729 0.00465116 0.00462963 0.00460829
0.00458716 0.00456621 0.00454545 0.00452489 0.0045045 0.00448431 0.00446429
0.00444444 0.00442478 0.00440529 0.00438596 0.00436681 0.00434783 0.004329
0.00431034 0.00429185 0.0042735 0.00425532 0.00423729 0.00421941 0.00420168
0.0041841 0.00416667 0.00414938 0.00413223 0.00411523 0.00409836 0.00408163
0.00406504 0.00404858 0.00403226 0.00401606 0.004 0.00398406 0.00396825
0.00395257 0.00393701 0.00392157 0.00390625 0.00389105 0.00387597 0.003861
0.00384615 0.00383142 0.00381679 0.00380228 0.00378788 0.00377358 0.0037594
0.00374532 0.00373134 0.00371747 0.0037037 0.00369004 0.00367647 0.003663
0.00364964 0.00363636 0.00362319 0.00361011 0.00359712 0.00358423 0.00357143
0.00355872 0.0035461 0.00353357 0.00352113 0.00350877 0.0034965 0.00348432
0.00347222 0.00346021 0.00344828 0.00343643 0.00342466 0.00341297 0.00340136
0.00338983 0.00337838 0.003367 0.0033557 0.00334448 0.00333333 0.00332226
0.00331126 0.00330033 0.00328947 0.00327869 0.00326797 0.00325733 0.00324675
0.00323625 0.00322581 0.00321543 0.00320513 0.00319489 0.00318471 0.0031746
0.00316456 0.00315457 0.00314465 0.0031348 0.003125 0.00311526 0.00310559
0.00309598 0.00308642 0.00307692 0.00306748 0.0030581 0.00304878 0.00303951
0.0030303 0.00302115 0.00301205 0.003003 0.00299401 0.00298507 0.00297619
0.00296736 0.00295858 0.00294985 0.00294118 0.00293255 0.00292398 0.00291545
0.00290698 0.00289855 0.00289017 0.00288184 0.00287356 0.00286533 0.00285714
0.002849 0.00284091 0.00283286 0.00282486 0.0028169 0.00280899 0.00280112
0.0027933 0.00278552 0.00277778 0.00277008 0.00276243 0.00275482 0.00274725
0.00273973 0.00273224 0.0027248 0.00271739 0.00271003 0.0027027 0.00269542
0.00268817 0.00268097 0.0026738 0.00266667 0.00265957 0.00265252 0.0026455
0.00263852 0.00263158 0.00262467 0.0026178 0.00261097 0.00260417 0.0025974
0.00259067 0.00258398 0.00257732 0.00257069 0.0025641 0.00255754 0.00255102
0.00254453 0.00253807 0.00253165 0.00252525 0.00251889 0.00251256 0.00250627
0.0025 0.00249377 0.00248756 0.00248139 0.00247525 0.00246914 0.00246305
0.002457 0.00245098 0.00244499 0.00243902 0.00243309 0.00242718 0.00242131
0.00241546 0.00240964 0.00240385 0.00239808 0.00239234 0.00238663 0.00238095
0.0023753 0.00236967 0.00236407 0.00235849 0.00235294 0.00234742 0.00234192
0.00233645 0.002331 0.00232558 0.00232019 0.00231481 0.00230947 0.00230415
0.00229885 0.00229358 0.00228833 0.0022831 0.0022779 0.00227273 0.00226757
0.00226244 0.00225734 0.00225225 0.00224719 0.00224215 0.00223714 0.00223214
0.00222717 0.00222222 0.00221729 0.00221239 0.00220751 0.00220264 0.0021978
0.00219298 0.00218818 0.00218341 0.00217865 0.00217391 0.0021692 0.0021645
0.00215983 0.00215517 0.00215054 0.00214592 0.00214133 0.00213675 0.0021322
0.00212766 0.00212314 0.00211864 0.00211416 0.0021097 0.00210526 0.00210084
0.00209644 0.00209205 0.00208768 0.00208333 0.002079 0.00207469 0.00207039
0.00206612 0.00206186 0.00205761 0.00205339 0.00204918 0.00204499 0.00204082
0.00203666 0.00203252 0.0020284 0.00202429 0.0020202 0.00201613 0.00201207
0.00200803 0.00200401 0.002;
#X text 260 481 message sent -->;
#X obj 79 597 tabosc4~ \$0-saw;
#X obj 106 369 list prepend sinesum 2048;
#X obj 106 81 t b b b;
#X obj 171 99 nbx 5 14 -1e+37 1e+37 0 1 empty empty empty 0 -8 0 10
-262144 -1 -1 500 256;
#X obj 48 488 inlet~;
#X obj 77 688 outlet~;
#X obj 106 29 ii;
#X connect 0 0 23 0;
#X connect 1 0 8 0;
#X connect 3 0 4 0;
#X connect 4 0 5 0;
#X connect 4 0 7 0;
#X connect 5 0 4 1;
#X connect 6 0 4 1;
#X connect 7 0 9 0;
#X connect 8 0 3 0;
#X connect 8 1 6 0;
#X connect 8 2 9 1;
#X connect 9 0 10 0;
#X connect 9 0 11 1;
#X connect 10 0 9 1;
#X connect 11 0 22 0;
#X connect 13 0 14 0;
#X connect 14 0 15 0;
#X connect 14 1 16 0;
#X connect 15 0 16 0;
#X connect 17 0 18 0;
#X connect 18 0 19 0;
#X connect 21 0 26 0;
#X connect 22 0 13 0;
#X connect 22 0 17 0;
#X connect 23 0 11 0;
#X connect 23 1 1 0;
#X connect 23 2 24 0;
#X connect 24 0 1 1;
#X connect 25 0 21 0;
#X connect 27 0 0 0;
