#N canvas 496 60 598 682 10;
#X floatatom 300 144 5 0 0 0 - - -;
#X obj 112 46 inlet;
#X obj 288 120 inlet;
#X msg 175 17 0 2 3 5 7 8 11 12;
#X obj 239 185 ==;
#X obj 139 135 zl len;
#X obj 102 175 uzi;
#X msg 289 205 list;
#X obj 131 92 t b l b;
#X obj 154 409 zl join;
#X obj 111 304 zl nth;
#X floatatom 234 145 5 0 0 0 - - -;
#X obj 114 271 list;
#X obj 106 234 t l f;
#X obj 128 342 +;
#X obj 133 368 list;
#X obj 177 441 t b l;
#X obj 186 479 expr $f2 + 1;
#X obj 81 122 bng 15 250 50 0 empty empty empty 17 7 0 10 -262144 -1
-1;
#X floatatom 170 170 5 0 0 0 - - -;
#X floatatom 62 236 5 0 0 0 - - -;
#X msg 244 109 0;
#X obj 105 200 counter 0 1;
#X obj 193 522 print i;
#X obj 288 468 print list;
#X obj 105 465 print z;
#X obj 268 260 list;
#X msg 348 216 0;
#X obj 162 59 t l l b b;
#X connect 0 0 4 1;
#X connect 1 0 8 0;
#X connect 2 0 4 1;
#X connect 3 0 28 0;
#X connect 5 0 6 1;
#X connect 5 0 19 0;
#X connect 5 0 22 4;
#X connect 6 0 22 0;
#X connect 7 0 26 0;
#X connect 8 1 5 0;
#X connect 8 2 7 0;
#X connect 9 0 16 0;
#X connect 9 0 25 0;
#X connect 10 0 14 0;
#X connect 11 0 14 1;
#X connect 11 0 17 1;
#X connect 12 0 10 0;
#X connect 13 0 12 0;
#X connect 13 1 10 1;
#X connect 14 0 15 0;
#X connect 15 0 9 0;
#X connect 16 0 17 0;
#X connect 16 1 24 0;
#X connect 16 1 26 0;
#X connect 17 0 11 0;
#X connect 17 0 23 0;
#X connect 18 0 6 0;
#X connect 21 0 11 0;
#X connect 22 0 13 0;
#X connect 22 0 20 0;
#X connect 26 0 9 1;
#X connect 27 0 26 0;
#X connect 28 0 8 0;
#X connect 28 1 12 1;
#X connect 28 2 21 0;
#X connect 28 3 22 2;
