#N canvas 39 203 1125 499 10;
#X msg 113 241 list 0 2 4 5 7 9 11 12;
#X obj 103 108 popup 124 25 #ffffff scale major harmonic_minor lydian
dorian chromatic;
#X obj 748 170 popup-help;
#X obj 255 37 ii;
#X obj 112 35 inlet;
#X obj 108 367 outlet;
#X msg 172 65 name scale;
#X obj 190 41 ii;
#X text 120 100 comment;
#X msg 251 100 0;
#X obj 297 96 ii;
#X msg 128 276 list 0 2 3 5 7 8 11 12;
#X msg 145 312 list 0 2 4 6 7 9 11 12;
#X obj 414 302 print route_error;
#X obj 242 147 print s;
#X msg 246 65 options major harmonic_minor lydian dorian chromatic
;
#X obj 114 186 route 0 1 2 3 4;
#X msg 425 235 list 0 1 2 3 4 5 6 7 8 9 10 11 12;
#X msg 275 234 list 0 2 3 5 7 9 10 12;
#X connect 0 0 5 0;
#X connect 1 0 16 0;
#X connect 1 1 14 0;
#X connect 3 0 15 0;
#X connect 4 0 1 0;
#X connect 6 0 1 0;
#X connect 7 0 6 0;
#X connect 9 0 1 0;
#X connect 10 0 9 0;
#X connect 11 0 5 0;
#X connect 12 0 5 0;
#X connect 15 0 1 0;
#X connect 16 0 0 0;
#X connect 16 1 11 0;
#X connect 16 2 12 0;
#X connect 16 3 18 0;
#X connect 16 4 17 0;
#X connect 17 0 5 0;
#X connect 18 0 5 0;
#X coords 0 -1 1 1 130 35 2 100 100;
