#N canvas 310 145 462 425 10;
#X obj 156 182 mtof~;
#X obj 247 73 inlet;
#X obj 138 74 inlet;
#X text 146 52 note;
#X text 244 46 offet;
#X obj 160 132 +;
#X obj 162 333 outlet~;
#X obj 154 218 phasor~;
#X obj 155 272 -~ 0.5;
#X obj 245 108 t b;
#X obj 144 106 f;
#X connect 0 0 7 0;
#X connect 1 0 5 1;
#X connect 1 0 9 0;
#X connect 2 0 10 0;
#X connect 5 0 0 0;
#X connect 7 0 8 0;
#X connect 8 0 6 0;
#X connect 9 0 10 0;
#X connect 10 0 5 0;
