#N canvas 0 22 687 625 10;
#X obj 166 -18 inlet;
#X obj 405 385 env~;
#X obj 197 576 outlet~;
#X obj 198 454 *~;
#X floatatom 406 425 5 0 0 0 - - -;
#X obj 408 456 - 100;
#X obj 410 485 / 100;
#X obj 403 346 *~ 1;
#X obj 51 235 shopipe~;
#X obj 197 501 hip~;
#X floatatom 249 487 5 0 0 0 - - -;
#X obj 137 65 unpack f f f f f f f;
#X obj 88 102 t f;
#X obj 186 229 shopipe~;
#X obj 116 235 shopipe~;
#X obj 388 227 shopipe~;
#X obj 255 226 shopipe~;
#X obj 321 224 shopipe~;
#X connect 0 0 11 0;
#X connect 1 0 4 0;
#X connect 3 0 9 0;
#X connect 4 0 5 0;
#X connect 5 0 6 0;
#X connect 6 0 3 1;
#X connect 7 0 1 0;
#X connect 8 0 3 0;
#X connect 8 0 7 0;
#X connect 9 0 2 0;
#X connect 10 0 9 1;
#X connect 11 0 12 0;
#X connect 11 1 8 0;
#X connect 11 2 14 0;
#X connect 11 3 13 0;
#X connect 11 4 16 0;
#X connect 11 5 17 0;
#X connect 11 6 15 0;
#X connect 12 0 8 1;
#X connect 12 0 13 1;
#X connect 12 0 14 1;
#X connect 12 0 15 1;
#X connect 12 0 16 1;
#X connect 12 0 17 1;
#X connect 13 0 3 0;
#X connect 13 0 7 0;
#X connect 14 0 3 0;
#X connect 14 0 7 0;
#X connect 15 0 3 0;
#X connect 15 0 7 0;
#X connect 16 0 7 0;
#X connect 16 0 3 0;
#X connect 17 0 3 0;
#X connect 17 0 7 0;
