#N canvas 0 22 675 382 10;
#X obj 157 306 outlet~;
#X obj 96 39 inlet~;
#X obj 170 40 inlet~;
#X obj 255 40 inlet~;
#X obj 389 30 inlet;
#X obj 104 232 *~;
#X obj 172 231 *~;
#X obj 243 230 *~;
#X obj 383 61 route 0 1 2;
#X obj 358 93 t b;
#X msg 271 132 1;
#X msg 309 133 0;
#X msg 344 128 0;
#X obj 403 127 t b;
#X msg 411 165 0;
#X msg 338 169 0;
#X msg 377 170 1;
#X msg 455 159 0;
#X msg 494 160 0;
#X msg 528 155 1;
#X obj 467 95 t b b b;
#X connect 1 0 5 0;
#X connect 2 0 6 0;
#X connect 3 0 7 0;
#X connect 4 0 8 0;
#X connect 5 0 0 0;
#X connect 6 0 0 0;
#X connect 7 0 0 0;
#X connect 8 0 9 0;
#X connect 8 1 13 0;
#X connect 8 2 20 0;
#X connect 9 0 10 0;
#X connect 9 0 11 0;
#X connect 9 0 12 0;
#X connect 10 0 5 1;
#X connect 11 0 6 1;
#X connect 12 0 7 1;
#X connect 13 0 15 0;
#X connect 13 0 16 0;
#X connect 13 0 14 0;
#X connect 14 0 7 1;
#X connect 15 0 5 1;
#X connect 16 0 6 1;
#X connect 17 0 5 1;
#X connect 18 0 6 1;
#X connect 19 0 7 1;
#X connect 20 0 17 0;
#X connect 20 1 18 0;
#X connect 20 2 19 0;
