#N canvas 0 22 450 300 10;
#X obj 220 131 snapshot~;
#X obj 239 99 bang~;
#X obj 237 178 TogEdge;
#X obj 232 153 < 0;
#X obj 193 59 inlet~;
#X obj 272 233 outlet;
#X connect 0 0 3 0;
#X connect 1 0 0 0;
#X connect 2 1 5 0;
#X connect 3 0 2 0;
#X connect 4 0 0 0;
