#N canvas 0 22 806 678 10;
#X obj 268 516 clip~ -1 1;
#X obj 264 204 *~ 1;
#X obj 456 233 nbx 5 14 0 1e+37 0 1 empty empty empty 0 -8 0 10 -262144
-1 -1 1500 256;
#X obj 61 432 vd~ \$0-inline 50;
#X obj 84 399 nbx 5 14 -1e+37 1e+37 0 1 empty empty empty 0 -8 0 10
-262144 -1 -1 2 256;
#X obj 166 432 vd~ \$0-inline 50;
#X obj 189 399 nbx 5 14 -1e+37 1e+37 0 1 empty empty empty 0 -8 0 10
-262144 -1 -1 1 256;
#X obj 358 513 clip~ -1 1;
#X obj 376 442 *~ 0.7;
#X obj 428 411 nbx 5 14 0 0.4 0 1 empty empty empty 0 -8 0 10 -262144
-1 -1 0.175 256;
#X obj 397 476 delwrite~ \$0-inline 2000;
#X obj 332 286 hp4_butt~ 1000 50;
#X obj 200 283 lp4_butt~ 1000 50;
#X obj 270 398 lop~ 10000;
#X obj 338 373 nbx 5 14 -1e+37 1e+37 0 1 empty empty empty 0 -8 0 10
-262144 -1 -1 7000 256;
#X obj 117 481 *~ 1;
#X obj 189 467 *~ 1;
#X obj 209 333 dispersion3~;
#X obj 339 419 hip~ 200;
#X obj 427 343 nbx 5 14 0 20000 0 1 empty empty empty 0 -8 0 10 -262144
-1 -1 50 256;
#X obj 229 83 inlet~;
#X obj 336 182 vd~ \$0-inline 50;
#X obj 250 646 outlet~;
#X obj 382 643 outlet~;
#X obj 535 73 inlet;
#X obj 538 129 * 0.35;
#X obj 332 84 inlet~;
#X obj 332 120 delwrite~ \$0-right 100;
#X obj 283 151 vd~ \$0-right 5;
#X obj 254 578 crossfade~;
#X obj 371 572 crossfade~;
#X obj 627 68 inlet;
#X obj 631 105 s \$0-wetdry;
#X obj 475 523 r \$0-wetdry;
#X obj 328 341 dispersion3~;
#X connect 0 0 29 0;
#X connect 1 0 11 0;
#X connect 1 0 12 0;
#X connect 1 0 0 0;
#X connect 1 0 7 0;
#X connect 2 0 11 1;
#X connect 2 0 12 1;
#X connect 3 0 15 0;
#X connect 4 0 3 0;
#X connect 5 0 16 0;
#X connect 6 0 5 0;
#X connect 7 0 30 0;
#X connect 8 0 10 0;
#X connect 9 0 8 1;
#X connect 11 0 34 0;
#X connect 12 0 17 0;
#X connect 13 0 18 0;
#X connect 14 0 13 1;
#X connect 15 0 0 0;
#X connect 16 0 7 0;
#X connect 17 0 13 0;
#X connect 18 0 8 0;
#X connect 19 0 18 1;
#X connect 20 0 1 0;
#X connect 20 0 29 1;
#X connect 21 0 1 0;
#X connect 24 0 25 0;
#X connect 25 0 9 0;
#X connect 26 0 27 0;
#X connect 26 0 30 1;
#X connect 28 0 1 0;
#X connect 29 0 22 0;
#X connect 30 0 23 0;
#X connect 31 0 32 0;
#X connect 33 0 29 2;
#X connect 33 0 30 2;
#X connect 34 0 13 0;
