#N canvas 275 37 730 655 10;
#X obj 247 515 output~;
#X obj 274 453 clip~ -1 1;
#N canvas 433 237 450 300 source~ 0;
#X obj 211 159 osc~;
#X obj 270 78 metro;
#X obj 296 59 nbx 5 14 -1e+37 1e+37 0 1 empty empty empty 0 -8 0 10
-262144 -1 -1 300 256;
#X obj 254 36 tgl 15 0 empty empty empty 17 7 0 10 -262144 -1 -1 1
1;
#X obj 234 202 *~;
#X obj 321 133 random 2000;
#X obj 275 117 t b b;
#X floatatom 399 166 5 0 0 0 - - -;
#X obj 206 265 outlet~;
#X obj 224 237 *~;
#X obj 321 223 random 100;
#X obj 312 253 / 100;
#X obj 290 179 ead~ 15 700;
#X floatatom 381 80 5 0 0 0 - - -;
#X connect 0 0 4 0;
#X connect 1 0 6 0;
#X connect 2 0 1 1;
#X connect 3 0 1 0;
#X connect 4 0 9 0;
#X connect 5 0 7 0;
#X connect 5 0 0 0;
#X connect 6 0 12 0;
#X connect 6 1 5 0;
#X connect 6 1 10 0;
#X connect 9 0 8 0;
#X connect 10 0 11 0;
#X connect 11 0 9 1;
#X connect 12 0 4 1;
#X connect 13 0 5 1;
#X restore 211 56 pd source~;
#X obj 267 200 *~ 1;
#X obj 260 395 *~ 1;
#X obj 205 237 lp4_butt~ 1000;
#X obj 324 240 hp4_butt~ 1000;
#X floatatom 415 337 5 0 0 0 - - -;
#X obj 339 396 lop~;
#X obj 174 376 *~ 0.5;
#X obj 154 196 *~ 0.5;
#X obj 91 251 random 150;
#X obj 78 220 metro 300;
#X obj 72 186 tgl 15 0 empty empty empty 17 7 0 10 -262144 -1 -1 1
1;
#X obj 95 54 metro 300;
#X obj 99 80 random 50;
#X obj 79 20 tgl 15 0 empty empty empty 17 7 0 10 -262144 -1 -1 1 1
;
#X obj 425 142 nbx 5 14 0 1e+37 0 1 empty empty empty 0 -8 0 10 -262144
-1 -1 2000 256;
#X obj 105 282 + 50;
#X obj 124 357 vd~ \$0-fdbck 300;
#X obj 140 171 vd~ \$0-fdbck 100;
#X obj 399 472 delwrite~ \$0-fdbck 1000;
#X obj 105 302 pack \$0 20;
#X obj 109 322 vline~;
#N canvas 726 83 450 300 noiseblips~ 0;
#X obj 162 243 outlet~;
#X obj 72 30 tgl 15 0 empty empty empty 17 7 0 10 -262144 -1 -1 0 1
;
#X obj 48 115 pink~;
#X obj 145 143 *~;
#X obj 158 205 *~;
#X obj 108 91 metro 20;
#X floatatom 305 106 5 0 0 0 - - -;
#X floatatom 215 106 5 0 0 0 - - -;
#X obj 98 205 bng 15 250 50 0 empty empty empty 17 7 0 10 -262144 -1
-1;
#X obj 230 165 ead~ 5 20;
#X obj 173 63 * 100;
#X obj 187 18 poisson 5;
#X connect 1 0 5 0;
#X connect 2 0 3 0;
#X connect 3 0 4 0;
#X connect 4 0 0 0;
#X connect 5 0 8 0;
#X connect 5 0 9 0;
#X connect 5 0 11 0;
#X connect 7 0 3 1;
#X connect 9 0 4 1;
#X connect 10 0 5 1;
#X connect 11 0 6 0;
#X connect 11 0 10 0;
#X restore 290 16 pd noiseblips~;
#X obj 439 44 adc~ 1;
#N canvas 681 98 450 300 bass~ 0;
#X obj 181 266 outlet~;
#X obj 61 37 tgl 15 0 empty empty empty 17 7 0 10 -262144 -1 -1 0 1
;
#X obj 189 61 phasor~;
#X obj 178 160 moog~;
#X floatatom 249 130 5 0 0 0 - - -;
#X floatatom 205 7 5 0 0 0 - - -;
#X floatatom 305 139 5 0 0 0 - - -;
#X obj 185 184 *~;
#X obj 184 223 *~ 0.5;
#X obj 178 122 -~ 0.5;
#X obj 180 88 *~ 1;
#X obj 76 172 ead~ 5 200;
#X floatatom 135 131 5 0 0 0 - - -;
#X obj 82 89 metro 150;
#X connect 1 0 13 0;
#X connect 2 0 10 0;
#X connect 3 0 7 0;
#X connect 4 0 3 1;
#X connect 5 0 2 0;
#X connect 6 0 3 2;
#X connect 7 0 8 0;
#X connect 8 0 0 0;
#X connect 9 0 3 0;
#X connect 10 0 9 0;
#X connect 11 0 7 1;
#X connect 12 0 11 2;
#X connect 13 0 11 0;
#X restore 324 78 pd bass~;
#X obj 330 338 *~ 0.8;
#X obj 111 102 + 20;
#X obj 109 125 pack \$0 20;
#X obj 113 144 vline~;
#X floatatom 187 133 5 0 0 0 - - -;
#X floatatom 68 335 5 0 0 0 - - -;
#X obj 366 430 *~ 0.7;
#X obj 235 118 *~ 0.5;
#X obj 270 428 *~ 0.8;
#X obj 489 371 nbx 5 14 0 1 0 1 empty empty empty 0 -8 0 10 -262144
-1 -1 0.6 256;
#X obj 322 295 dispersion2~;
#X obj 186 289 dispersion2~;
#X connect 1 0 0 0;
#X connect 1 0 0 1;
#X connect 2 0 34 0;
#X connect 3 0 5 0;
#X connect 3 0 6 0;
#X connect 3 0 1 0;
#X connect 4 0 8 0;
#X connect 4 0 35 0;
#X connect 5 0 6 0;
#X connect 5 0 38 0;
#X connect 6 0 37 0;
#X connect 7 0 8 1;
#X connect 8 0 33 0;
#X connect 11 0 18 0;
#X connect 12 0 11 0;
#X connect 13 0 12 0;
#X connect 14 0 15 0;
#X connect 15 0 28 0;
#X connect 16 0 14 0;
#X connect 17 0 6 1;
#X connect 17 0 5 1;
#X connect 19 0 9 0;
#X connect 20 0 10 0;
#X connect 22 0 23 0;
#X connect 24 0 3 0;
#X connect 26 0 3 0;
#X connect 27 0 4 0;
#X connect 28 0 29 0;
#X connect 29 0 30 0;
#X connect 31 0 20 0;
#X connect 32 0 19 0;
#X connect 33 0 21 0;
#X connect 34 0 3 0;
#X connect 35 0 1 0;
#X connect 36 0 33 1;
#X connect 37 0 27 0;
#X connect 38 0 4 0;
