#N canvas 275 37 730 655 10;
#X obj 257 607 output~;
#X obj 258 506 clip~ -1 1;
#N canvas 441 78 622 581 source~ 0;
#X obj 202 184 osc~;
#X obj 270 78 metro;
#X obj 296 59 nbx 5 14 -1e+37 1e+37 0 1 empty empty empty 0 -8 0 10
-262144 -1 -1 807 256;
#X obj 266 36 tgl 15 0 empty empty empty 17 7 0 10 -262144 -1 -1 1
1;
#X obj 213 279 *~;
#X obj 275 117 t b b;
#X floatatom 383 156 5 0 0 0 - - -;
#X obj 159 547 outlet~;
#X obj 203 314 *~;
#X obj 312 253 / 100;
#X floatatom 381 80 5 0 0 0 - - -;
#X obj 376 108 random 5000;
#X obj 179 125 +~;
#X obj 316 17 random 1000;
#X obj 321 223 random 100;
#X obj 290 179 ead~ 10 10;
#X obj 196 395 *~;
#X obj 284 336 osc~ 1;
#X floatatom 315 295 5 0 0 0 - - -;
#X obj 249 367 *~ 1;
#X obj 394 278 random 1000;
#X obj 382 331 random 100;
#X obj 379 373 / 100;
#X obj 430 213 + 30;
#X obj 167 506 *~;
#X obj 265 429 osc~ 1;
#X obj 229 443 +~ 1;
#X floatatom 311 402 5 0 0 0 - - -;
#X obj 432 407 random 100;
#X obj 437 435 / 100;
#X obj 468 360 random 2000;
#X obj 204 481 *~;
#X obj 425 183 random 2500;
#X obj 331 43 + 50;
#X obj 380 131 + 60;
#X connect 0 0 4 0;
#X connect 1 0 5 0;
#X connect 1 0 20 0;
#X connect 1 0 21 0;
#X connect 1 0 30 0;
#X connect 1 0 28 0;
#X connect 1 0 32 0;
#X connect 1 0 13 0;
#X connect 2 0 1 1;
#X connect 3 0 1 0;
#X connect 4 0 8 0;
#X connect 5 0 15 0;
#X connect 5 1 11 0;
#X connect 5 1 14 0;
#X connect 8 0 16 0;
#X connect 9 0 8 1;
#X connect 10 0 11 1;
#X connect 11 0 12 0;
#X connect 11 0 34 0;
#X connect 12 0 0 0;
#X connect 13 0 33 0;
#X connect 14 0 9 0;
#X connect 15 0 4 1;
#X connect 16 0 24 0;
#X connect 17 0 19 0;
#X connect 18 0 17 0;
#X connect 19 0 16 1;
#X connect 20 0 18 0;
#X connect 21 0 22 0;
#X connect 22 0 19 1;
#X connect 23 0 15 2;
#X connect 24 0 7 0;
#X connect 25 0 26 0;
#X connect 26 0 31 0;
#X connect 27 0 25 0;
#X connect 28 0 29 0;
#X connect 29 0 31 1;
#X connect 30 0 27 0;
#X connect 31 0 24 1;
#X connect 32 0 23 0;
#X connect 33 0 2 0;
#X connect 34 0 6 0;
#X restore 156 20 pd source~;
#X obj 273 192 *~ 1;
#X obj 446 223 nbx 5 14 0 1e+37 0 1 empty empty empty 0 -8 0 10 -262144
-1 -1 1000 256;
#N canvas 726 83 450 300 noiseblips~ 0;
#X obj 162 243 outlet~;
#X obj 72 30 tgl 15 0 empty empty empty 17 7 0 10 -262144 -1 -1 0 1
;
#X obj 48 115 pink~;
#X obj 145 143 *~;
#X obj 158 205 *~;
#X obj 108 91 metro 20;
#X floatatom 305 106 5 0 0 0 - - -;
#X floatatom 215 106 5 0 0 0 - - -;
#X obj 98 205 bng 15 250 50 0 empty empty empty 17 7 0 10 -262144 -1
-1;
#X obj 230 165 ead~ 5 20;
#X obj 173 63 * 100;
#X obj 187 18 poisson 5;
#X obj 269 136 random 1000;
#X connect 1 0 5 0;
#X connect 2 0 3 0;
#X connect 3 0 4 0;
#X connect 4 0 0 0;
#X connect 5 0 8 0;
#X connect 5 0 9 0;
#X connect 5 0 11 0;
#X connect 7 0 3 1;
#X connect 9 0 4 1;
#X connect 10 0 5 1;
#X connect 11 0 6 0;
#X connect 11 0 10 0;
#X restore 290 16 pd noiseblips~;
#N canvas 681 98 450 300 bass~ 0;
#X obj 181 266 outlet~;
#X obj 61 37 tgl 15 0 empty empty empty 17 7 0 10 -262144 -1 -1 0 1
;
#X obj 189 61 phasor~;
#X obj 178 160 moog~;
#X floatatom 249 130 5 0 0 0 - - -;
#X floatatom 205 7 5 0 0 0 - - -;
#X floatatom 305 139 5 0 0 0 - - -;
#X obj 185 184 *~;
#X obj 178 122 -~ 0.5;
#X obj 180 88 *~ 1;
#X obj 76 172 ead~ 5 200;
#X floatatom 135 131 5 0 0 0 - - -;
#X obj 82 89 metro 150;
#X obj 184 223 *~ 1.1;
#X obj 300 79 random 100;
#X obj 302 109 / 100;
#X obj 267 34 random 1000;
#X floatatom 361 -13 5 0 0 0 - - -;
#X connect 1 0 12 0;
#X connect 2 0 9 0;
#X connect 3 0 7 0;
#X connect 4 0 3 1;
#X connect 5 0 2 0;
#X connect 6 0 3 2;
#X connect 7 0 13 0;
#X connect 8 0 3 0;
#X connect 9 0 8 0;
#X connect 10 0 7 1;
#X connect 11 0 10 2;
#X connect 12 0 10 0;
#X connect 12 0 14 0;
#X connect 12 0 16 0;
#X connect 13 0 0 0;
#X connect 14 0 15 0;
#X connect 15 0 13 1;
#X connect 16 0 2 0;
#X connect 17 0 16 1;
#X restore 324 78 pd bass~;
#X obj 305 146 vd~ \$0-inline 50;
#X obj 362 113 nbx 5 14 -1e+37 1e+37 0 1 empty empty empty 0 -8 0 10
-262144 -1 -1 43 256;
#X obj 51 422 vd~ \$0-inline 50;
#X obj 74 389 nbx 5 14 -1e+37 1e+37 0 1 empty empty empty 0 -8 0 10
-262144 -1 -1 2 256;
#X obj 156 422 vd~ \$0-inline 50;
#X obj 179 389 nbx 5 14 -1e+37 1e+37 0 1 empty empty empty 0 -8 0 10
-262144 -1 -1 1 256;
#X obj 348 503 clip~ -1 1;
#X obj 366 432 *~ 0.7;
#X obj 418 401 nbx 5 14 0 0.4 0 1 empty empty empty 0 -8 0 10 -262144
-1 -1 0.35 256;
#X obj 422 59 click~;
#X obj 424 23 bng 15 250 50 0 empty empty empty 17 7 0 10 -262144 -1
-1;
#X msg 482 12 set 1 1 1 1 1 1 1 1 1 1 1 1 1;
#X obj 387 466 delwrite~ \$0-inline 2000;
#X obj 75 309 + 2;
#X obj 117 309 + 1;
#X obj 322 276 hp4_butt~ 1000 50;
#X obj 190 273 lp4_butt~ 1000 50;
#X obj 260 388 lop~ 10000;
#X obj 328 363 nbx 5 14 -1e+37 1e+37 0 1 empty empty empty 0 -8 0 10
-262144 -1 -1 15000 256;
#X obj 180 82 *~ 0.8;
#X obj 107 471 *~ 1;
#X obj 179 457 *~ 1;
#X obj 199 323 dispersion3~;
#X obj 318 331 dispersion3~;
#X obj 329 409 hip~ 200;
#X obj 417 333 nbx 5 14 0 20000 0 1 empty empty empty 0 -8 0 10 -262144
-1 -1 100 256;
#X obj 204 139 hip~ 1;
#X obj 453 582 recorder~;
#X obj 574 476 vu~;
#X obj 272 564 vols~;
#X obj 124 552 hsl 128 15 50 150 0 0 empty empty empty -2 -8 0 10 -262144
-1 -1 6200 1;
#X connect 1 0 34 0;
#X connect 1 0 36 0;
#X connect 2 0 26 0;
#X connect 3 0 22 0;
#X connect 3 0 23 0;
#X connect 3 0 1 0;
#X connect 3 0 13 0;
#X connect 4 0 22 1;
#X connect 4 0 23 1;
#X connect 5 0 3 0;
#X connect 6 0 3 0;
#X connect 7 0 3 0;
#X connect 8 0 7 0;
#X connect 8 0 20 0;
#X connect 8 0 21 0;
#X connect 9 0 27 0;
#X connect 10 0 9 0;
#X connect 11 0 28 0;
#X connect 12 0 11 0;
#X connect 13 0 34 1;
#X connect 13 0 36 1;
#X connect 14 0 19 0;
#X connect 15 0 14 1;
#X connect 16 0 3 0;
#X connect 17 0 16 0;
#X connect 18 0 16 0;
#X connect 22 0 30 0;
#X connect 23 0 29 0;
#X connect 24 0 31 0;
#X connect 25 0 24 1;
#X connect 26 0 33 0;
#X connect 27 0 1 0;
#X connect 28 0 13 0;
#X connect 29 0 24 0;
#X connect 30 0 24 0;
#X connect 31 0 14 0;
#X connect 32 0 31 1;
#X connect 33 0 3 0;
#X connect 36 0 0 0;
#X connect 36 1 0 1;
#X connect 36 1 35 0;
#X connect 37 0 36 2;
