#N canvas 0 22 1194 562 10;
#X obj 258 142 lop~ 500;
#X obj 104 121 knob 32 32 0.01 3 1 0 empty empty empty 0 -8 0 8 -262144
-1 -1 0 1;
#X obj 145 121 knob 32 32 0.01 2 1 0 empty empty empty 0 -8 0 8 -262144
-1 -1 0 1;
#X obj 185 121 knob 32 32 0.01 10 1 0 empty empty empty 0 -8 0 8 -262144
-1 -1 0 1;
#X obj 327 278 *~;
#X obj 438 320 outlet~;
#X obj 357 67 inlet~;
#X obj 438 278 *~;
#X obj 523 278 *~;
#X obj 468 142 hip~ 2000;
#X obj 331 142 bp~ 500 2000;
#X obj 231 254 pack 0 50;
#X obj 330 231 pack 0 50;
#X obj 461 213 pack 0 50;
#X obj 231 284 line~;
#X obj 356 249 line~;
#X obj 461 243 line~;
#X obj 638 143 lop~ 500;
#X obj 707 279 *~;
#X obj 818 321 outlet~;
#X obj 737 68 inlet~;
#X obj 818 279 *~;
#X obj 903 279 *~;
#X obj 848 143 hip~ 2000;
#X obj 711 143 bp~ 500 2000;
#X obj 611 255 pack 0 50;
#X obj 710 232 pack 0 50;
#X obj 841 214 pack 0 50;
#X obj 736 250 line~;
#X obj 841 244 line~;
#X obj 604 308 line~;
#X connect 0 0 4 0;
#X connect 1 0 11 0;
#X connect 1 0 25 0;
#X connect 2 0 12 1;
#X connect 2 0 26 0;
#X connect 3 0 13 0;
#X connect 3 0 27 0;
#X connect 4 0 5 0;
#X connect 6 0 0 0;
#X connect 6 0 9 0;
#X connect 6 0 10 0;
#X connect 7 0 5 0;
#X connect 8 0 5 0;
#X connect 9 0 8 0;
#X connect 10 0 7 0;
#X connect 11 0 14 0;
#X connect 12 0 15 0;
#X connect 13 0 16 0;
#X connect 14 0 4 1;
#X connect 15 0 7 1;
#X connect 16 0 8 1;
#X connect 17 0 18 0;
#X connect 18 0 19 0;
#X connect 20 0 17 0;
#X connect 20 0 23 0;
#X connect 20 0 24 0;
#X connect 21 0 19 0;
#X connect 22 0 19 0;
#X connect 23 0 22 0;
#X connect 24 0 21 0;
#X connect 25 0 30 0;
#X connect 26 0 28 0;
#X connect 27 0 29 0;
#X connect 28 0 21 1;
#X connect 29 0 22 1;
#X connect 30 0 18 1;
#X coords 0 -1 1 1 120 60 1 100 100;
