#N canvas 170 63 405 565 10;
#X obj 121 -35 realtime;
#X obj 120 -3 / 1000;
#X obj 138 32 / 60;
#X obj 90 31 mod 60;
#X floatatom 148 107 5 0 0 0 - - -;
#X floatatom 105 107 5 0 0 0 - - -;
#X obj 102 -109 bng 15 250 50 0 empty empty empty 17 7 0 10 -262144
-1 -1;
#X obj 142 59 int;
#X obj 145 -78 metro 1000;
#X text 138 107 :;
#X obj 89 -169 inlet;
#X msg 160 -128 0;
#X obj 90 -142 sel 1;
#X connect 0 0 1 0;
#X connect 1 0 2 0;
#X connect 1 0 3 0;
#X connect 2 0 7 0;
#X connect 3 0 4 0;
#X connect 6 0 8 0;
#X connect 6 0 0 0;
#X connect 7 0 5 0;
#X connect 8 0 0 1;
#X connect 10 0 12 0;
#X connect 11 0 8 0;
#X connect 12 0 6 0;
#X connect 12 1 11 0;
#X coords 0 -1 1 1 85 30 2 100 100;
