#N canvas 0 22 877 593 10;
#X obj 99 228 vd~ \$0-tapeloop;
#X obj 75 311 s~ \$0-wet;
#X obj 148 396 s~ \$0-feedback;
#X obj 149 304 *~;
#X obj 96 203 +~;
#X obj 148 351 tanh~;
#X obj 100 274 +~;
#X obj 148 329 *~ 0.25;
#X obj 148 375 *~ 4;
#X obj 117 169 r~ \$0-wow;
#X obj 198 245 r \$0-fbamount;
#X obj 57 139 r \$0-delaytime;
#X obj 183 172 r~ \$0-flutter;
#X obj 108 27 inlet~;
#X obj 107 60 s~ \$0-input;
#X obj 296 559 outlet~;
#X obj 297 534 r~ \$0-wet;
#N canvas 1207 445 450 300 wow~ 0;
#X floatatom 174 103 5 0 0 0 - - -;
#X obj 104 30 pink~;
#X obj 106 60 samphold~;
#X obj 160 21 phasor~ 0.5;
#X obj 107 92 lop~ 0.05;
#X obj 60 151 s~ \$0-wow;
#X obj 107 123 *~ 5;
#X connect 0 0 6 1;
#X connect 1 0 2 0;
#X connect 2 0 4 0;
#X connect 3 0 2 1;
#X connect 4 0 6 0;
#X connect 6 0 5 0;
#X restore 727 59 pd wow~;
#N canvas 1207 445 450 300 flutter~ 0;
#X floatatom 174 103 5 0 0 0 - - -;
#X obj 104 30 pink~;
#X obj 106 60 samphold~;
#X obj 161 219 snapshot~;
#X obj 164 159 metro 100;
#X obj 166 132 tgl 15 0 empty empty empty 17 7 0 10 -262144 -1 -1 1
1;
#X floatatom 160 248 5 0 0 0 - - -;
#X obj 160 21 phasor~ 0.5;
#X obj 222 99 loadbang;
#X obj 53 262 s~ \$0-flutter;
#X obj 92 194 osc~;
#X floatatom 139 181 5 0 0 0 - - -;
#X obj 91 164 +~ 10;
#X obj 107 123 *~ 5;
#X obj 67 228 *~ 0.008;
#X obj 107 92 lop~ 0.1;
#X connect 0 0 13 1;
#X connect 1 0 2 0;
#X connect 2 0 15 0;
#X connect 3 0 6 0;
#X connect 4 0 3 0;
#X connect 5 0 4 0;
#X connect 7 0 2 1;
#X connect 8 0 5 0;
#X connect 10 0 14 0;
#X connect 11 0 14 1;
#X connect 12 0 3 0;
#X connect 12 0 10 0;
#X connect 13 0 12 0;
#X connect 14 0 9 0;
#X connect 15 0 13 0;
#X restore 723 90 pd flutter~;
#X obj 423 393 delwrite~ \$0-tapeloop 2000;
#X obj 485 168 r~ \$0-feedback;
#X obj 424 140 r~ \$0-input;
#X obj 424 224 hip~ 50;
#X obj 419 327 saturator~;
#X obj 424 256 svf~ 6000;
#X obj 420 303 *~ 0.666;
#X obj 419 358 /~ 0.666;
#X obj 259 23 inlet;
#X obj 259 58 s \$0-delaytime;
#X obj 462 20 inlet;
#X obj 471 47 s \$0-fbamount;
#X obj 60 167 lop~ 0.7;
#X connect 0 0 6 0;
#X connect 3 0 7 0;
#X connect 4 0 0 0;
#X connect 5 0 8 0;
#X connect 6 0 1 0;
#X connect 6 0 3 0;
#X connect 7 0 5 0;
#X connect 8 0 2 0;
#X connect 9 0 4 1;
#X connect 10 0 3 1;
#X connect 11 0 31 0;
#X connect 12 0 4 1;
#X connect 13 0 14 0;
#X connect 16 0 15 0;
#X connect 20 0 22 0;
#X connect 21 0 22 0;
#X connect 22 0 24 0;
#X connect 23 0 26 0;
#X connect 24 0 25 0;
#X connect 25 0 23 0;
#X connect 26 0 19 0;
#X connect 27 0 28 0;
#X connect 29 0 30 0;
#X connect 31 0 4 0;
