#N canvas 77 144 622 508 10;
#X obj 71 30 inlet;
#X obj 74 69 bng 15 250 50 0 empty empty empty 17 7 0 10 -262144 -1
-1;
#X floatatom 114 338 5 0 0 0 - - -;
#X text 102 299 output nth in sequence;
#X msg 202 64 5 4 3 2;
#X obj 317 29 inlet;
#X obj 71 404 zl nth;
#X floatatom 70 444 5 0 0 0 - - -;
#X obj 59 362 zl reg;
#X obj 72 478 outlet;
#X obj 371 27 inlet;
#X text 66 8 clock;
#X text 120 480 midi note number;
#X text 315 10 scale;
#X text 369 11 reset;
#X obj 447 30 inlet;
#X text 437 11 transpose;
#X obj 65 274 +;
#X floatatom 304 207 5 0 0 0 - - -;
#X obj 192 31 inlet;
#X text 191 14 sequence;
#X obj 306 120 bng 15 250 50 0 empty empty empty 17 7 0 10 -262144
-1 -1;
#X floatatom 88 200 5 0 0 0 - - -;
#X obj 57 302 t b f;
#X obj 63 157 numberseq;
#X connect 0 0 1 0;
#X connect 0 0 24 0;
#X connect 2 0 6 1;
#X connect 4 0 24 1;
#X connect 5 0 8 1;
#X connect 6 0 7 0;
#X connect 7 0 9 0;
#X connect 8 0 6 0;
#X connect 10 0 21 0;
#X connect 10 0 24 2;
#X connect 15 0 18 0;
#X connect 17 0 23 0;
#X connect 18 0 17 1;
#X connect 19 0 24 1;
#X connect 23 0 8 0;
#X connect 23 1 2 0;
#X connect 24 0 17 0;
#X connect 24 0 22 0;
