#N canvas 442 185 804 494 10;
#X obj 173 173 miniseqnote;
#X obj 186 173 miniseqnote;
#X obj 199 173 miniseqnote;
#X obj 212 173 miniseqnote;
#X obj 225 173 miniseqnote;
#X obj 238 173 miniseqnote;
#X obj 251 173 miniseqnote;
#X obj 264 173 miniseqnote;
#X obj 277 173 miniseqnote;
#X obj 290 173 miniseqnote;
#X obj 303 173 miniseqnote;
#X obj 316 173 miniseqnote;
#X obj 329 173 miniseqnote;
#X obj 342 173 miniseqnote;
#X obj 129 32 inlet;
#X obj 169 96 counter 0 1 16;
#X obj 133 74 bng 15 250 50 0 empty empty empty 17 7 0 10 -262144 -1
-1;
#X obj 139 140 route 1 2 3 4 5 6 7 8 9 10 11 12 13 14 15 16;
#X obj 355 173 miniseqnote;
#X obj 368 173 miniseqnote;
#X obj 176 32 inlet;
#X obj 227 32 inlet;
#X obj 283 31 inlet;
#X obj 268 273 t b;
#X obj 266 355 outlet;
#X text 127 4 bang;
#X text 225 10 length;
#X text 276 9 step num;
#X text 178 -1 reset;
#X text 178 10 offset;
#X connect 0 0 23 0;
#X connect 1 0 23 0;
#X connect 2 0 23 0;
#X connect 3 0 23 0;
#X connect 4 0 23 0;
#X connect 5 0 23 0;
#X connect 6 0 23 0;
#X connect 7 0 23 0;
#X connect 8 0 23 0;
#X connect 9 0 23 0;
#X connect 10 0 23 0;
#X connect 11 0 23 0;
#X connect 12 0 23 0;
#X connect 13 0 23 0;
#X connect 14 0 15 0;
#X connect 15 0 17 0;
#X connect 16 0 15 0;
#X connect 17 0 0 0;
#X connect 17 1 1 0;
#X connect 17 2 2 0;
#X connect 17 3 3 0;
#X connect 17 4 4 0;
#X connect 17 5 5 0;
#X connect 17 6 6 0;
#X connect 17 7 7 0;
#X connect 17 8 8 0;
#X connect 17 9 9 0;
#X connect 17 10 10 0;
#X connect 17 11 11 0;
#X connect 17 12 12 0;
#X connect 17 13 13 0;
#X connect 17 14 18 0;
#X connect 17 15 19 0;
#X connect 18 0 23 0;
#X connect 19 0 23 0;
#X connect 20 0 15 2;
#X connect 21 0 15 4;
#X connect 22 0 15 3;
#X connect 23 0 24 0;
#X coords 0 -1 1 1 213 30 2 170 170;
