#N canvas 39 114 586 417 10;
#X obj 192 10 inlet~;
#X obj 172 330 outlet~;
#X obj 181 304 max~;
#X floatatom 312 79 5 0 0 0 - - -;
#X obj 228 260 *~ 1;
#X obj 243 214 expr~ pow($v1 \, 1.3);
#X obj 261 169 lop~ 20;
#X connect 0 0 2 0;
#X connect 0 0 6 0;
#X connect 2 0 1 0;
#X connect 3 0 6 1;
#X connect 4 0 2 1;
#X connect 5 0 4 0;
#X connect 6 0 5 0;
