#N canvas 0 22 971 687 10;
#N canvas 472 64 858 658 bbd 0;
#X obj 441 353 *~ 0;
#X obj 533 204 vsl 15 128 0.01 1 1 0 empty empty empty 0 -9 0 10 -262144
-1 -1 0 1;
#X obj 375 210 line~;
#X floatatom 518 165 7 0 0 0 - - -;
#X obj 125 37 inlet~;
#X obj 242 748 outlet~;
#X obj 377 148 nbx 5 14 -1e+37 1e+37 0 0 empty empty empty 0 -8 0 10
-262144 -1 -1 0 256;
#X floatatom 462 423 5 0 0 0 - - -;
#X obj 423 614 s~ \$0-fdbk;
#X obj 186 64 r~ \$0-fdbk;
#X obj 496 357 expr (1 - $f1);
#X obj 376 36 inlet;
#X obj 133 94 delwrite~ \$0-b1 500;
#X obj 235 131 vd~ \$0-b1;
#X obj 137 163 delwrite~ \$0-b2 500;
#X obj 237 189 vd~ \$0-b2;
#X obj 240 712 vd~ \$0-b10;
#X obj 141 674 delwrite~ \$0-b10 500;
#X obj 137 221 delwrite~ \$0-b3 500;
#X obj 238 252 vd~ \$0-b3;
#X obj 138 284 delwrite~ \$0-b4 500;
#X obj 242 314 vd~ \$0-b4;
#X obj 142 347 delwrite~ \$0-b5 500;
#X obj 241 385 vd~ \$0-b5;
#X obj 132 421 delwrite~ \$0-b6 500;
#X obj 234 458 vd~ \$0-b6;
#X obj 136 490 delwrite~ \$0-b7 500;
#X obj 236 516 vd~ \$0-b7;
#X obj 136 548 delwrite~ \$0-b8 500;
#X obj 237 579 vd~ \$0-b8;
#X obj 137 611 delwrite~ \$0-b9 500;
#X obj 241 641 vd~ \$0-b9;
#X obj 518 32 inlet;
#X obj 601 56 inlet;
#X text 601 16 feedback;
#X text 516 15 decay;
#X text 126 19 input;
#X text 375 17 freq;
#X floatatom 623 100 5 0 0 0 - - -;
#X obj 609 489 lp2~;
#X obj 469 542 expr~ tanh($v1);
#N canvas 838 88 450 300 peaking 0;
#X floatatom 152 -139 3 45 65 0 - #0-pole -;
#X obj 152 -116 / 100;
#X floatatom 206 -140 4 30 45 0 - #0-zero -;
#X obj 206 -117 / 100;
#X floatatom 282 -141 5 80 180 0 - #0-pole -;
#X text 291 -179 angle;
#X text 275 -163 (degrees);
#X obj 336 -72 sin;
#X obj 281 -71 cos;
#X obj 281 -120 * 3.14159;
#X obj 281 -96 / 180;
#X obj 117 8 *;
#X obj 281 -47 t b f;
#X obj 336 -47 t b f;
#X obj 85 36 cpole~;
#X obj 102 67 czero~;
#X text 142 -175 pole and zero;
#X text 160 -160 radii (%);
#X obj 153 9 *;
#X obj 190 35 *;
#X obj 225 35 *;
#X obj 40 -130 inlet~;
#X obj 103 100 outlet~;
#X obj 90 -73 nbx 5 14 -1e+37 1e+37 0 1 empty empty empty 0 -8 0 10
-262144 -1 -1 45 256;
#X obj 178 -61 nbx 5 14 -1e+37 1e+37 0 0 empty empty empty 0 -8 0 10
-262144 -1 -1 0 256;
#X obj 378 -155 nbx 5 14 -1e+37 1e+37 0 0 empty empty empty 0 -8 0
10 -262144 -1 -1 0 256;
#X connect 0 0 1 0;
#X connect 1 0 11 0;
#X connect 1 0 18 0;
#X connect 2 0 3 0;
#X connect 3 0 19 0;
#X connect 3 0 20 0;
#X connect 4 0 9 0;
#X connect 7 0 13 0;
#X connect 8 0 12 0;
#X connect 9 0 10 0;
#X connect 10 0 8 0;
#X connect 10 0 7 0;
#X connect 11 0 14 2;
#X connect 12 0 11 0;
#X connect 12 0 19 0;
#X connect 12 1 11 1;
#X connect 12 1 19 1;
#X connect 13 0 18 0;
#X connect 13 0 20 0;
#X connect 13 1 20 1;
#X connect 13 1 18 1;
#X connect 14 0 15 0;
#X connect 14 1 15 1;
#X connect 15 0 22 0;
#X connect 18 0 14 3;
#X connect 19 0 15 2;
#X connect 20 0 15 3;
#X connect 21 0 14 0;
#X connect 23 0 1 0;
#X connect 24 0 3 0;
#X connect 25 0 9 0;
#X restore 372 509 pd peaking;
#X obj 600 534 hsl 128 15 0 1 0 1 empty empty empty -2 -8 0 10 -262144
-1 -1 12700 1;
#X floatatom 618 574 5 0 0 0 - - -;
#X obj 584 462 para_bp2~ 12000 5 -40 500;
#X obj 518 69 * 20000;
#X obj 579 399 nbx 5 14 -1e+37 1e+37 0 1 empty empty empty 0 -8 0 10
-262144 -1 -1 15000 256;
#X obj 662 380 nbx 5 14 -1e+37 1e+37 0 1 empty empty empty 0 -8 0 10
-262144 -1 -1 25 256;
#X obj 703 420 nbx 5 14 -1e+37 1e+37 0 1 empty empty empty 0 -8 0 10
-262144 -1 -1 -100 256;
#X obj 488 576 crossfade~;
#X obj 375 181 pack 0 50;
#X obj 509 451 nbx 5 14 -1e+37 1e+37 0 1 empty empty empty 0 -8 0 10
-262144 -1 -1 0.4 256;
#X obj 513 136 line;
#X obj 516 104 pack 0 100;
#X obj 433 478 lp2~ 20000 1;
#X connect 0 0 54 0;
#X connect 1 0 7 0;
#X connect 1 0 10 0;
#X connect 2 0 13 0;
#X connect 2 0 15 0;
#X connect 2 0 16 0;
#X connect 2 0 19 0;
#X connect 2 0 21 0;
#X connect 2 0 23 0;
#X connect 2 0 25 0;
#X connect 2 0 27 0;
#X connect 2 0 29 0;
#X connect 2 0 31 0;
#X connect 4 0 12 0;
#X connect 6 0 50 0;
#X connect 9 0 12 0;
#X connect 10 0 0 1;
#X connect 11 0 6 0;
#X connect 13 0 14 0;
#X connect 15 0 18 0;
#X connect 16 0 0 0;
#X connect 16 0 5 0;
#X connect 19 0 20 0;
#X connect 21 0 22 0;
#X connect 23 0 24 0;
#X connect 25 0 26 0;
#X connect 27 0 28 0;
#X connect 29 0 30 0;
#X connect 31 0 17 0;
#X connect 32 0 45 0;
#X connect 33 0 38 0;
#X connect 33 0 0 1;
#X connect 40 0 49 0;
#X connect 41 0 40 0;
#X connect 41 0 49 1;
#X connect 42 0 43 0;
#X connect 42 0 49 2;
#X connect 44 0 40 0;
#X connect 44 0 49 1;
#X connect 45 0 53 0;
#X connect 46 0 44 1;
#X connect 47 0 44 2;
#X connect 48 0 44 3;
#X connect 49 0 8 0;
#X connect 50 0 2 0;
#X connect 51 0 54 2;
#X connect 52 0 54 1;
#X connect 52 0 3 0;
#X connect 53 0 52 0;
#X connect 54 0 40 0;
#X connect 54 0 49 1;
#X restore 124 241 pd bbd;
#X obj 100 61 inlet~;
#X obj 159 568 outlet~;
#X obj 172 134 expr 1000 / $f1;
#X obj 610 311 hsl 128 15 1 0.01 1 0 empty empty feedback -2 -8 1 10
-262144 -1 -1 0 1;
#X obj 610 279 hsl 128 15 0.01 1 1 0 empty empty decay -2 -8 1 10 -262144
-1 -1 0 1;
#X obj 338 251 expr 1 - $f1;
#X obj 211 61 inlet;
#X obj 126 304 hip~ 1;
#X obj 338 301 line;
#X obj 337 275 pack 0 50;
#X obj 129 340 lop~ 10000;
#X floatatom 187 313 5 0 0 0 - - -;
#X obj 610 342 hsl 128 15 0 20000 0 1 empty empty lowpass -2 -8 1 10
-262144 -1 -1 4800 1;
#X obj 70 169 overdrive~;
#X obj 610 247 hsl 128 15 0.01 1 1 0 empty empty drive -2 -8 1 10 -262144
-1 -1 0 1;
#X obj 332 192 pack 0 50;
#X obj 329 216 line;
#X obj 156 447 *~ 1;
#X obj 607 216 nbx 5 14 0.01 2000 1 0 empty empty delay_ms 0 -8 1 10
-262144 -1 -1 0.01 256;
#X obj 671 216 nbx 5 14 0 20000 0 1 empty empty delay_hz 0 -8 1 10
-262144 -1 -1 880 256;
#X obj 611 373 hsl 128 15 0 1 0 1 empty empty dry/wet_mix -2 -8 1 10
-262144 -1 -1 3800 1;
#X obj 150 524 crossfade~;
#X text 103 37 input;
#X text 204 38 delay hz;
#X text 286 38 drive cv;
#X obj 295 61 inlet;
#X obj 405 200 * 11;
#X obj 402 224 + 1;
#X obj 356 62 inlet;
#X text 348 38 decay cv;
#X text 415 40 feedback cv;
#X obj 433 66 inlet;
#X floatatom 540 379 5 0 0 0 - - -;
#X floatatom 524 326 5 0 0 0 - - -;
#X connect 0 0 8 0;
#X connect 1 0 14 0;
#X connect 3 0 0 1;
#X connect 4 0 6 0;
#X connect 4 0 33 0;
#X connect 5 0 0 2;
#X connect 5 0 34 0;
#X connect 6 0 10 0;
#X connect 7 0 20 0;
#X connect 8 0 11 0;
#X connect 9 0 0 3;
#X connect 10 0 9 0;
#X connect 11 0 18 0;
#X connect 12 0 11 1;
#X connect 13 0 12 0;
#X connect 14 0 0 0;
#X connect 14 0 22 0;
#X connect 15 0 27 0;
#X connect 16 0 17 0;
#X connect 17 0 14 1;
#X connect 18 0 22 1;
#X connect 19 0 0 1;
#X connect 20 0 3 0;
#X connect 21 0 22 2;
#X connect 22 0 2 0;
#X connect 26 0 15 0;
#X connect 27 0 28 0;
#X connect 28 0 16 0;
#X connect 29 0 5 0;
#X connect 32 0 4 0;
#X coords 0 -1 1 1 150 195 2 600 200;
