#N canvas 0 22 870 536 10;
#X obj 246 550 outlet~;
#X obj 451 559 outlet~;
#X obj 326 509 pan~;
#X obj 395 114 tgl 15 0 empty empty empty 17 7 0 10 -262144 -1 -1 0
1;
#X obj 402 156 metro 5000;
#X obj 425 220 randomF 1;
#X floatatom 496 247 5 0 0 0 - - -;
#X obj 331 373 *~;
#X floatatom 489 454 5 0 0 0 - - -;
#X floatatom 508 386 5 0 0 0 - - -;
#X obj 479 410 expr (($f1 / 100) - 0.5) * 90;
#X obj 486 363 drunk 100 10;
#X floatatom 496 175 5 0 0 0 - - -;
#X obj 186 39 inlet;
#X obj 111 42 inlet;
#X obj 438 43 inlet;
#X text 433 19 decay;
#X text 107 21 bang;
#X text 184 18 hz;
#X obj 552 44 inlet;
#X text 548 22 min interval;
#X text 658 26 max interval;
#X obj 670 49 inlet;
#N canvas 896 348 450 300 strike 0;
#X obj 88 41 inlet;
#X obj 85 262 outlet~;
#X obj 211 45 nbx 5 14 0 1e+37 0 1 empty empty empty 0 -8 0 10 -262144
-1 -1 9000 256;
#X obj 89 223 *~ 1;
#X obj 95 73 t b f f;
#X floatatom 39 99 5 0 0 0 - - -;
#X obj 274 19 inlet;
#X floatatom 210 158 5 0 0 0 - - -;
#X obj 116 171 ead~ 5 1000;
#X obj 161 126 expr $f1;
#X connect 0 0 4 0;
#X connect 0 0 5 0;
#X connect 3 0 1 0;
#X connect 4 0 8 0;
#X connect 4 1 3 1;
#X connect 6 0 9 0;
#X connect 8 0 3 0;
#X connect 9 0 7 0;
#X connect 9 0 8 2;
#X restore 453 279 pd strike \$2;
#X obj 495 139 brownian \$3 \$4 0.5;
#X text 756 27 vol;
#X obj 333 433 *~ \$5;
#X obj 758 48 inlet;
#X obj 540 314 harmonics~ \$1 2 3.0102 4.1658 5.4317 6.7974 8.2159
;
#X obj 95 255 fmoperator 100 2 5 3;
#X obj 167 101 spigot;
#X obj 52 46 ii;
#X obj 195 80 != 0;
#X floatatom 235 61 5 0 0 0 - - -;
#X floatatom 217 126 5 0 0 0 - - -;
#X floatatom 83 117 5 0 0 0 - - -;
#X obj 59 94 expr \$1;
#X obj 168 61 t f f;
#X obj 123 177 * 1;
#X obj 214 359 *~ 1;
#X obj 215 203 fmoperator 100 0.6 4.8 3;
#X obj 252 249 fmoperator 100 0.22 0.83 1;
#X floatatom 127 210 5 0 0 0 - - -;
#X obj 163 315 osc~;
#X obj 236 302 *~ 0.05;
#X connect 2 0 0 0;
#X connect 2 1 1 0;
#X connect 3 0 4 0;
#X connect 4 0 5 0;
#X connect 4 0 11 0;
#X connect 4 0 24 0;
#X connect 5 0 23 0;
#X connect 5 0 6 0;
#X connect 7 0 26 0;
#X connect 10 0 2 1;
#X connect 10 0 8 0;
#X connect 11 0 9 0;
#X connect 11 0 10 0;
#X connect 13 0 33 0;
#X connect 13 0 37 0;
#X connect 14 0 4 0;
#X connect 15 0 23 1;
#X connect 19 0 24 1;
#X connect 22 0 24 2;
#X connect 23 0 7 1;
#X connect 24 0 4 1;
#X connect 24 0 12 0;
#X connect 26 0 2 0;
#X connect 27 0 26 1;
#X connect 29 0 44 0;
#X connect 30 0 34 0;
#X connect 30 0 38 0;
#X connect 31 0 36 0;
#X connect 32 0 30 1;
#X connect 36 0 35 0;
#X connect 36 0 38 0;
#X connect 37 0 30 0;
#X connect 37 1 32 0;
#X connect 38 0 29 0;
#X connect 38 0 40 0;
#X connect 38 0 41 0;
#X connect 38 0 42 0;
#X connect 38 0 43 0;
#X connect 39 0 7 0;
#X connect 40 0 44 0;
#X connect 41 0 44 0;
#X connect 43 0 39 0;
#X connect 44 0 39 0;
