#N canvas 57 32 893 588 10;
#X obj 277 556 outlet~;
#X obj 482 565 outlet~;
#X obj 357 515 pan~;
#X obj 426 120 tgl 15 0 empty empty empty 17 7 0 10 -262144 -1 -1 0
1;
#X obj 433 162 metro 5000;
#X obj 456 226 randomF 1;
#X floatatom 527 253 5 0 0 0 - - -;
#X obj 362 379 *~;
#X floatatom 520 460 5 0 0 0 - - -;
#X floatatom 539 392 5 0 0 0 - - -;
#X obj 510 416 expr (($f1 / 100) - 0.5) * 90;
#X obj 517 369 drunk 100 10;
#X floatatom 527 181 5 0 0 0 - - -;
#X obj 217 45 inlet;
#X obj 142 48 inlet;
#X obj 469 49 inlet;
#X text 464 25 decay;
#X text 138 27 bang;
#X text 215 24 hz;
#X obj 583 50 inlet;
#X text 579 28 min interval;
#X text 689 32 max interval;
#X obj 701 55 inlet;
#N canvas 896 348 450 300 strike 0;
#X obj 88 41 inlet;
#X obj 85 262 outlet~;
#X obj 211 45 nbx 5 14 0 1e+37 0 1 empty empty empty 0 -8 0 10 -262144
-1 -1 9000 256;
#X obj 89 223 *~ 1;
#X obj 95 73 t b f f;
#X floatatom 39 99 5 0 0 0 - - -;
#X obj 274 19 inlet;
#X floatatom 210 158 5 0 0 0 - - -;
#X obj 116 171 ead~ 5 1000;
#X obj 161 126 * \$1;
#X connect 0 0 4 0;
#X connect 0 0 5 0;
#X connect 2 0 9 1;
#X connect 3 0 1 0;
#X connect 4 0 8 0;
#X connect 4 1 3 1;
#X connect 4 2 9 0;
#X connect 6 0 9 1;
#X connect 8 0 3 0;
#X connect 9 0 7 0;
#X connect 9 0 8 2;
#X restore 484 285 pd strike \$2;
#X obj 526 145 brownian \$3 \$4 0.5;
#X text 787 33 vol;
#X obj 364 439 *~ \$5;
#X obj 789 54 inlet;
#X obj 142 184 harmonics~ \$1 1 3 5 7 9 11;
#X connect 2 0 0 0;
#X connect 2 1 1 0;
#X connect 3 0 4 0;
#X connect 4 0 5 0;
#X connect 4 0 11 0;
#X connect 4 0 24 0;
#X connect 5 0 23 0;
#X connect 5 0 6 0;
#X connect 7 0 26 0;
#X connect 10 0 2 1;
#X connect 10 0 8 0;
#X connect 11 0 9 0;
#X connect 11 0 10 0;
#X connect 13 0 28 0;
#X connect 14 0 4 0;
#X connect 15 0 23 1;
#X connect 19 0 24 1;
#X connect 22 0 24 2;
#X connect 23 0 7 1;
#X connect 24 0 4 1;
#X connect 24 0 12 0;
#X connect 26 0 2 0;
#X connect 27 0 26 1;
#X connect 28 0 7 0;
